<svg width="1921" height="1080" viewBox="0 0 1921 1080" fill="none" xmlns="http://www.w3.org/2000/svg">
<g clip-path="url(#clip0_133_39481)">
<path opacity="0.6" d="M1860.25 176.061C1864.93 176.061 1868.71 179.854 1868.71 184.531C1868.71 189.209 1864.93 193 1860.25 193C1855.56 193 1851.78 189.209 1851.78 184.531C1851.78 179.854 1855.56 176.061 1860.25 176.061Z" fill="#FF5452"/>
<path opacity="0.6" d="M1839.22 146.817C1845.2 146.817 1850.05 151.669 1850.05 157.654C1850.05 163.639 1845.2 168.491 1839.22 168.491C1833.23 168.491 1828.38 163.639 1828.38 157.654C1828.38 151.669 1833.23 146.817 1839.22 146.817Z" fill="#B565A7"/>
<path opacity="0.6" d="M1814.54 184.53C1817.54 184.53 1819.95 186.956 1819.95 189.949C1819.95 192.94 1817.54 195.366 1814.54 195.366C1811.55 195.366 1809.13 192.94 1809.13 189.949C1809.13 186.956 1811.55 184.53 1814.54 184.53Z" fill="#5BB85F"/>
<g opacity="0.6">
<path d="M40.6115 206.036C33.9766 206.036 28.5989 211.413 28.5989 218.048C28.5989 224.683 33.9766 230.061 40.6115 230.061C47.2465 230.061 52.6242 224.683 52.6242 218.048C52.6242 211.413 47.2465 206.036 40.6115 206.036Z" fill="#FF5452"/>
<path d="M363.026 228.999C356.613 233.014 354.668 241.469 358.685 247.883C362.7 254.294 371.154 256.238 377.569 252.223C383.98 248.208 385.925 239.753 381.908 233.341C377.893 226.926 369.439 224.984 363.026 228.999Z" fill="#FFA829"/>
<path d="M276.355 204.758C273.149 206.764 272.177 210.992 274.186 214.198C276.194 217.405 280.42 218.376 283.626 216.37C286.832 214.361 287.804 210.134 285.797 206.928C283.789 203.72 279.562 202.749 276.355 204.758Z" fill="#999999"/>
<path d="M4.57354 100C-8.69632 100 -19.4531 110.755 -19.4531 124.025C-19.4531 137.294 -8.69632 148.05 4.57354 148.05C17.842 148.05 28.5989 137.294 28.5989 124.025C28.5989 110.755 17.842 100 4.57354 100Z" fill="#B565A7"/>
<path d="M230.481 147.087C226.333 147.087 222.97 150.451 222.97 154.599C222.97 158.749 226.333 162.112 230.481 162.112C234.631 162.112 237.995 158.749 237.995 154.599C237.995 150.451 234.631 147.087 230.481 147.087Z" fill="#FFA829"/>
<path d="M122.976 144.279C114.902 144.279 108.357 150.823 108.357 158.898C108.357 166.971 114.902 173.516 122.976 173.516C131.051 173.516 137.594 166.971 137.594 158.898C137.594 150.823 131.051 144.279 122.976 144.279Z" fill="#5BB85F"/>
<path d="M178.488 116.238C176.413 116.238 174.731 117.92 174.731 119.994C174.731 122.069 176.413 123.752 178.488 123.752C180.563 123.752 182.245 122.069 182.245 119.994C182.245 117.92 180.563 116.238 178.488 116.238Z" fill="#999999"/>
</g>
</g>
<defs>
<clipPath id="clip0_133_39481">
<rect width="1920" height="1080" fill="white" transform="translate(0.546875)"/>
</clipPath>
</defs>
</svg>
