<svg width="628" height="365" viewBox="0 0 628 365" fill="none" xmlns="http://www.w3.org/2000/svg">
<path d="M296.359 230.162C301.254 229.823 305.489 231.15 309.579 233.057C311.407 233.909 313.559 234.526 315.578 234.526L320.934 234.404L320.997 174.867C320.997 169.244 316.41 164.687 310.753 164.687L254.158 164.896V163.675C254.158 161.284 254.771 158.949 255.818 156.796C258.563 151.153 259.69 144.593 258.507 137.672C256.16 123.939 244.69 113.224 230.757 111.708C211.585 109.622 195.365 124.49 195.365 143.122C195.365 147.652 196.335 151.952 198.066 155.843C198.962 157.858 199.481 160.016 199.481 162.218L199.816 164.895H196.388H131.609C125.951 164.895 121.365 169.453 121.365 175.076V233.289H116.501C114.237 233.289 112.029 232.71 109.991 231.718C104.652 229.12 98.1099 228.055 91.5617 229.174C78.5673 231.394 68.4272 242.248 66.9939 255.432C65.0207 273.574 79.0888 288.921 96.7189 288.921C101.005 288.921 105.073 288.003 108.756 286.365C110.662 285.517 112.704 285.026 114.789 285.026H121.031L121.156 356.233C121.156 360.812 124.89 364.523 129.498 364.523H312.054C316.662 364.523 320.271 358.739 320.271 354.161V289.441H312.882C311.174 289.441 309.487 289.778 307.904 290.414C304.721 291.694 301.249 292.41 297.605 292.41C281.955 292.41 269.34 279.491 269.969 263.798C270.523 249.971 282.468 231.126 296.359 230.162Z" fill="#E0E0E0"/>
<path d="M296.359 230.162C296.359 230.162 296.197 230.187 295.876 230.226C295.555 230.267 295.072 230.302 294.445 230.442C293.191 230.678 291.326 231.188 289.09 232.346C284.636 234.619 278.791 239.811 274.39 248.479C272.252 252.792 270.32 257.987 270.063 263.93C269.986 266.893 270.366 270.001 271.322 273.081C272.278 276.156 273.834 279.194 276.008 281.92C278.18 284.642 280.962 287.054 284.236 288.856C287.505 290.66 291.267 291.84 295.235 292.164C299.198 292.547 303.367 291.991 307.314 290.501C309.257 289.649 311.46 289.212 313.645 289.306C315.824 289.305 318.032 289.303 320.27 289.302H320.411V289.444C320.417 299.679 320.422 310.561 320.428 322.044C320.431 327.786 320.433 333.677 320.436 339.714C320.437 342.731 320.439 345.786 320.439 348.875C320.44 350.42 320.44 351.974 320.441 353.536C320.458 354.311 320.41 355.123 320.281 355.908C320.125 356.689 319.929 357.467 319.627 358.209C319.055 359.702 318.211 361.109 317.082 362.28C315.98 363.461 314.509 364.383 312.855 364.639C312.015 364.733 311.22 364.693 310.406 364.703C309.594 364.703 308.781 364.704 307.966 364.704C306.334 364.704 304.695 364.704 303.048 364.705C296.457 364.708 289.735 364.71 282.885 364.712C269.185 364.716 254.979 364.72 240.312 364.724C210.98 364.73 179.806 364.736 147.167 364.742C143.087 364.743 138.984 364.743 134.859 364.744C132.787 364.725 130.749 364.788 128.634 364.702C126.513 364.493 124.484 363.458 123.071 361.849C121.638 360.257 120.879 358.085 120.931 355.949C120.928 353.854 120.924 351.754 120.92 349.649C120.912 345.438 120.904 341.207 120.896 336.955C120.866 319.949 120.834 302.625 120.801 285.028L121.028 285.255C119.735 285.255 118.437 285.255 117.135 285.255C115.832 285.276 114.519 285.197 113.245 285.345C111.964 285.495 110.702 285.825 109.493 286.304C108.298 286.81 107.053 287.351 105.781 287.739C100.692 289.386 95.0939 289.584 89.7934 288.325C84.5167 287.018 79.4721 284.361 75.5926 280.403C73.5737 278.506 71.9707 276.209 70.5384 273.837C69.9202 272.593 69.2044 271.391 68.7578 270.067C68.5186 269.414 68.224 268.778 68.0288 268.109L67.4792 266.09C65.8798 259.455 66.4777 252.302 69.3319 246.145C72.1413 239.974 77.0795 234.86 83.0421 231.806C86.0195 230.264 89.2579 229.282 92.5518 228.795C95.8519 228.345 99.2135 228.426 102.47 229.028C104.097 229.331 105.698 229.763 107.25 230.324C108.026 230.606 108.793 230.912 109.539 231.262C110.295 231.61 111.003 231.961 111.771 232.222C114.805 233.419 118.123 232.982 121.361 233.064L121.135 233.29C121.136 220.699 121.137 208.264 121.138 196.002C121.139 189.872 121.14 183.784 121.14 177.742C121.17 176.239 121.043 174.721 121.32 173.19C121.587 171.675 122.219 170.233 123.124 168.999C124.915 166.512 127.831 164.885 130.872 164.713C154.669 164.704 177.697 164.696 199.812 164.688L199.606 164.921C199.491 164.003 199.382 163.123 199.272 162.245L199.27 162.231V162.218C199.271 160.582 198.976 158.953 198.454 157.411C198.198 156.636 197.859 155.901 197.535 155.133C197.22 154.368 196.938 153.59 196.681 152.806C195.665 149.666 195.158 146.386 195.158 143.13L195.29 140.695C195.321 140.291 195.316 139.884 195.375 139.483L195.572 138.285C195.721 137.491 195.791 136.681 196.007 135.905L196.651 133.579C196.744 133.187 196.884 132.812 197.04 132.441L197.481 131.324C197.772 130.577 198.053 129.829 198.452 129.136L199.562 127.021L200.875 125.037C202.715 122.472 204.828 120.09 207.328 118.212L208.238 117.477L209.212 116.835C209.867 116.417 210.506 115.974 211.17 115.578C212.557 114.89 213.889 114.094 215.352 113.602C218.19 112.403 221.218 111.811 224.219 111.478C225.73 111.413 227.236 111.254 228.736 111.407C229.485 111.457 230.236 111.47 230.978 111.551C231.717 111.663 232.455 111.775 233.192 111.887C239.039 113.032 244.472 115.752 248.721 119.651C252.97 123.535 256.149 128.465 257.734 133.8C259.401 139.11 259.537 144.75 258.381 149.969C257.799 152.578 256.86 155.087 255.707 157.421C255.182 158.601 254.787 159.832 254.557 161.088C254.308 162.347 254.306 163.613 254.316 164.896L254.153 164.733C269.502 164.684 283.882 164.637 297.207 164.595C300.539 164.584 303.804 164.575 307.002 164.564C307.801 164.562 308.597 164.559 309.387 164.557C310.177 164.549 310.964 164.548 311.76 164.605C313.34 164.756 314.858 165.286 316.178 166.094C318.85 167.695 320.614 170.513 321.007 173.444C321.191 174.921 321.086 176.361 321.111 177.788C321.109 179.214 321.106 180.624 321.104 182.015C321.058 204.27 321.022 221.963 320.997 234.407V234.473L320.931 234.474C318.773 234.503 316.767 234.603 314.889 234.564C313.01 234.428 311.332 233.892 309.877 233.252C307.006 231.89 304.515 231.045 302.479 230.628C300.443 230.205 298.895 230.14 297.876 230.133C297.366 230.128 296.986 230.143 296.733 230.155C296.484 230.161 296.359 230.162 296.359 230.162C296.359 230.162 296.857 230.102 297.88 230.096C298.9 230.09 300.452 230.145 302.496 230.558C304.54 230.964 307.047 231.804 309.922 233.156C311.37 233.787 313.041 234.314 314.901 234.443C316.76 234.475 318.778 234.371 320.932 234.336L320.867 234.403C320.868 221.959 320.869 204.267 320.87 182.011C320.871 180.62 320.871 179.212 320.872 177.785C320.846 176.363 320.946 174.901 320.764 173.475C320.378 170.617 318.654 167.871 316.046 166.315C314.757 165.529 313.278 165.014 311.739 164.868C310.972 164.815 310.185 164.817 309.393 164.825C308.601 164.829 307.806 164.832 307.007 164.836C303.809 164.85 300.544 164.863 297.212 164.878C283.887 164.934 269.507 164.994 254.159 165.058L253.997 165.059L253.995 164.896C253.983 163.627 253.985 162.311 254.238 161.029C254.472 159.746 254.875 158.489 255.408 157.286C256.562 154.943 257.478 152.483 258.055 149.895C259.195 144.735 259.055 139.151 257.403 133.904C255.831 128.63 252.684 123.758 248.481 119.921C244.277 116.069 238.904 113.385 233.127 112.256C232.399 112.146 231.67 112.036 230.939 111.925C230.205 111.846 229.462 111.834 228.722 111.785C227.24 111.633 225.752 111.793 224.258 111.857C221.294 112.188 218.302 112.773 215.499 113.961C214.055 114.446 212.74 115.236 211.369 115.915C210.712 116.305 210.082 116.745 209.436 117.158L208.473 117.793L207.575 118.52C205.106 120.376 203.021 122.73 201.204 125.264L199.908 127.224L198.814 129.314C198.42 129.998 198.143 130.737 197.857 131.474L197.422 132.578C197.269 132.943 197.13 133.314 197.039 133.701L196.404 135.997C196.192 136.764 196.124 137.564 195.976 138.348L195.782 139.53C195.724 139.926 195.729 140.328 195.699 140.727L195.57 143.131C195.572 146.346 196.073 149.583 197.077 152.681C197.33 153.455 197.609 154.222 197.92 154.977C198.236 155.724 198.588 156.487 198.85 157.28C199.385 158.861 199.689 160.534 199.689 162.219L199.688 162.194C199.797 163.072 199.907 163.952 200.023 164.87L200.052 165.103H199.817C177.712 165.118 154.693 165.134 130.907 165.151C127.992 165.316 125.201 166.877 123.485 169.26C122.618 170.442 122.013 171.821 121.759 173.272C121.494 174.711 121.615 176.234 121.587 177.744C121.587 183.786 121.587 189.873 121.588 196.004C121.589 208.266 121.59 220.701 121.592 233.292V233.518H121.365C119.743 233.518 118.118 233.518 116.49 233.518C114.833 233.517 113.182 233.205 111.623 232.65C110.843 232.385 110.083 232.01 109.353 231.675C108.619 231.33 107.863 231.028 107.099 230.752C105.57 230.199 103.993 229.774 102.39 229.476C99.1818 228.882 95.8686 228.803 92.6169 229.247C89.3723 229.728 86.1865 230.694 83.254 232.213C77.3838 235.22 72.5168 240.259 69.7514 246.336C66.9411 252.397 66.3529 259.447 67.9277 265.982L68.4693 267.97C68.661 268.629 68.9512 269.255 69.1877 269.898C69.6265 271.203 70.3326 272.386 70.9411 273.611C72.3524 275.946 73.9298 278.21 75.9188 280.078C79.7386 283.977 84.7066 286.593 89.9025 287.88C95.122 289.121 100.636 288.926 105.646 287.305C106.912 286.917 108.098 286.401 109.33 285.88C110.572 285.388 111.874 285.048 113.197 284.893C114.531 284.739 115.839 284.822 117.139 284.8C118.441 284.8 119.739 284.8 121.033 284.8H121.259V285.027C121.289 302.624 121.318 319.949 121.347 336.954C121.354 341.206 121.361 345.437 121.368 349.648C121.371 351.753 121.375 353.854 121.378 355.948C121.33 358.004 122.046 360.038 123.406 361.556C124.746 363.083 126.671 364.065 128.683 364.264C130.71 364.347 132.812 364.287 134.864 364.306C138.989 364.307 143.092 364.307 147.172 364.308C179.811 364.314 210.985 364.32 240.318 364.326C254.985 364.331 269.191 364.334 282.89 364.339C289.74 364.341 296.462 364.343 303.053 364.346C304.701 364.347 306.34 364.347 307.971 364.347C308.786 364.347 309.599 364.348 310.411 364.348C311.218 364.34 312.045 364.377 312.811 364.29C314.363 364.049 315.769 363.181 316.835 362.038C317.926 360.908 318.75 359.538 319.309 358.084C319.604 357.362 319.794 356.605 319.946 355.848C320.07 355.08 320.118 354.325 320.103 353.537C320.104 351.975 320.104 350.421 320.104 348.876C320.105 345.786 320.107 342.732 320.108 339.714C320.111 333.678 320.113 327.787 320.116 322.045C320.122 310.562 320.127 299.679 320.133 289.444L320.274 289.586C318.036 289.585 315.828 289.583 313.649 289.582C311.471 289.492 309.359 289.908 307.413 290.754C303.427 292.253 299.216 292.809 295.218 292.417C291.215 292.085 287.421 290.888 284.126 289.065C280.826 287.243 278.025 284.807 275.84 282.06C273.653 279.309 272.09 276.244 271.131 273.143C270.173 270.038 269.796 266.907 269.879 263.925C270.15 257.941 272.101 252.735 274.257 248.412C278.693 239.727 284.575 234.536 289.057 232.277C291.306 231.126 293.181 230.627 294.441 230.404C295.07 230.271 295.555 230.242 295.877 230.207C296.196 230.173 296.359 230.162 296.359 230.162Z" fill="#263238"/>
<path d="M535.508 232.6C531.082 232.6 526.882 233.548 523.079 235.239C521.747 235.831 520.349 236.25 518.918 236.462V173.88C518.918 169.273 515.184 165.538 510.576 165.538H445.459V172.927C445.459 174.635 445.798 176.322 446.438 177.905C447.726 181.088 448.446 184.56 448.446 188.204C448.446 203.855 435.447 216.469 419.657 215.84C405.744 215.286 394.167 204.043 393.198 190.153C392.856 185.258 393.815 180.63 395.735 176.539C396.592 174.711 397.087 172.738 397.087 170.719V165.538L331.114 165.328C325.457 165.328 320.871 169.915 320.871 175.572L320.808 233.613H316.31C315.8 233.613 315.282 233.599 314.765 233.561C309.197 229.497 302.34 227.093 294.919 227.093C276.304 227.093 261.214 242.183 261.214 260.798C261.214 279.413 276.304 294.503 294.919 294.503C301.007 294.503 306.713 292.881 311.642 290.056C312.537 289.863 313.451 289.757 314.373 289.757H320.145V354.536C320.145 360.194 324.731 364.78 330.388 364.78H510.576C515.183 364.78 518.918 361.046 518.918 356.438V290.481C520.029 290.758 521.11 291.159 522.148 291.665C527.661 294.347 534.071 295.447 540.832 294.292C554.249 292 564.719 280.792 566.199 267.179C568.238 248.448 553.712 232.6 535.508 232.6Z" fill="#F5F5F5"/>
<path d="M535.508 232.6C535.508 232.6 536.168 232.622 537.466 232.686C538.114 232.721 538.926 232.726 539.875 232.916C540.352 232.993 540.867 233.076 541.421 233.165C541.98 233.23 542.559 233.386 543.172 233.564C543.787 233.732 544.439 233.911 545.128 234.1C545.804 234.328 546.496 234.627 547.234 234.908C547.6 235.056 547.981 235.193 548.36 235.359C548.727 235.55 549.103 235.745 549.486 235.944C550.245 236.358 551.081 236.713 551.843 237.268C555.028 239.239 558.384 242.161 561.128 246.248C563.836 250.313 566.058 255.553 566.374 261.598C566.406 262.349 566.473 263.111 566.477 263.879C566.435 264.649 566.393 265.426 566.351 266.211C566.321 266.604 566.328 267.001 566.268 267.395C566.209 267.788 566.149 268.184 566.089 268.581C566.027 268.979 565.966 269.378 565.904 269.779C565.811 270.174 565.717 270.571 565.623 270.97C564.869 274.162 563.562 277.365 561.67 280.364C559.779 283.357 557.321 286.164 554.305 288.484C551.287 290.792 547.738 292.63 543.835 293.733C542.866 294.03 541.853 294.185 540.851 294.42C539.836 294.58 538.808 294.724 537.766 294.791C535.683 294.949 533.554 294.894 531.424 294.605C529.292 294.332 527.165 293.799 525.085 293.055C522.981 292.346 521.074 291.115 518.883 290.62L519.06 290.482C519.065 300.613 519.071 311.366 519.077 322.699C519.079 328.366 519.082 334.177 519.085 340.128C519.086 343.103 519.087 346.113 519.088 349.157C519.089 350.679 519.089 352.21 519.09 353.749C519.09 354.519 519.091 355.291 519.091 356.064C519.1 356.448 519.068 356.848 519.05 357.242C518.992 357.632 518.961 358.031 518.852 358.413C518.154 361.525 515.518 364.143 512.311 364.778C511.517 364.93 510.686 364.972 509.896 364.957C509.098 364.957 508.297 364.958 507.494 364.958C505.888 364.959 504.275 364.959 502.654 364.959C496.168 364.961 489.555 364.964 482.819 364.966C469.346 364.969 455.383 364.974 440.975 364.977C412.157 364.982 381.557 364.988 349.53 364.995C345.526 364.995 341.501 364.996 337.453 364.996C335.43 364.996 333.4 364.997 331.366 364.997C330.359 365.01 329.301 364.981 328.279 364.785C327.261 364.56 326.275 364.2 325.353 363.707C323.529 362.689 321.998 361.135 321.057 359.254C320.563 358.326 320.258 357.305 320.078 356.271C319.879 355.229 319.933 354.171 319.922 353.149C319.922 349.018 319.921 344.866 319.921 340.696C319.921 324.013 319.919 307.018 319.917 289.756L320.144 289.983C318.81 289.983 317.413 289.983 315.981 289.983C315.27 289.988 314.532 289.97 313.824 289.996C313.11 290.028 312.395 290.125 311.689 290.277L311.754 290.253C307.619 292.614 302.917 294.15 298.043 294.583C293.175 294.997 288.151 294.404 283.458 292.704C278.768 291.016 274.402 288.28 270.83 284.69C267.284 281.077 264.522 276.658 262.853 271.829C261.689 268.367 261.028 264.735 260.997 261.091C261.009 257.451 261.547 253.827 262.631 250.37C263.724 246.911 265.453 243.688 267.56 240.777C268.588 239.294 269.829 237.986 271.057 236.679L273.05 234.868C273.722 234.276 274.473 233.779 275.18 233.23C278.099 231.161 281.314 229.525 284.706 228.434C288.117 227.395 291.658 226.905 295.196 226.87C302.278 226.898 309.267 229.245 314.896 233.378L314.779 233.335C316.771 233.435 318.806 233.365 320.806 233.387L320.581 233.612C320.596 221.212 320.61 208.969 320.624 196.901C320.631 190.867 320.639 184.876 320.646 178.932L320.649 176.705C320.64 175.968 320.65 175.22 320.71 174.461C320.872 172.957 321.368 171.495 322.144 170.205C323.68 167.612 326.374 165.749 329.331 165.273C330.82 165.022 332.286 165.142 333.737 165.12C335.193 165.124 336.647 165.13 338.097 165.134C340.997 165.144 343.885 165.153 346.761 165.163C352.511 165.182 358.211 165.202 363.859 165.22C375.153 165.258 386.235 165.296 397.085 165.333L397.29 165.334V165.539C397.29 167.092 397.289 168.642 397.289 170.186C397.332 171.738 397.116 173.321 396.635 174.799C396.403 175.539 396.09 176.262 395.77 176.951C395.451 177.64 395.175 178.347 394.915 179.057C394.411 180.484 394.012 181.945 393.754 183.426C392.671 189.355 393.699 195.524 396.411 200.707C397.763 203.3 399.491 205.687 401.561 207.704C403.627 209.723 405.984 211.409 408.517 212.702C413.576 215.357 419.396 216.137 424.851 215.356C430.318 214.548 435.414 212.06 439.346 208.435C441.278 206.6 443.054 204.586 444.352 202.293C445.686 200.034 446.759 197.624 447.359 195.108C448.704 190.113 448.528 184.835 447.034 180.085C446.695 178.886 446.137 177.771 445.795 176.55C445.453 175.341 445.284 174.087 445.291 172.844C445.291 170.384 445.292 167.95 445.294 165.539V165.376H445.458C462.581 165.384 478.503 165.392 493.114 165.399C496.767 165.401 500.338 165.403 503.825 165.405C505.569 165.406 507.291 165.407 508.993 165.408C509.843 165.414 510.687 165.387 511.542 165.469C512.391 165.564 513.213 165.804 513.987 166.132C515.526 166.817 516.835 167.95 517.711 169.337C518.604 170.719 519.034 172.344 519.038 173.936C519.035 177.081 519.034 180.14 519.031 183.11C519.005 206.865 518.985 224.94 518.972 236.463L518.908 236.407C521.84 236.027 524.048 234.599 526.136 234.027C528.196 233.367 529.953 233.046 531.348 232.855C532.747 232.672 533.789 232.622 534.479 232.605C535.171 232.59 535.508 232.6 535.508 232.6C535.508 232.6 535.171 232.609 534.482 232.633C533.795 232.66 532.754 232.719 531.359 232.91C529.967 233.11 528.216 233.44 526.164 234.107C524.092 234.682 521.885 236.121 518.926 236.517L518.862 236.526V236.463C518.85 224.939 518.83 206.865 518.803 183.11C518.802 180.139 518.799 177.081 518.796 173.936C518.789 172.386 518.37 170.811 517.502 169.471C516.65 168.126 515.378 167.027 513.884 166.365C513.132 166.049 512.336 165.816 511.512 165.725C510.693 165.647 509.843 165.672 508.993 165.67C507.291 165.67 505.569 165.671 503.825 165.673C500.338 165.675 496.767 165.677 493.114 165.679C478.503 165.686 462.581 165.694 445.458 165.702L445.621 165.539C445.622 167.949 445.623 170.384 445.625 172.843C445.619 174.059 445.786 175.278 446.12 176.458C446.447 177.632 447.012 178.767 447.359 179.983C448.875 184.792 449.058 190.135 447.699 195.195C447.093 197.743 446.009 200.186 444.659 202.475C443.345 204.798 441.548 206.841 439.591 208.7C435.61 212.376 430.448 214.901 424.906 215.723C419.38 216.52 413.474 215.732 408.344 213.042C405.774 211.733 403.385 210.025 401.289 207.978C399.189 205.934 397.435 203.516 396.063 200.887C393.309 195.63 392.263 189.37 393.36 183.353C393.621 181.85 394.025 180.367 394.535 178.919C394.799 178.198 395.078 177.48 395.401 176.781C395.725 176.083 396.021 175.398 396.249 174.673C396.716 173.229 396.923 171.72 396.881 170.184C396.881 168.64 396.88 167.091 396.88 165.537L397.085 165.742C386.235 165.709 375.153 165.677 363.859 165.643C358.212 165.626 352.512 165.609 346.761 165.592C343.886 165.583 340.998 165.575 338.098 165.566C336.648 165.561 335.194 165.557 333.738 165.553C332.283 165.574 330.808 165.459 329.407 165.701C326.573 166.158 323.992 167.944 322.52 170.43C321.777 171.666 321.303 173.066 321.147 174.507C321.091 175.224 321.08 175.958 321.088 176.705L321.087 178.932C321.08 184.876 321.075 190.867 321.069 196.901C321.057 208.969 321.044 221.212 321.032 233.612V233.84L320.807 233.837C318.793 233.815 316.803 233.887 314.748 233.785L314.685 233.782L314.631 233.742C309.075 229.665 302.181 227.351 295.194 227.324C291.702 227.36 288.209 227.844 284.844 228.867C281.497 229.944 278.327 231.559 275.447 233.6C274.75 234.142 274.008 234.631 273.346 235.217L271.381 237.003C270.17 238.293 268.944 239.583 267.932 241.046C265.853 243.918 264.147 247.098 263.069 250.51C262 253.92 261.469 257.495 261.457 261.087C261.488 264.682 262.14 268.264 263.288 271.68C264.935 276.442 267.659 280.802 271.157 284.367C274.682 287.909 278.989 290.608 283.615 292.273C288.243 293.95 293.199 294.537 298.003 294.129C302.812 293.701 307.449 292.187 311.53 289.857L311.561 289.839L311.595 289.832C312.323 289.675 313.065 289.576 313.806 289.541C314.554 289.515 315.264 289.534 315.984 289.528C317.415 289.528 318.813 289.528 320.147 289.528H320.373V289.755C320.372 307.017 320.371 324.013 320.369 340.695C320.369 344.865 320.368 349.017 320.368 353.148C320.378 354.186 320.327 355.208 320.517 356.196C320.689 357.186 320.98 358.164 321.453 359.053C322.354 360.855 323.822 362.344 325.568 363.32C326.451 363.791 327.395 364.136 328.37 364.353C329.356 364.54 330.342 364.569 331.368 364.557C333.403 364.557 335.432 364.558 337.456 364.558C341.503 364.558 345.529 364.558 349.532 364.559C381.559 364.566 412.16 364.572 440.978 364.578C455.386 364.582 469.349 364.586 482.821 364.589C489.558 364.592 496.171 364.594 502.657 364.595C504.278 364.596 505.892 364.596 507.496 364.597C508.299 364.597 509.099 364.598 509.899 364.598C510.705 364.613 511.472 364.573 512.241 364.428C515.314 363.822 517.845 361.313 518.516 358.329C518.7 357.586 518.754 356.834 518.747 356.061C518.747 355.287 518.748 354.515 518.748 353.746C518.749 352.207 518.749 350.676 518.75 349.154C518.751 346.11 518.752 343.1 518.753 340.124C518.756 334.173 518.759 328.363 518.761 322.696C518.766 311.362 518.773 300.608 518.777 290.479V290.3L518.954 290.34C521.199 290.856 523.114 292.096 525.181 292.791C527.24 293.531 529.348 294.061 531.461 294.335C533.572 294.624 535.683 294.681 537.748 294.527C538.782 294.462 539.801 294.32 540.809 294.163C541.802 293.931 542.807 293.779 543.769 293.486C547.639 292.397 551.162 290.58 554.161 288.293C557.156 285.994 559.602 283.212 561.484 280.243C563.367 277.269 564.67 274.09 565.424 270.921C565.519 270.524 565.612 270.13 565.707 269.737C565.769 269.339 565.831 268.943 565.892 268.548C565.952 268.153 566.012 267.76 566.071 267.369C566.132 266.979 566.126 266.583 566.157 266.194C566.201 265.413 566.244 264.64 566.287 263.876C566.284 263.112 566.218 262.356 566.188 261.607C565.886 255.598 563.689 250.383 561.003 246.332C558.282 242.259 554.95 239.339 551.784 237.365C551.026 236.81 550.194 236.453 549.439 236.038C549.058 235.837 548.684 235.642 548.319 235.451C547.943 235.283 547.563 235.145 547.199 234.997C546.465 234.714 545.775 234.412 545.103 234.183C544.417 233.991 543.767 233.81 543.154 233.638C542.543 233.459 541.966 233.3 541.409 233.232C540.858 233.14 540.344 233.054 539.869 232.974C538.923 232.777 538.112 232.766 537.465 232.725C536.168 232.649 535.508 232.6 535.508 232.6Z" fill="#263238"/>
<path d="M315.932 244.146C315.932 244.146 318.889 242.621 321.501 243.194C324.112 243.766 333.595 249.949 333.595 249.949L341.235 248.522L345.738 270.095L315.932 282.481V244.146Z" fill="#AE7461"/>
<path d="M293.883 251.668C293.883 251.668 300.711 250.805 303.185 249.569C305.658 248.333 311.556 243.101 312.792 243.196C314.028 243.291 318.5 244.147 318.5 244.147L316.692 249.569C316.692 249.569 325.633 254.991 328.297 256.989C330.96 258.986 339.331 267.928 339.712 270.116C340.093 272.303 339.426 274.872 338.38 275.728C337.334 276.585 333.529 274.872 333.529 274.872C333.529 274.872 334.099 276.87 332.672 278.772C331.245 280.674 327.916 280.008 327.916 280.008C327.916 280.008 327.631 283.147 326.108 283.718C324.586 284.288 321.162 282.576 321.162 282.576C321.162 282.576 320.129 285.24 318.886 285.526C317.642 285.811 314.122 283.719 314.122 283.719C314.122 283.719 298.903 272.779 295.478 271.162C292.053 269.545 291.006 269.45 291.006 269.45L293.883 251.668Z" fill="#FFBE9D"/>
<path d="M321.164 282.577C321.095 282.575 321.052 282.309 320.891 281.909C320.733 281.508 320.464 280.97 320.126 280.39C319.448 279.23 318.84 278.301 318.949 278.221C319.042 278.15 319.82 278.96 320.523 280.161C320.872 280.761 321.114 281.359 321.203 281.819C321.295 282.283 321.221 282.583 321.164 282.577Z" fill="#EB996E"/>
<path d="M327.488 280.727C327.364 280.791 326.62 279.425 325.569 277.854C324.529 276.27 323.414 275.212 323.494 275.114C323.566 275.008 324.875 275.964 325.949 277.597C327.027 279.212 327.589 280.679 327.488 280.727Z" fill="#EB996E"/>
<path d="M333.595 275.237C333.46 275.27 333.036 273.624 331.984 271.849C330.95 270.063 329.721 268.888 329.816 268.787C329.882 268.693 331.299 269.758 332.379 271.618C333.474 273.469 333.709 275.225 333.595 275.237Z" fill="#EB996E"/>
<path d="M329.138 263.364C329.257 263.339 329.584 264.471 329.646 265.914C329.713 267.357 329.487 268.514 329.365 268.499C329.235 268.486 329.254 267.339 329.188 265.935C329.129 264.53 329.009 263.389 329.138 263.364Z" fill="#EB996E"/>
<path d="M306.99 254.8C306.99 254.8 309.368 247.19 310.224 246.239C311.08 245.288 319.034 243.194 319.034 243.194L321.5 249.569L319.735 251.436L315.93 251.186C315.932 251.185 313.554 257.463 306.99 254.8Z" fill="#AE7461"/>
<path d="M292.394 269.848C292.394 269.848 291.306 270.686 292.394 272.683C293.482 274.681 296.431 273.254 297.382 272.683C297.382 272.683 295.955 276.012 297.763 277.059C299.57 278.105 301.758 277.82 301.758 277.82C301.758 277.82 301.663 279.818 304.232 281.149C306.8 282.481 307.466 281.149 307.466 281.149C307.466 281.149 307.752 284.478 310.7 284.764C313.649 285.049 314.687 284.036 314.687 284.036L313.364 282.07C313.364 282.07 315.076 278.58 313.744 277.059C312.412 275.537 310.224 275.727 310.224 275.727C310.224 275.727 310.807 272.637 309.11 271.776C305.958 270.176 304.612 273.16 304.612 273.16C304.612 273.16 304.422 269.773 301.948 269.849C299.475 269.926 298.144 271.448 298.144 271.448L292.394 269.848Z" fill="#AE7461"/>
<path d="M304.612 273.16C304.723 273.215 304.256 274.374 303.477 275.697C302.7 277.021 301.913 277.991 301.811 277.921C301.705 277.848 302.315 276.774 303.083 275.465C303.853 274.156 304.496 273.102 304.612 273.16Z" fill="#6F4439"/>
<path d="M310.285 276.156C310.395 276.208 309.91 277.445 308.988 278.787C308.07 280.135 307.093 281.035 307.005 280.951C306.908 280.862 307.714 279.844 308.61 278.529C309.511 277.218 310.167 276.098 310.285 276.156Z" fill="#6F4439"/>
<path d="M251.363 312.053H236.934L233.24 364.525H247.707C250.169 356.533 256.326 314.889 256.326 314.889L251.363 312.053Z" fill="#263238"/>
<path d="M169.641 312.053C169.641 312.053 160.407 333.708 161.33 342.473C162.254 351.238 167.44 364.525 167.44 364.525H238.905C238.905 364.525 240.9 357.204 242.439 346.377C243.978 335.549 248.134 312.053 248.134 312.053H169.641Z" fill="#263238"/>
<path d="M264.082 103.072C261.668 100.026 258.685 97.0925 258.067 93.2561C257.498 89.7283 259.042 85.8655 257.46 82.6622C255.514 78.7203 249.92 77.95 247.494 74.2842C246.319 72.5088 246.04 70.2596 244.881 68.4746C242.905 65.4322 238.849 64.4526 235.228 64.661C231.606 64.8694 228.073 65.9949 224.447 66.0705C219.472 66.1752 214.433 64.3084 209.602 65.4999C204.27 66.8144 200.831 71.3077 197.194 75.6418L192.483 80.6442C191.518 81.4927 190.502 82.2674 189.397 82.9084C187.463 84.0295 185.277 84.762 183.591 86.2287C179.982 89.3669 179.962 95.7419 183.551 98.903C179.673 99.9353 176.74 103.788 176.776 107.801C176.796 110.009 177.61 112.118 178.166 114.254C178.724 116.39 179.007 118.752 178.03 120.731C177.052 122.71 174.4 123.971 172.532 122.795C173.072 125.681 174.993 128.277 177.597 129.635C176.511 130.649 175.026 131.224 173.54 131.207C177.107 140.847 187.811 146.338 198.074 146.882C208.338 147.427 218.351 144.003 228.058 140.624L256.044 134.754C258.497 134.314 259.648 131.412 259.732 128.92C259.814 126.428 259.307 123.808 260.307 121.523C261.677 118.392 265.465 116.875 266.891 113.769C268.513 110.237 266.495 106.118 264.082 103.072Z" fill="#263238"/>
<path d="M197.48 125.185C195.774 118.843 194.096 112.456 193.507 105.915C192.918 99.3752 193.463 92.6168 196.065 86.5874C196.459 85.6738 199.734 79.5732 200.718 79.7218C201.421 79.8282 199.302 85.5665 199.628 86.1988C202.739 92.2352 203.303 99.3312 202.41 106.062C201.517 112.793 199.797 118.802 197.48 125.185Z" fill="#263238"/>
<path d="M198.123 100.129C198.436 83.662 208.28 70.1189 224.732 70.8874L226.249 71.0465C241.508 72.6557 252.978 85.7072 252.602 101.046C252.252 115.317 251.681 131.08 250.787 138.663C248.936 154.358 232.959 155.145 232.959 155.145C232.924 155.144 232.529 181.073 232.529 181.073L195.12 155.151L198.123 100.129Z" fill="#FFBE9D"/>
<path d="M232.959 155.146C232.959 155.146 222.991 154.683 213.133 146.94C213.133 146.94 216.816 160.222 232.648 160.461L232.959 155.146Z" fill="#EB996E"/>
<path d="M247.155 113.226C247.072 114.416 245.996 115.327 244.752 115.263C243.51 115.198 242.569 114.185 242.652 112.995C242.735 111.805 243.811 110.893 245.053 110.957C246.296 111.021 247.238 112.037 247.155 113.226Z" fill="#263238"/>
<path d="M248.555 107.215C248.246 107.478 246.679 106.04 244.262 105.793C241.853 105.51 239.949 106.565 239.719 106.242C239.604 106.098 239.943 105.599 240.774 105.118C241.593 104.639 242.946 104.231 244.45 104.396C245.953 104.563 247.16 105.25 247.828 105.894C248.509 106.543 248.705 107.098 248.555 107.215Z" fill="#263238"/>
<path d="M225.298 113.226C225.215 114.416 224.139 115.327 222.895 115.263C221.653 115.198 220.712 114.185 220.795 112.995C220.879 111.806 221.954 110.893 223.197 110.958C224.44 111.021 225.381 112.037 225.298 113.226Z" fill="#263238"/>
<path d="M224.794 105.698C224.485 105.961 222.914 104.523 220.501 104.276C218.091 103.993 216.187 105.048 215.956 104.725C215.842 104.581 216.178 104.082 217.012 103.602C217.831 103.122 219.184 102.715 220.688 102.879C222.191 103.046 223.398 103.734 224.066 104.377C224.747 105.026 224.944 105.582 224.794 105.698Z" fill="#263238"/>
<path d="M231.501 125.17C231.505 125.032 233.033 124.93 235.499 124.875C236.122 124.877 236.719 124.815 236.867 124.406C237.06 123.976 236.871 123.284 236.648 122.534C236.225 120.981 235.784 119.353 235.319 117.646C233.491 110.694 232.237 105.003 232.518 104.931C232.799 104.86 234.509 110.438 236.336 117.391C236.772 119.105 237.189 120.737 237.585 122.3C237.745 123.025 238.062 123.862 237.65 124.754C237.436 125.197 236.948 125.484 236.542 125.549C236.134 125.628 235.786 125.598 235.479 125.584C233.016 125.457 231.496 125.309 231.501 125.17Z" fill="#263238"/>
<path d="M224.217 126.091C224.613 126.11 224.341 128.732 226.389 130.829C228.432 132.931 231.258 132.931 231.24 133.301C231.259 133.469 230.563 133.745 229.381 133.652C228.219 133.57 226.569 133.02 225.316 131.737C224.067 130.452 223.64 128.867 223.664 127.782C223.679 126.676 224.04 126.057 224.217 126.091Z" fill="#263238"/>
<path d="M225.695 95.8834C225.387 96.5156 223.009 95.9493 220.139 95.9924C217.269 95.9774 214.896 96.5657 214.582 95.9379C214.444 95.638 214.908 95.063 215.899 94.524C216.881 93.9858 218.405 93.5365 220.127 93.5259C221.848 93.5198 223.377 93.9533 224.364 94.4817C225.361 95.012 225.83 95.5826 225.695 95.8834Z" fill="#263238"/>
<path d="M248.403 99.0816C247.92 99.5855 246.316 98.8407 244.318 98.6024C242.329 98.2946 240.585 98.5822 240.255 97.9666C240.114 97.6703 240.438 97.1489 241.233 96.7075C242.016 96.2669 243.283 95.9733 244.653 96.1597C246.023 96.3478 247.161 96.9704 247.799 97.6061C248.446 98.2445 248.618 98.8336 248.403 99.0816Z" fill="#263238"/>
<path d="M198.18 111.902C197.924 111.758 187.718 107.569 186.929 118.351C186.14 129.131 197.126 127.7 197.167 127.393C197.208 127.084 198.18 111.902 198.18 111.902Z" fill="#FFBE9D"/>
<path d="M194.172 123.066C194.128 123.029 193.975 123.183 193.647 123.306C193.326 123.425 192.787 123.484 192.241 123.233C191.132 122.731 190.305 120.853 190.395 118.906C190.44 117.922 190.713 117.004 191.118 116.255C191.505 115.491 192.055 114.977 192.636 114.917C193.217 114.827 193.597 115.2 193.707 115.513C193.829 115.825 193.745 116.035 193.801 116.058C193.829 116.088 194.046 115.895 193.992 115.443C193.963 115.226 193.855 114.962 193.618 114.736C193.374 114.507 193.001 114.371 192.599 114.385C191.764 114.382 190.959 115.091 190.515 115.912C190.025 116.735 189.694 117.766 189.644 118.87C189.554 121.048 190.517 123.162 192.043 123.727C192.787 123.98 193.436 123.798 193.781 123.568C194.135 123.326 194.208 123.089 194.172 123.066Z" fill="#EB996E"/>
<path d="M246.773 82.7264C248.58 81.8761 243.705 75.8845 239.54 73.6616C233.245 70.3027 223.46 67.8538 217.372 69.164C210.043 70.7415 203.832 73.9386 199.796 80.2573C195.76 86.576 193.911 94.1223 193.64 101.614C193.557 103.9 193.64 106.295 194.735 108.303C196.088 110.785 198.883 112.473 198.544 115.755C198.42 116.954 198.686 118.191 199.454 119.12C201.291 121.347 203.833 119.53 205.071 117.623C207.714 113.55 208.303 108.523 208.823 103.695C209.193 100.264 209.558 96.7593 208.801 93.3924C208.389 91.5608 207.65 89.8075 207.34 87.9548C207.03 86.1021 207.219 84.0357 208.451 82.6191C208.651 82.3888 208.976 82.103 209.384 81.7891C212.611 79.3077 216.939 78.7818 220.682 80.3831C226.618 82.9234 236.785 86.8003 239.627 84.9133C243.716 82.198 244.773 80.3242 244.773 80.3242L246.773 82.7264Z" fill="#263238"/>
<path d="M218.03 67.7368C224.085 66.1356 230.827 66.6746 236.19 69.9096C239.037 71.6268 241.54 74.2401 242.233 77.4918C242.926 80.7435 241.309 84.5861 238.156 85.6395L237.936 85.7591C233.234 87.0121 230.282 86.2031 225.795 84.3197C222.02 82.7343 218.74 80.1306 214.957 78.5637C210.936 76.8983 206.41 76.4745 202.15 77.3643C206.577 72.9353 211.975 69.3371 218.03 67.7368Z" fill="#263238"/>
<path d="M220.758 65.864C220.763 65.835 221.153 65.8666 221.856 65.973C222.553 66.104 223.563 66.3239 224.759 66.7635C225.954 67.2014 227.333 67.8627 228.732 68.8114C230.126 69.7558 231.554 70.9965 232.69 72.6012C233.836 74.2104 234.462 76.0024 234.868 77.6318C235.267 79.2708 235.442 80.7797 235.531 82.0441C235.62 83.3095 235.623 84.3356 235.61 85.0426C235.596 85.7504 235.561 86.1408 235.532 86.1408C235.498 86.1408 235.473 85.7504 235.431 85.0461C235.39 84.3418 235.337 83.3235 235.208 82.0723C235.079 80.8228 234.872 79.3376 234.458 77.7355C234.039 76.1431 233.415 74.4065 232.315 72.8659C231.221 71.3201 229.841 70.1005 228.491 69.1596C227.138 68.2144 225.801 67.5356 224.641 67.066C222.31 66.1339 220.741 65.9519 220.758 65.864Z" fill="#455A64"/>
<path d="M230.686 65.2652C230.695 65.2353 231.024 65.3276 231.617 65.5228C231.907 65.6345 232.289 65.7127 232.682 65.9211C233.095 66.1304 233.544 66.3581 234.03 66.6044C235.949 67.7272 238.319 69.9835 239.622 73.1816C239.978 73.965 240.189 74.7766 240.415 75.5531C240.563 76.348 240.733 77.1103 240.767 77.8542C240.863 78.592 240.807 79.3007 240.808 79.9593C240.726 80.6135 240.701 81.2316 240.561 81.7759C240.433 82.3229 240.337 82.8205 240.161 83.2329C240.002 83.6489 239.895 84.0173 239.727 84.2864C239.431 84.8386 239.255 85.1323 239.228 85.1173C239.134 85.0733 239.879 83.8845 240.243 81.7179C240.36 81.1842 240.365 80.5783 240.429 79.9417C240.411 79.2989 240.452 78.6104 240.346 77.8938C240.303 77.171 240.127 76.4315 239.979 75.6603C239.753 74.9077 239.545 74.1198 239.2 73.3601C237.935 70.2588 235.69 68.0508 233.859 66.8805C233.395 66.6184 232.966 66.3757 232.571 66.1533C232.196 65.9264 231.83 65.8253 231.553 65.6899C230.987 65.4463 230.676 65.2959 230.686 65.2652Z" fill="#455A64"/>
<path d="M237.718 178.469C237.718 179.949 245.134 212.521 247.973 220.522C250.811 228.523 259.8 308.756 258.617 314.471C257.434 320.185 254.359 319.957 254.359 319.957C254.359 319.957 181.743 315.385 173.938 316.071C166.132 316.757 162.821 316.528 160.928 307.613C159.036 298.698 160.985 252.365 159.329 241.164C157.673 229.964 157.659 224.534 157.019 207.893C156.464 193.471 159.746 181.902 166.605 173.553C173.465 165.204 188.649 156.761 188.649 156.761L194.034 148.907L232.148 169.065L233.019 164.477L235.332 171.619L237.718 178.469Z" fill="#455A64"/>
<g opacity="0.3">
<path d="M254.101 277.746C253.466 276.128 251.408 275.721 249.68 275.53C233.531 273.739 216.721 269.708 204.927 258.533C200.313 254.161 196.674 248.878 193.167 243.576C185.502 231.986 178.297 220.101 171.093 208.219L165.5 210.334C168.931 227.111 172.308 239.258 177.894 253.01C183.487 266.777 187.819 280.104 201.98 284.608C211.133 287.52 228.517 285.288 238.094 284.538C242.092 284.225 246.118 283.838 249.957 282.679C251.117 282.329 252.293 281.887 253.167 281.046C254.041 280.206 254.543 278.875 254.101 277.746Z" fill="black"/>
</g>
<path d="M163.53 205.948C163.948 206.692 196.265 275.715 210.694 278.554C225.122 281.392 269.964 282.055 278.716 280.399C287.468 278.744 296.031 277.202 296.031 277.202C296.031 277.202 302.367 262.15 296.583 249.326L284.538 249.707C284.538 249.707 251.047 247.901 246.316 246.607C241.586 245.313 237.499 240.876 233.241 241.113L207.763 181.821C207.763 181.821 191.206 166.446 179.379 171.177C167.551 175.908 160.065 199.783 163.53 205.948Z" fill="#455A64"/>
<path d="M285.465 279.595C285.435 279.585 285.522 279.172 285.704 278.435C285.895 277.701 286.133 276.626 286.384 275.295C286.641 273.964 286.863 272.364 287.023 270.582C287.162 268.797 287.227 266.828 287.149 264.764C286.97 260.631 286.235 256.941 285.51 254.331C285.149 253.025 284.823 251.975 284.572 251.258C284.33 250.538 284.209 250.133 284.238 250.122C284.267 250.11 284.444 250.492 284.739 251.197C285.043 251.896 285.417 252.937 285.821 254.242C286.632 256.847 287.427 260.569 287.607 264.746C287.686 266.831 287.608 268.821 287.444 270.62C287.259 272.419 287.002 274.028 286.702 275.36C286.408 276.693 286.121 277.761 285.876 278.484C285.64 279.209 285.495 279.604 285.465 279.595Z" fill="#263238"/>
<path d="M207.762 181.822C207.762 181.822 207.934 182.175 208.243 182.873C208.555 183.582 209.009 184.618 209.603 185.97C210.79 188.704 212.529 192.709 214.757 197.841C219.202 208.138 225.595 222.946 233.406 241.042L233.231 240.932C235.242 240.838 237.132 241.713 238.879 242.662C240.637 243.631 242.339 244.757 244.207 245.61C246.052 246.548 248.146 246.765 250.268 247.021C252.39 247.272 254.555 247.458 256.751 247.649C265.54 248.375 274.853 248.947 284.55 249.488H284.531C288.319 249.367 292.418 249.236 296.576 249.103L296.727 249.099L296.787 249.235C298.645 253.487 299.423 258.27 299.199 263.059C298.993 267.852 298.012 272.675 296.242 277.291L296.199 277.404L296.071 277.427C293.645 277.876 291.036 278.357 288.413 278.842C285.601 279.361 282.807 279.877 280.03 280.39C277.25 280.931 274.415 281.14 271.638 281.254C266.066 281.508 260.574 281.529 255.18 281.501C249.785 281.471 244.487 281.346 239.3 281.154C234.114 280.971 229.04 280.702 224.095 280.325C221.622 280.148 219.184 279.91 216.78 279.647C214.377 279.329 212.018 279.116 209.698 278.47C208.566 278.048 207.563 277.401 206.631 276.7C205.696 275.998 204.84 275.218 204.025 274.416C202.392 272.811 200.932 271.097 199.553 269.373C194.089 262.428 189.806 255.391 185.977 248.951C178.402 236.007 172.935 225.167 169.181 217.675C167.314 213.922 165.901 210.99 164.952 208.998C164.004 207.005 163.53 205.947 163.53 205.947C163.53 205.947 163.673 206.2 163.924 206.706C164.179 207.223 164.55 207.975 165.035 208.957C166.024 210.942 167.474 213.851 169.34 217.594C173.141 225.06 178.652 235.875 186.256 248.786C190.098 255.207 194.395 262.228 199.849 269.135C201.225 270.848 202.681 272.55 204.3 274.135C205.107 274.928 205.954 275.697 206.87 276.383C207.783 277.068 208.762 277.694 209.835 278.091C212.032 278.699 214.452 278.929 216.827 279.236C219.223 279.495 221.657 279.729 224.126 279.903C229.063 280.274 234.134 280.537 239.315 280.716C244.497 280.903 249.791 281.025 255.182 281.051C260.571 281.076 266.059 281.052 271.615 280.797C274.4 280.68 277.178 280.477 279.945 279.939C282.721 279.426 285.518 278.909 288.33 278.39C290.954 277.906 293.563 277.424 295.99 276.976L295.82 277.112C297.56 272.574 298.542 267.77 298.744 263.039C298.968 258.304 298.199 253.595 296.379 249.417L296.59 249.548C292.432 249.678 288.333 249.806 284.545 249.924H284.535L284.527 249.923C274.825 249.375 265.513 248.792 256.717 248.051C254.519 247.857 252.351 247.668 250.221 247.412C249.156 247.291 248.101 247.154 247.053 246.955C245.991 246.795 244.997 246.382 244.046 245.959C242.142 245.085 240.437 243.949 238.698 242.987C236.971 242.041 235.137 241.204 233.251 241.29L233.123 241.297L233.074 241.181C225.323 223.061 218.98 208.23 214.57 197.919C212.38 192.77 210.672 188.752 209.505 186.009C208.933 184.648 208.494 183.605 208.194 182.891C207.9 182.189 207.762 181.822 207.762 181.822Z" fill="#263238"/>
<path d="M204.387 177.167C204.356 177.195 203.936 176.751 203.133 176.006C202.332 175.259 201.099 174.249 199.436 173.219C197.778 172.185 195.652 171.185 193.162 170.502C190.677 169.817 187.817 169.496 184.854 169.774C181.895 170.087 179.154 170.968 176.854 172.133C174.547 173.295 172.662 174.697 171.241 176.038C169.816 177.376 168.806 178.61 168.17 179.501C167.529 180.391 167.206 180.908 167.17 180.887C167.157 180.879 167.223 180.742 167.365 180.489C167.515 180.24 167.704 179.852 168.023 179.4C168.62 178.471 169.601 177.191 171.018 175.804C172.43 174.414 174.325 172.961 176.662 171.757C178.993 170.551 181.786 169.639 184.809 169.32C187.834 169.035 190.752 169.376 193.275 170.096C195.804 170.814 197.949 171.863 199.608 172.945C201.272 174.025 202.486 175.084 203.256 175.878C203.657 176.257 203.921 176.601 204.116 176.815C204.305 177.036 204.398 177.156 204.387 177.167Z" fill="#263238"/>
<path d="M233.143 241.165C233.261 241.209 232.532 243.451 231.512 246.171C230.493 248.893 229.572 251.063 229.453 251.018C229.334 250.974 230.064 248.732 231.083 246.01C232.102 243.291 233.024 241.121 233.143 241.165Z" fill="#263238"/>
<path d="M291.683 252.534C291.683 252.509 291.807 252.473 292.016 252.548C292.222 252.62 292.488 252.831 292.664 253.182C292.83 253.514 292.949 254.064 292.631 254.552C292.332 255.004 291.764 255.35 291.102 255.258C290.428 255.132 290.035 254.549 289.95 254.03C289.858 253.486 290.083 252.992 290.39 252.731C290.704 252.458 291.053 252.43 291.256 252.448C291.467 252.468 291.571 252.523 291.566 252.552C291.581 252.64 291.054 252.52 290.615 252.964C290.413 253.184 290.276 253.565 290.365 253.95C290.444 254.333 290.761 254.738 291.179 254.807C291.601 254.876 292.062 254.629 292.281 254.317C292.512 254.011 292.471 253.607 292.367 253.31C292.14 252.681 291.666 252.593 291.683 252.534Z" fill="#263238"/>
<path d="M233.059 171.36C233.048 171.377 232.748 171.221 232.191 170.91C231.592 170.568 230.789 170.109 229.786 169.536L229.955 169.462C229.48 171.865 229.019 175.402 228.213 179.64L228.159 179.922L227.914 179.767C224.376 177.537 220.13 174.988 215.601 172.251C212.225 170.229 209.068 168.188 206.16 166.425C203.237 164.676 200.567 163.162 198.318 161.901C196.102 160.668 194.291 159.661 192.982 158.932C192.387 158.597 191.906 158.328 191.534 158.118C191.206 157.928 191.036 157.823 191.043 157.809C191.05 157.795 191.234 157.873 191.578 158.036C191.96 158.226 192.454 158.471 193.066 158.775C194.353 159.428 196.204 160.392 198.475 161.617C200.745 162.843 203.434 164.33 206.376 166.062C209.289 167.847 212.484 169.803 215.839 171.858C220.365 174.595 224.604 177.167 228.125 179.433L227.826 179.559C228.669 175.354 229.188 171.813 229.732 169.416L229.769 169.258L229.902 169.342C230.882 169.953 231.667 170.443 232.252 170.808C232.789 171.151 233.069 171.342 233.059 171.36Z" fill="#263238"/>
<g opacity="0.3">
<path d="M196.4 160.655C203.03 165.595 209.66 170.535 216.289 175.475C220.665 178.735 225.146 182.051 230.342 183.719C230.246 179.112 230.15 174.504 230.054 169.897L228.019 179.6L196.4 160.655Z" fill="black"/>
</g>
<path d="M401.211 91.4228C397.748 91.8862 394.139 89.4056 393.331 86.0071C392.522 82.6086 394.627 78.7695 397.927 77.6229C395.726 75.4528 395.115 71.8362 396.481 69.0637C397.847 66.2913 401.088 64.5722 404.149 64.9961C404.217 61.9449 405.983 58.9869 408.636 57.478C411.289 55.97 414.734 55.9656 417.39 57.4674C420.703 54.5129 426.135 54.2993 429.67 56.9838C432.623 56.3788 435.885 57.8948 437.327 60.5406C438.769 63.1864 438.275 66.7494 436.167 68.9028" fill="#263238"/>
<path d="M400.195 92.4428C401.141 76.7076 414.014 64.3401 429.773 64.0201L431.339 63.9884C448.245 64.6312 457.144 79.3473 456.034 96.2291L457.039 156.457L415.959 171.203L415.601 149.513C415.601 149.513 399.317 147.32 398.786 131.095C398.529 123.257 399.314 107.077 400.195 92.4428Z" fill="#AE7461"/>
<path d="M415.466 149.491C415.466 149.491 425.843 149.904 436.605 142.834C436.605 142.834 431.841 154.616 415.617 153.484L415.466 149.491Z" fill="#6F4439"/>
<path d="M404.754 107.118C404.735 108.343 405.757 109.368 407.036 109.411C408.313 109.453 409.365 108.497 409.383 107.272C409.402 106.048 408.38 105.021 407.103 104.977C405.824 104.935 404.772 105.893 404.754 107.118Z" fill="#263238"/>
<path d="M403.845 100.312C404.139 100.608 405.867 99.2723 408.362 99.2283C410.853 99.1483 412.709 100.394 412.973 100.084C413.103 99.9458 412.8 99.4059 411.991 98.8423C411.194 98.2804 409.845 97.7458 408.291 97.7836C406.738 97.8241 405.443 98.4229 404.703 99.0235C403.949 99.6275 403.701 100.18 403.845 100.312Z" fill="#263238"/>
<path d="M427.478 107.118C427.459 108.342 428.482 109.368 429.76 109.41C431.037 109.453 432.089 108.497 432.107 107.271C432.126 106.047 431.103 105.02 429.826 104.977C428.548 104.934 427.495 105.893 427.478 107.118Z" fill="#263238"/>
<path d="M428.371 100.277C428.665 100.574 430.396 99.239 432.889 99.195C435.379 99.115 437.236 100.361 437.5 100.05C437.63 99.9117 437.329 99.3726 436.517 98.8081C435.721 98.2463 434.371 97.7116 432.818 97.7495C431.265 97.7899 429.969 98.3887 429.229 98.9893C428.477 99.5934 428.227 100.146 428.371 100.277Z" fill="#263238"/>
<path d="M419.696 118.959C419.705 118.817 418.149 118.58 415.631 118.31C414.992 118.258 414.387 118.143 414.271 117.711C414.112 117.253 414.365 116.562 414.658 115.814C415.225 114.261 415.819 112.633 416.442 110.926C418.918 103.968 420.695 98.2524 420.414 98.1548C420.133 98.0581 417.899 103.619 415.424 110.577C414.829 112.292 414.26 113.928 413.719 115.492C413.493 116.221 413.095 117.05 413.44 117.998C413.621 118.47 414.096 118.807 414.505 118.908C414.916 119.024 415.275 119.024 415.589 119.037C418.121 119.121 419.689 119.1 419.696 118.959Z" fill="#263238"/>
<path d="M427.441 91.8035C427.783 92.4287 429.906 91.6998 432.537 91.5617C435.163 91.3639 437.391 91.8141 437.618 91.152C437.716 90.8372 437.237 90.2788 436.278 89.7917C435.328 89.3045 433.889 88.9423 432.313 89.0416C430.738 89.1445 429.379 89.6853 428.525 90.2885C427.664 90.8908 427.288 91.5046 427.441 91.8035Z" fill="#263238"/>
<path d="M403.363 91.4895C403.901 92.0452 405.947 91.4148 408.422 91.3374C410.894 91.187 413.001 91.6249 413.471 91.0226C413.677 90.7307 413.336 90.1697 412.409 89.6527C411.496 89.1365 409.977 88.7303 408.277 88.8085C406.577 88.8885 405.113 89.4319 404.264 90.029C403.401 90.6287 403.125 91.2178 403.363 91.4895Z" fill="#263238"/>
<path d="M401.604 84.9678C401.604 84.9678 405.678 74.7168 410.531 72.2451C416.405 69.2528 419.092 75.7131 424.714 74.0177C430.336 72.3224 435.943 69.4515 441.811 73.7047C448.234 78.3598 445.338 81.7768 445.875 88.9704C448.054 118.134 453.553 126.281 454.791 112.499C454.926 110.989 459.082 109.705 459.573 103.328C460.209 95.0569 460.321 85.0284 458.361 79.2083C456.707 74.3026 453.822 70.949 448.698 67.291C440.608 61.5166 429.66 61.6125 422.242 62.5111C414.825 63.4098 400.667 72.2547 401.604 84.9678Z" fill="#263238"/>
<path d="M453.748 112.078C453.799 109.571 455.917 107.549 458.418 107.736C461.45 107.962 464.853 109.612 464.781 115.871C464.653 126.974 453.532 124.555 453.516 124.236C453.507 124.02 453.653 116.723 453.748 112.078Z" fill="#AE7461"/>
<path d="M455.981 120.086C456.03 120.052 456.174 120.225 456.498 120.378C456.815 120.527 457.362 120.634 457.944 120.424C459.122 120.007 460.131 118.156 460.208 116.156C460.248 115.147 460.047 114.182 459.698 113.381C459.368 112.565 458.85 111.992 458.26 111.88C457.674 111.737 457.252 112.086 457.113 112.397C456.961 112.706 457.028 112.928 456.969 112.947C456.938 112.974 456.734 112.757 456.828 112.3C456.876 112.08 457.01 111.82 457.273 111.61C457.542 111.396 457.935 111.29 458.346 111.34C459.201 111.409 459.963 112.205 460.346 113.085C460.777 113.968 461.026 115.052 460.981 116.187C460.883 118.424 459.715 120.504 458.104 120.949C457.32 121.143 456.671 120.901 456.338 120.635C455.998 120.355 455.942 120.106 455.981 120.086Z" fill="#6F4439"/>
<path d="M453.094 90.584C451.673 91.5969 450.171 92.6424 448.438 92.85C446.705 93.0575 444.699 92.1008 444.371 90.3861C444.224 89.6167 444.394 88.7163 443.874 88.1298C443.253 87.4299 442.14 87.6761 441.213 87.7931C437.993 88.2011 434.643 85.9861 433.758 82.8645C432.96 84.1132 431.039 84.0991 429.777 83.3218C428.515 82.5445 427.687 81.2475 426.69 80.151C425.693 79.0554 424.305 78.0846 422.842 78.3229C422.024 78.4557 421.266 78.9604 420.44 78.9041C418.98 78.8039 418.234 77.113 417.984 75.6709C417.734 74.2289 417.528 72.545 416.278 71.7844C415.12 71.0792 413.646 71.5303 412.309 71.7554C410.971 71.9805 409.233 71.7008 408.863 70.3959C408.668 69.7118 408.949 68.982 409.318 68.3735C410.991 65.6187 414.734 64.3331 417.746 65.4806C418.757 61.7919 422.127 58.8691 425.922 58.3908C429.717 57.9115 433.709 59.9067 435.603 63.2287C437.905 61.0533 441.294 60.0905 444.397 60.7324C447.498 61.3734 450.228 63.6007 451.478 66.5112C454.163 65.7462 457.261 66.7275 459.016 68.8985C460.77 71.0695 461.08 74.3045 459.769 76.7692C461.787 77.8683 463.535 79.8151 463.623 82.111C463.711 84.4068 461.521 86.7405 459.292 86.1813C460.224 87.9513 459.544 90.3932 457.832 91.4272C456.12 92.4613 453.642 91.9267 452.51 90.2789" fill="#263238"/>
<path d="M416.989 68.7622C416.98 68.7631 416.982 68.8316 416.996 68.9653C417.014 69.0981 417.026 69.2994 417.079 69.5562C417.191 70.0662 417.413 70.8206 417.928 71.678C418.446 72.5212 419.243 73.492 420.442 74.2508C421.617 75.0193 423.22 75.5891 425.014 75.4546L424.82 75.2128C424.495 76.1686 424.613 77.3055 425.105 78.2719C425.573 79.255 426.296 80.1202 427.06 80.9617C427.45 81.3653 427.791 81.8428 428.328 82.2094C428.848 82.562 429.467 82.7599 430.1 82.8258C431.354 82.9604 432.759 82.5445 433.645 81.4735L433.227 81.3635C433.554 83.5636 434.854 85.7451 436.875 87.05C437.945 87.7913 439.259 88.2301 440.542 88.1694C441.827 88.1307 443.012 87.7297 444.117 87.3085L443.818 87.1837C444.442 88.551 445.383 89.7091 446.514 90.555C447.623 91.4 449.09 91.8792 450.401 91.5283C453.009 90.9207 454.702 88.7075 455.009 86.6491L454.761 86.7713C456.074 87.4527 457.471 87.4923 458.585 87.254C459.715 87.0236 460.595 86.5128 461.22 86.0142C461.847 85.506 462.213 84.9898 462.433 84.6328C462.633 84.2626 462.715 84.0586 462.702 84.0533C462.645 84.0085 462.352 84.9045 461.106 85.8674C460.483 86.3272 459.621 86.795 458.534 86.9902C457.461 87.196 456.138 87.1274 454.924 86.4732L454.714 86.3598L454.675 86.5954C454.362 88.5158 452.73 90.5822 450.312 91.1177C449.124 91.422 447.835 90.9928 446.783 90.1935C445.727 89.3951 444.83 88.2793 444.25 86.9938L444.159 86.7897L443.951 86.8689C442.864 87.2804 441.719 87.6568 440.532 87.6893C439.345 87.7394 438.165 87.3481 437.145 86.6464C435.236 85.4119 434.016 83.371 433.696 81.2879L433.616 80.7647L433.278 81.178C432.531 82.0943 431.274 82.4899 430.147 82.3712C429.581 82.315 429.031 82.1417 428.577 81.8375C428.133 81.5464 427.777 81.0751 427.382 80.668C426.619 79.8415 425.917 79.0088 425.472 78.0943C425.003 77.1912 424.897 76.1915 425.174 75.3262L425.259 75.0598L424.98 75.0844C423.29 75.233 421.748 74.7186 420.601 73.9993C419.431 73.2906 418.636 72.3709 418.106 71.5663C417.059 69.9114 417.067 68.7349 416.989 68.7622Z" fill="#455A64"/>
<path d="M428.294 119.817C427.897 119.864 428.355 122.481 426.444 124.733C424.539 126.992 421.699 127.19 421.743 127.56C421.736 127.73 422.453 127.958 423.637 127.782C424.798 127.618 426.419 126.948 427.587 125.571C428.752 124.19 429.07 122.567 428.97 121.478C428.877 120.367 428.469 119.771 428.294 119.817Z" fill="#263238"/>
<path d="M337.621 246.092C339.028 245.53 385.499 239.946 385.499 239.946L404.354 223.984L402.584 270.194L343.249 275.915L337.621 246.092Z" fill="#FF725E"/>
<path opacity="0.3" d="M396.017 231.041C395.451 231.323 390.794 235.462 390.794 235.462L392.215 271.046L396.017 231.041Z" fill="black"/>
<path d="M475.191 314.725H396.7C396.7 314.725 400.856 336.872 402.394 347.078C403.933 357.283 406.182 364.525 406.182 364.525H477.272C477.272 364.525 482.578 351.66 483.503 343.398C484.425 335.136 475.191 314.725 475.191 314.725Z" fill="#263238"/>
<path d="M390.851 317.398C390.851 317.398 388.658 342.644 390.851 364.525H418.04V344.364L390.851 317.398Z" fill="#263238"/>
<path d="M405.957 193.649L414.415 175.125L415.466 163.684C415.466 163.684 431.687 153.489 439.382 149.641C447.077 145.793 457.444 142.31 457.444 142.31V153.105L405.957 193.649Z" fill="#EBEBEB"/>
<path d="M476.66 288.255C476.66 288.255 481.254 226.512 481.565 221.924C481.565 221.924 484.279 188.934 478.421 176.371C472.563 163.809 459.455 152.768 459.455 152.768L458.249 146.173L432.645 162.31L420.809 172.604C420.809 172.604 414.092 179.697 409.642 186.499C406.282 191.147 402.547 197.127 400.885 204.647C400.278 207.396 393.233 240.263 393.023 263.175C393.023 263.175 391.941 283.161 390.786 294.483C389.358 308.496 387.18 340.44 387.653 359.367L470.619 356.832C491.122 353.705 487.516 351.666 487.516 351.666L476.66 288.255Z" fill="#FF725E"/>
<path d="M457.443 153.107C457.443 153.107 457.251 153.207 456.868 153.369C456.464 153.538 455.9 153.774 455.175 154.077C454.452 154.425 453.572 154.885 452.539 155.422C451.548 156.035 450.366 156.669 449.143 157.542C444.166 160.881 437.598 166.541 430.914 174.39L430.866 174.445L430.798 174.458C428.271 174.922 425.602 175.414 422.837 175.922L423.009 175.723C422.884 179.421 422.753 183.303 422.617 187.319L422.615 187.41L422.546 187.475C418.559 191.25 414.509 195.522 410.842 200.305C409.354 202.265 407.983 204.28 406.828 206.371L406.395 207.152L406.063 207.969C405.837 208.509 405.622 209.052 405.463 209.625C405.108 210.749 404.758 211.864 404.468 212.992C403.24 217.475 402.227 221.852 401.277 226.021C399.388 234.364 397.815 241.907 396.511 248.244C393.906 260.92 392.439 268.787 392.439 268.787C392.439 268.787 392.459 268.283 392.617 267.344C392.762 266.402 393.003 265.018 393.32 263.236C393.962 259.674 394.933 254.528 396.193 248.18C397.458 241.833 398.998 234.281 400.866 225.928C401.805 221.752 402.81 217.372 404.037 212.872C404.325 211.743 404.676 210.618 405.033 209.483C405.191 208.913 405.412 208.351 405.647 207.789L405.99 206.945L406.429 206.152C407.598 204.032 408.98 202 410.477 200.028C414.17 195.214 418.229 190.94 422.245 187.148L422.173 187.304C422.317 183.287 422.457 179.406 422.591 175.708L422.597 175.539L422.762 175.509C425.528 175.011 428.199 174.528 430.727 174.073L430.611 174.14C437.358 166.28 443.977 160.653 449.016 157.351C450.254 156.49 451.451 155.867 452.455 155.267C453.501 154.744 454.393 154.299 455.126 153.967C455.863 153.687 456.436 153.468 456.847 153.312C457.237 153.167 457.443 153.107 457.443 153.107Z" fill="#263238"/>
<path d="M429.59 201.896L430.586 284.283L418.04 364.524H451.115C451.115 364.524 466.147 303.599 469.647 290.795C473.047 278.363 478.14 215.783 478.592 212.711C478.768 211.506 482.354 189.895 471.798 179.699" fill="#FF725E"/>
<path d="M471.798 179.7C471.798 179.7 472.037 179.927 472.49 180.388C472.939 180.849 473.572 181.578 474.297 182.609C475.744 184.664 477.447 188.06 478.428 192.761C479.417 197.449 479.766 203.37 479.057 210.144C478.56 213.519 478.311 217.127 477.945 220.973C477.596 224.813 477.228 228.873 476.84 233.137C476.051 241.665 475.161 251.007 474.085 261.031C473.533 266.041 472.96 271.225 472.253 276.552C471.531 281.87 470.829 287.386 469.34 292.885C463.814 314.893 457.733 339.114 451.338 364.581L451.294 364.755H451.116C449.99 364.755 448.77 364.755 447.548 364.755C437.51 364.754 427.653 364.753 418.041 364.752H417.776L417.817 364.491C422.459 334.895 426.743 307.579 430.401 284.256L430.399 284.287C430.13 259.339 429.91 238.745 429.755 224.377C429.69 217.204 429.64 211.587 429.605 207.752C429.595 205.846 429.586 204.385 429.58 203.39C429.577 202.404 429.59 201.897 429.59 201.897C429.59 201.897 429.616 202.404 429.637 203.39C429.656 204.385 429.682 205.846 429.717 207.751C429.775 211.586 429.86 217.202 429.969 224.374C430.161 238.742 430.437 259.335 430.772 284.282V284.298L430.77 284.314C427.134 307.641 422.875 334.962 418.262 364.561L418.039 364.3C427.651 364.299 437.509 364.299 447.546 364.298C448.768 364.298 449.988 364.298 451.114 364.298L450.892 364.472C457.3 339.005 463.395 314.784 468.933 292.775C470.419 287.31 471.125 281.819 471.854 276.501C472.568 271.179 473.148 265.998 473.708 260.99C474.8 250.972 475.709 241.632 476.518 233.108C476.917 228.845 477.296 224.786 477.655 220.947C478.031 217.118 478.296 213.467 478.802 210.117C479.533 203.37 479.212 197.469 478.253 192.797C477.302 188.112 475.635 184.724 474.22 182.661C473.51 181.626 472.891 180.891 472.454 180.419C472.015 179.95 471.798 179.7 471.798 179.7Z" fill="#263238"/>
<path d="M447.083 292.391C447.063 292.449 446.082 292.182 444.526 291.651C442.972 291.121 440.848 290.312 438.556 289.295C436.264 288.276 434.239 287.244 432.803 286.446C431.366 285.65 430.51 285.099 430.539 285.047C430.572 284.989 431.482 285.439 432.952 286.16C434.422 286.882 436.46 287.863 438.741 288.877C441.024 289.889 443.118 290.741 444.639 291.348C446.16 291.954 447.105 292.328 447.083 292.391Z" fill="#263238"/>
<path d="M390.46 297.853C390.452 297.852 390.45 297.779 390.452 297.636C390.458 297.467 390.465 297.26 390.474 297.005C390.506 296.413 390.549 295.604 390.604 294.582C390.741 292.439 390.934 289.406 391.171 285.675C391.679 278.157 392.403 267.771 393.417 256.316C394.433 244.857 395.602 234.507 396.556 227.032C397.036 223.294 397.442 220.271 397.748 218.187C397.899 217.174 398.019 216.373 398.107 215.787C398.149 215.535 398.183 215.331 398.211 215.164C398.238 215.025 398.254 214.953 398.262 214.954C398.27 214.955 398.268 215.028 398.258 215.171C398.242 215.339 398.223 215.546 398.198 215.799C398.131 216.388 398.04 217.193 397.925 218.21C397.673 220.343 397.316 223.36 396.878 227.071C396.007 234.555 394.889 244.903 393.874 256.357C392.861 267.807 392.086 278.187 391.496 285.699C391.198 289.425 390.955 292.455 390.784 294.595C390.692 295.615 390.621 296.422 390.568 297.012C390.541 297.265 390.519 297.471 390.501 297.64C390.481 297.782 390.468 297.854 390.46 297.853Z" fill="#263238"/>
<path d="M457.443 169.306C457.3 169.354 456.489 166.14 454.331 162.743C452.204 159.324 449.661 157.2 449.766 157.092C449.8 157.051 450.478 157.524 451.443 158.448C452.407 159.37 453.63 160.769 454.719 162.498C455.804 164.229 456.537 165.938 456.948 167.206C457.363 168.476 457.496 169.293 457.443 169.306Z" fill="#263238"/>
<path d="M399.08 271.667C399.104 271.662 399.188 271.869 399.161 272.266C399.132 272.653 398.961 273.244 398.443 273.757C397.958 274.276 396.995 274.646 396.057 274.299C395.597 274.142 395.159 273.844 394.831 273.422C394.501 273.003 394.319 272.429 394.336 271.876C394.344 271.167 394.563 270.489 394.972 269.959C395.177 269.697 395.442 269.478 395.742 269.351C396.059 269.234 396.288 269.178 396.551 269.095L396.583 269.084L396.612 269.085C397.211 269.1 397.792 269.229 398.207 269.543C398.628 269.847 398.838 270.264 398.946 270.592C399.149 271.267 399.109 271.663 399.08 271.667C399.026 271.678 398.977 271.28 398.726 270.678C398.595 270.384 398.383 270.044 398.02 269.815C397.664 269.575 397.16 269.483 396.611 269.486L396.672 269.477C396.433 269.561 396.129 269.652 395.912 269.74C395.689 269.841 395.485 270.013 395.32 270.232C394.991 270.669 394.798 271.271 394.792 271.88C394.744 272.846 395.429 273.625 396.198 273.902C396.974 274.208 397.758 273.947 398.22 273.521C398.702 273.102 398.905 272.588 398.984 272.24C399.062 271.883 399.042 271.671 399.08 271.667Z" fill="#263238"/>
<path d="M397.85 300.798C397.873 300.793 397.957 301.001 397.931 301.397C397.902 301.784 397.731 302.376 397.213 302.888C396.729 303.406 395.765 303.777 394.827 303.43C394.367 303.274 393.929 302.976 393.601 302.553C393.271 302.135 393.089 301.561 393.106 301.008C393.115 300.299 393.333 299.62 393.742 299.091C393.947 298.829 394.212 298.61 394.513 298.482C394.83 298.365 395.059 298.31 395.321 298.226L395.354 298.216L395.383 298.217C395.982 298.232 396.563 298.361 396.978 298.675C397.399 298.978 397.609 299.395 397.717 299.724C397.919 300.398 397.879 300.795 397.85 300.798C397.796 300.81 397.747 300.411 397.496 299.809C397.365 299.515 397.153 299.175 396.79 298.947C396.434 298.706 395.93 298.614 395.381 298.618L395.442 298.608C395.203 298.692 394.899 298.784 394.682 298.872C394.459 298.973 394.255 299.144 394.09 299.363C393.761 299.8 393.567 300.403 393.562 301.011C393.514 301.978 394.199 302.757 394.968 303.034C395.744 303.34 396.528 303.078 396.99 302.653C397.472 302.233 397.675 301.72 397.754 301.372C397.832 301.015 397.812 300.803 397.85 300.798Z" fill="#263238"/>
<path d="M468.074 174.824C468.028 174.903 466.936 174.204 465.006 173.464C464.045 173.086 462.861 172.746 461.526 172.473C460.186 172.228 458.693 172.068 457.12 172.079C455.547 172.111 454.058 172.313 452.725 172.594C451.398 172.904 450.223 173.277 449.274 173.681C447.365 174.474 446.293 175.202 446.244 175.126C446.227 175.1 446.485 174.907 446.971 174.579C447.211 174.41 447.512 174.216 447.883 174.025C448.25 173.83 448.658 173.583 449.144 173.385C450.094 172.936 451.281 172.522 452.63 172.184C453.985 171.873 455.506 171.654 457.114 171.622C458.721 171.61 460.247 171.787 461.61 172.061C462.967 172.361 464.165 172.742 465.127 173.165C465.619 173.35 466.033 173.585 466.406 173.77C466.782 173.95 467.088 174.137 467.333 174.299C467.827 174.612 468.091 174.797 468.074 174.824Z" fill="#263238"/>
<g opacity="0.3">
<path d="M395.626 251.889C399.209 246.676 400.524 241.759 402.438 235.73C405.283 226.769 406.077 216.646 410.54 208.373C413.169 203.5 416.26 198.501 420.831 195.377C425.289 192.33 425.949 188.456 425.861 177.979C429.048 178.011 432.416 175.554 432.817 175.124C434.988 172.791 436.558 169.088 436.724 167.801C434.489 170.232 430.762 174.264 430.762 174.264C430.762 174.264 422.681 175.766 422.799 175.714C422.601 179.745 422.594 183.28 422.395 187.31C422.395 187.31 406.891 203.76 405.685 207.067C404.477 210.375 395.626 251.889 395.626 251.889Z" fill="black"/>
</g>
<g opacity="0.3">
<path d="M453.188 354.587C472.836 317.398 478.942 268.501 477.774 221.923C477.774 221.923 472.134 278.536 470.233 288.254C468.345 297.905 453.188 354.587 453.188 354.587Z" fill="black"/>
</g>
<path d="M456.188 147.122C456.196 147.135 456.045 147.251 455.747 147.459C455.408 147.689 454.974 147.983 454.438 148.347C453.241 149.134 451.593 150.217 449.576 151.542C445.405 154.23 439.724 157.891 433.448 161.935C431.019 163.485 428.678 164.977 426.488 166.373L426.504 166.362C425.744 166.95 425.001 167.524 424.281 168.082C423.543 168.623 422.909 169.175 422.296 169.777C421.078 170.954 419.994 172.098 419.019 173.136L418.843 173.323L418.742 173.09C417.688 170.656 416.826 168.665 416.204 167.225C415.93 166.566 415.708 166.033 415.536 165.62C415.388 165.25 415.318 165.053 415.333 165.046C415.347 165.039 415.448 165.224 415.624 165.58C415.818 165.984 416.066 166.504 416.375 167.15C417.031 168.574 417.939 170.544 419.049 172.954L418.772 172.909C419.733 171.852 420.804 170.692 422.021 169.494C422.613 168.896 423.307 168.285 424.032 167.746C424.746 167.186 425.482 166.609 426.236 166.017L426.244 166.011L426.252 166.006C428.438 164.604 430.775 163.105 433.201 161.549C439.506 157.547 445.213 153.926 449.405 151.266C451.453 149.992 453.128 148.951 454.344 148.195C454.899 147.86 455.347 147.59 455.699 147.379C456.012 147.197 456.18 147.109 456.188 147.122Z" fill="#263238"/>
<path d="M42.7144 108.894C42.6098 108.953 38.8718 102.469 34.3672 94.413C29.8607 86.3551 26.2942 79.777 26.3997 79.718C26.5044 79.6591 30.2414 86.1423 34.7479 94.2003C39.2517 102.256 42.8191 108.836 42.7144 108.894Z" fill="#263238"/>
<path d="M55.3447 80.929C55.4652 80.936 55.2875 85.9014 54.949 92.0188C54.6105 98.1388 54.2385 103.093 54.1181 103.086C53.9976 103.08 54.1752 98.1141 54.5137 91.995C54.8523 85.8777 55.2242 80.9228 55.3447 80.929Z" fill="#263238"/>
<path d="M33.6838 115.77C33.6451 115.884 29.4315 114.562 24.2726 112.819C19.1119 111.074 14.9616 109.569 15.0003 109.455C15.039 109.34 19.2517 110.662 24.4124 112.406C29.5704 114.15 33.7225 115.656 33.6838 115.77Z" fill="#263238"/>
<path d="M96.8701 128.244C89.0988 110.504 68.4183 102.424 50.6792 110.195C32.94 117.966 24.8592 138.647 32.6296 156.386C38.2563 169.229 50.6493 177.004 63.7949 177.371C65.4621 181.178 67.3447 185.474 67.3447 185.474L95.4966 173.142C95.4966 173.142 93.6747 168.519 91.9592 164.432C99.9661 154.565 102.32 140.684 96.8701 128.244Z" fill="#FF725E"/>
<path d="M91.2786 174.981C91.2786 174.981 91.1985 174.856 91.0517 174.606C90.9031 174.35 90.6885 173.979 90.408 173.495C89.847 172.515 89.031 171.063 88.0066 169.179C85.9684 165.407 83.0984 159.897 79.9522 152.901C79.1635 151.154 78.3598 149.312 77.5464 147.383C77.1454 146.416 76.7366 145.431 76.3198 144.425C75.9153 143.423 75.4616 142.379 75.3666 141.225C75.3191 140.651 75.3903 140.054 75.6172 139.505C75.8423 138.963 76.2512 138.448 76.8386 138.223C77.4277 137.992 78.0942 138.124 78.6244 138.422C79.1564 138.728 79.6057 139.181 79.8977 139.731C80.4974 140.846 80.3681 142.225 79.8379 143.355C79.3041 144.501 78.3694 145.455 77.2457 146.084C76.1202 146.713 74.7915 147.012 73.4734 146.902C72.1501 146.801 70.8716 146.254 69.8032 145.441C68.7322 144.626 67.8494 143.54 67.2734 142.291C66.9894 141.669 66.7599 141.003 66.6966 140.302C66.6307 139.614 66.7037 138.85 67.1565 138.252C67.379 137.958 67.699 137.736 68.049 137.62C68.4007 137.509 68.7762 137.484 69.1349 137.541C69.8586 137.641 70.519 138.033 71.0228 138.541C71.5354 139.049 71.9259 139.659 72.2635 140.287C72.5977 140.917 72.8931 141.565 73.1639 142.229C73.6994 143.556 74.1022 144.963 74.2244 146.421C74.3475 147.868 74.1822 149.397 73.4981 150.731C73.1648 151.396 72.7287 152.012 72.1861 152.523C71.6418 153.029 70.992 153.428 70.2789 153.645C69.564 153.86 68.8008 153.864 68.0807 153.722C67.357 153.578 66.6817 153.266 66.0732 152.877C64.8536 152.092 63.8609 151.04 62.9807 149.942C62.5384 149.393 62.1242 148.826 61.7276 148.253C61.332 147.682 60.9292 147.106 60.632 146.465C60.3357 145.833 60.1554 145.103 60.29 144.393C60.3533 144.042 60.4843 143.696 60.7103 143.406C60.9336 143.114 61.2713 142.909 61.6327 142.844C61.9967 142.771 62.3687 142.843 62.6914 142.983C63.0167 143.121 63.3078 143.317 63.5724 143.536C64.1027 143.974 64.5256 144.521 64.894 145.074C66.3766 147.284 67.2814 149.905 67.058 152.483C66.9411 153.765 66.4997 155 65.7892 156.035C65.0822 157.068 64.0692 157.9 62.8901 158.267C61.7101 158.653 60.4254 158.475 59.357 157.974C58.279 157.481 57.3654 156.664 56.8106 155.652C56.5283 155.15 56.3375 154.604 56.261 154.038C56.1986 153.477 56.2434 152.877 56.5582 152.38C56.7174 152.134 56.9592 151.942 57.2353 151.846C57.5131 151.749 57.82 151.762 58.0873 151.849C58.6298 152.03 59.0387 152.419 59.3852 152.817C60.0957 153.624 60.4825 154.602 60.9459 155.483C61.3944 156.38 61.834 157.257 62.2631 158.115C65.6837 164.977 68.3506 170.581 70.1224 174.486C71.0105 176.438 71.6709 177.967 72.114 179.005C72.3286 179.522 72.4921 179.918 72.6056 180.191C72.7146 180.46 72.7647 180.599 72.7647 180.599C72.7647 180.599 72.6988 180.467 72.5818 180.202C72.4631 179.931 72.2917 179.538 72.0674 179.025C71.6093 177.994 70.9349 176.473 70.0327 174.528C68.2336 170.637 65.543 165.046 62.1022 158.195C61.6705 157.34 61.2291 156.463 60.778 155.568C60.3093 154.682 59.9233 153.718 59.2366 152.946C58.9033 152.563 58.505 152.197 58.0266 152.041C57.5562 151.87 56.9961 152.057 56.7279 152.493C56.4536 152.924 56.4043 153.487 56.4659 154.015C56.5388 154.546 56.7226 155.075 56.9943 155.552C57.5272 156.519 58.4091 157.306 59.4476 157.779C60.4782 158.259 61.7048 158.424 62.8233 158.056C63.9461 157.704 64.9187 156.907 65.601 155.907C66.286 154.906 66.7142 153.707 66.8259 152.464C67.0404 149.957 66.155 147.384 64.6936 145.212C64.3269 144.663 63.9233 144.144 63.4168 143.726C62.9244 143.321 62.3001 142.966 61.6793 143.087C61.0444 143.183 60.6347 143.804 60.5344 144.439C60.4122 145.085 60.5749 145.755 60.8589 146.364C61.1429 146.977 61.5377 147.544 61.9343 148.113C62.3291 148.683 62.7406 149.245 63.1785 149.788C64.049 150.873 65.0286 151.907 66.2104 152.667C66.7995 153.044 67.4467 153.341 68.1334 153.478C68.8175 153.612 69.5368 153.608 70.2077 153.406C71.5618 152.997 72.6434 151.903 73.2721 150.622C73.9307 149.338 74.0925 147.863 73.9729 146.445C73.8533 145.022 73.4594 143.637 72.9309 142.327C72.3796 141.034 71.8133 139.701 70.8478 138.722C70.3677 138.238 69.7636 137.884 69.1006 137.791C68.4482 137.683 67.7439 137.882 67.3552 138.406C66.9604 138.924 66.8804 139.627 66.9446 140.281C67.0026 140.946 67.2224 141.586 67.4985 142.192C68.0552 143.403 68.9134 144.46 69.9518 145.251C70.9885 146.042 72.2222 146.569 73.4954 146.668C74.7652 146.774 76.0481 146.487 77.134 145.882C78.2182 145.278 79.1204 144.359 79.6321 143.261C80.1439 142.181 80.2573 140.87 79.7033 139.839C79.4334 139.326 79.0096 138.9 78.5189 138.616C78.0274 138.341 77.4321 138.226 76.9186 138.428C76.4033 138.623 76.0278 139.084 75.8168 139.589C75.604 140.102 75.5337 140.663 75.5785 141.212C75.6656 142.318 76.1061 143.347 76.5106 144.352C76.9247 145.358 77.331 146.344 77.7293 147.311C78.5365 149.241 79.3349 151.083 80.1175 152.832C83.2399 159.832 86.0836 165.35 88.0946 169.136C89.1049 171.026 89.9068 172.485 90.4538 173.473C90.7246 173.962 90.9321 174.337 91.0754 174.596C91.2126 174.847 91.2786 174.981 91.2786 174.981Z" fill="white"/>
<path d="M66.5723 174.908C66.5732 174.917 66.4246 174.93 66.1424 174.948C65.8601 174.959 65.4433 175.002 64.9052 174.998C63.8298 175.024 62.269 174.974 60.3583 174.729C58.4484 174.487 56.1939 174.004 53.7872 173.166C51.3805 172.331 48.8349 171.112 46.3834 169.482C43.9434 167.834 41.8471 165.943 40.1597 164.035C38.4679 162.127 37.1639 160.226 36.2142 158.552C35.2611 156.878 34.6218 155.453 34.2367 154.45C34.0292 153.954 33.9096 153.552 33.8128 153.286C33.7214 153.018 33.6783 152.876 33.6862 152.874C33.6941 152.871 33.7548 153.007 33.8612 153.269C33.9738 153.528 34.1074 153.923 34.3281 154.412C34.7405 155.401 35.4018 156.809 36.3699 158.461C37.3345 160.114 38.6455 161.993 40.3347 163.878C42.0203 165.765 44.1051 167.636 46.5259 169.271C48.958 170.887 51.4808 172.103 53.8663 172.945C56.2528 173.79 58.4889 174.288 60.3847 174.551C62.2813 174.818 63.8342 174.894 64.9061 174.9C65.4424 174.917 65.8583 174.892 66.1415 174.897C66.4229 174.896 66.5715 174.9 66.5723 174.908Z" fill="#263238"/>
<path d="M32.3654 146.152C32.434 146.141 32.6283 146.932 32.7989 147.919C32.9695 148.906 33.0513 149.716 32.9827 149.729C32.9141 149.741 32.7198 148.95 32.5492 147.962C32.3786 146.975 32.296 146.165 32.3654 146.152Z" fill="#263238"/>
<path d="M96.586 137.263C96.5772 137.264 96.5447 137.14 96.4893 136.901C96.4322 136.639 96.3565 136.293 96.2616 135.859C96.2132 135.631 96.1605 135.379 96.1033 135.106C96.0365 134.832 95.9433 134.54 95.8553 134.224C95.6663 133.595 95.4966 132.864 95.1888 132.096C95.0473 131.707 94.8987 131.3 94.7448 130.877C94.5874 130.455 94.3763 130.034 94.1838 129.588C93.8153 128.688 93.3036 127.783 92.7927 126.818C91.6971 124.93 90.3324 122.945 88.6714 121.047C86.9858 119.171 85.177 117.578 83.4325 116.266C82.5356 115.643 81.6985 115.028 80.8482 114.554C80.4288 114.31 80.0357 114.05 79.6356 113.843C79.2338 113.64 78.8478 113.444 78.4785 113.257C77.7521 112.859 77.0469 112.604 76.4455 112.341C76.1421 112.216 75.8634 112.089 75.5996 111.99C75.3349 111.901 75.0922 111.818 74.8707 111.743C74.4512 111.597 74.1162 111.481 73.863 111.393C73.6335 111.31 73.5139 111.262 73.5156 111.254C73.5183 111.245 73.6423 111.277 73.877 111.343C74.1347 111.42 74.475 111.522 74.9014 111.649C75.1257 111.718 75.3727 111.794 75.6401 111.876C75.9074 111.969 76.1896 112.09 76.4965 112.209C77.1067 112.461 77.8199 112.706 78.5558 113.095C78.9295 113.279 79.32 113.47 79.7271 113.67C80.1324 113.874 80.5299 114.131 80.9546 114.373C81.8146 114.841 82.6622 115.455 83.5696 116.077C85.3344 117.389 87.1616 118.988 88.8604 120.879C90.5346 122.79 91.9037 124.795 92.9958 126.703C93.5049 127.678 94.0123 128.592 94.3755 129.502C94.5645 129.953 94.772 130.378 94.9259 130.805C95.0754 131.232 95.2196 131.644 95.3577 132.037C95.6566 132.813 95.8149 133.551 95.9916 134.187C96.0734 134.507 96.1605 134.801 96.2202 135.078C96.2704 135.354 96.3161 135.607 96.3574 135.838C96.433 136.276 96.4937 136.627 96.5394 136.892C96.579 137.134 96.5948 137.262 96.586 137.263Z" fill="#263238"/>
<g opacity="0.2">
<path d="M53.3934 119.79C52.2441 118.683 50.3211 118.356 48.3171 118.602C45.4506 118.955 42.8839 120.523 41.0875 122.784C35.802 129.437 33.8165 135.533 34.8189 144.368C35.1583 147.36 36.6619 151.889 39.0862 153.904C40.3049 154.917 41.8683 155.472 43.4396 155.266C47.5266 154.728 48.8614 149.942 48.5097 146.084C48.1817 142.488 47.0061 138.78 48.1633 135.359C49.1173 132.541 51.4862 130.474 53.1287 127.994C54.7713 125.514 55.5363 121.853 53.3934 119.79Z" fill="white"/>
</g>
<g opacity="0.2">
<path d="M65.7223 112.893C63.6392 111.357 60.2916 111.809 58.9015 113.352C57.7856 114.665 57.273 116.496 57.6414 118.179C58.0855 120.208 59.8599 121.893 61.9184 122.169C63.9768 122.446 66.1637 121.251 66.9867 119.343C67.8089 117.437 67.3938 114.126 65.7223 112.893Z" fill="white"/>
</g>
<path d="M82.3484 198.363C82.3484 198.363 83.8291 198.606 84.901 199.187C85.4576 199.489 86.1277 199.498 86.708 199.243L92.3716 196.758C93.0065 196.479 93.4681 195.906 93.5903 195.224C93.7337 194.425 94.1584 193.369 94.8653 192.868L82.3484 198.363Z" fill="#263238"/>
<path d="M69.2947 185.284C69.3448 185.398 74.5415 193.668 76.5296 196.829C77.3456 198.127 78.7446 198.986 80.2781 199.006C80.8373 199.014 81.4379 198.919 82.0446 198.652C84.4715 197.587 94.4314 193.215 94.4314 193.215C94.4314 193.215 97.6682 191.794 97.2751 188.904C96.861 185.861 93.6568 174.59 93.6568 174.59L69.2947 185.284Z" fill="#E0E0E0"/>
<path d="M97.5436 187.372L75.9979 196.921C75.6594 197.072 75.2637 196.919 75.1134 196.58L75.0835 196.513C74.9331 196.175 75.0861 195.779 75.4246 195.629L96.9703 186.079C97.3089 185.929 97.7045 186.082 97.8549 186.42L97.8848 186.487C98.0352 186.826 97.8822 187.222 97.5436 187.372Z" fill="#E0E0E0"/>
<path d="M97.5438 187.372C97.5271 187.359 97.7434 187.31 97.8744 186.995C97.9342 186.84 97.936 186.622 97.8102 186.407C97.7082 186.196 97.4321 186.014 97.127 186.078C95.9487 186.577 94.2244 187.382 92.1009 188.326C87.8327 190.227 81.9598 192.843 75.4723 195.732C75.3017 195.807 75.1777 195.969 75.1478 196.151C75.1337 196.241 75.1399 196.335 75.1707 196.421C75.2058 196.512 75.2481 196.607 75.3052 196.671C75.4239 196.81 75.613 196.882 75.7932 196.86C75.9568 196.838 76.1722 196.71 76.3657 196.634C77.157 196.284 77.937 195.938 78.7037 195.6C80.2364 194.923 81.7154 194.269 83.1249 193.648C85.9413 192.409 88.4799 191.294 90.6166 190.354C92.7419 189.429 94.4662 188.678 95.6753 188.151C96.2635 187.9 96.7252 187.703 97.0549 187.563C97.2044 187.502 97.3231 187.453 97.4163 187.415C97.4989 187.382 97.542 187.367 97.5438 187.372C97.5455 187.375 97.506 187.397 97.4268 187.436C97.3363 187.479 97.2202 187.535 97.0751 187.605C96.7489 187.755 96.2925 187.965 95.7122 188.233C94.5102 188.775 92.7955 189.548 90.6825 190.501C88.5511 191.454 86.0196 192.584 83.2102 193.84C81.8024 194.466 80.3252 195.124 78.7943 195.804C78.0284 196.145 77.2485 196.49 76.458 196.842L76.1608 196.974C76.0693 197.015 75.9497 197.073 75.8205 197.087C75.5664 197.119 75.3008 197.018 75.132 196.822C75.0449 196.719 74.9975 196.61 74.9544 196.496C74.9113 196.375 74.9025 196.241 74.9227 196.115C74.9632 195.859 75.1408 195.629 75.38 195.525C81.878 192.659 87.7606 190.065 92.0358 188.179C94.1769 187.251 95.8828 186.478 97.1112 185.991C97.462 185.927 97.7663 186.142 97.8718 186.378C97.9975 186.605 97.9905 186.853 97.9184 187.013C97.761 187.342 97.5315 187.372 97.5438 187.372Z" fill="#263238"/>
<path d="M96.7772 184.383L74.3187 194.337C73.9802 194.487 73.5845 194.334 73.4342 193.996L73.4043 193.929C73.2539 193.59 73.4069 193.195 73.7454 193.044L96.2038 183.091C96.5424 182.94 96.9381 183.093 97.0884 183.432L97.1183 183.499C97.2687 183.838 97.1157 184.234 96.7772 184.383Z" fill="#E0E0E0"/>
<path d="M96.7771 184.383C96.7586 184.37 96.9881 184.32 97.1147 183.987C97.1745 183.824 97.1596 183.6 97.0241 183.381C96.9037 183.168 96.5977 183.004 96.2899 183.105C95.0422 183.666 93.2616 184.468 91.0677 185.455C86.6342 187.429 80.5327 190.146 73.7937 193.148C73.617 193.225 73.4886 193.397 73.4666 193.588C73.4534 193.682 73.4675 193.778 73.5035 193.866C73.5466 193.975 73.5862 194.048 73.6557 194.118C73.7893 194.252 73.9942 194.31 74.1771 194.264C74.3529 194.207 74.5816 194.091 74.7803 194.007C75.6024 193.643 76.4132 193.285 77.2089 192.933C78.8014 192.229 80.3375 191.551 81.8016 190.904C84.7279 189.617 87.3641 188.458 89.5834 187.482C91.7914 186.52 93.5825 185.74 94.8382 185.193C95.4493 184.932 95.9294 184.727 96.2714 184.581C96.4271 184.518 96.5502 184.467 96.6469 184.427C96.7313 184.395 96.7753 184.38 96.7771 184.383C96.7788 184.387 96.7375 184.409 96.6557 184.45C96.5616 184.495 96.4412 184.552 96.2899 184.625C95.9523 184.781 95.4783 184.998 94.8742 185.276C93.6265 185.838 91.845 186.641 89.6494 187.631C87.4353 188.62 84.8062 189.794 81.8869 191.098C80.4246 191.749 78.8902 192.431 77.2995 193.138C76.5037 193.492 75.6939 193.851 74.8726 194.216C74.6563 194.306 74.4848 194.403 74.2307 194.486C73.9722 194.551 73.6847 194.471 73.4956 194.281C73.3998 194.191 73.3321 194.057 73.2925 193.953C73.2424 193.829 73.2222 193.692 73.2406 193.56C73.2705 193.291 73.4534 193.048 73.7014 192.94C80.4518 189.962 86.5621 187.267 91.0026 185.308C93.222 184.338 95.0079 183.552 96.2635 183.022C96.6188 182.914 96.9573 183.109 97.0831 183.347C97.2193 183.579 97.2308 183.834 97.1578 184.004C97.0066 184.352 96.7639 184.383 96.7771 184.383Z" fill="#263238"/>
<path d="M95.8448 181.469L72.8043 191.68C72.4658 191.831 72.0701 191.678 71.9198 191.339L71.8899 191.272C71.7395 190.934 71.8925 190.538 72.231 190.388L95.2715 180.176C95.6101 180.026 96.0058 180.179 96.1561 180.518L96.186 180.584C96.3364 180.923 96.1834 181.319 95.8448 181.469Z" fill="#E0E0E0"/>
<path d="M95.8447 181.469C95.8253 181.456 96.0628 181.405 96.1859 181.062C96.2457 180.893 96.2202 180.664 96.0768 180.445C95.9458 180.232 95.6205 180.08 95.3127 180.208C94.036 180.783 92.2114 181.605 89.9639 182.617C85.4258 184.638 79.1783 187.42 72.2784 190.493C72.0981 190.572 71.9671 190.75 71.9495 190.945C71.9389 191.043 71.9565 191.14 71.9961 191.23C72.0427 191.341 72.0849 191.412 72.1605 191.481C72.3039 191.613 72.5184 191.657 72.7013 191.598C72.8939 191.52 73.119 191.415 73.3247 191.325C74.1662 190.952 74.9963 190.586 75.8114 190.225C77.4417 189.505 79.0147 188.81 80.5131 188.148C83.5089 186.83 86.2084 185.643 88.4805 184.644C90.7412 183.659 92.5754 182.859 93.8601 182.3C94.4862 182.033 94.9777 181.823 95.3277 181.673C95.4868 181.607 95.6134 181.555 95.711 181.516C95.7981 181.481 95.8438 181.466 95.8447 181.469C95.8456 181.473 95.8042 181.495 95.7198 181.537C95.624 181.583 95.5009 181.641 95.3452 181.715C94.9997 181.874 94.5143 182.097 93.8953 182.382C92.6185 182.957 90.7939 183.779 88.5456 184.793C86.2796 185.805 83.5871 187.007 80.5984 188.342C79.1018 189.007 77.5305 189.706 75.902 190.43C75.0878 190.792 74.2586 191.16 73.4171 191.534C73.2008 191.628 73.0082 191.72 72.7708 191.815C72.5114 191.899 72.2107 191.836 72.0084 191.651C71.9064 191.565 71.8299 191.428 71.7877 191.323C71.7332 191.2 71.7086 191.058 71.7226 190.922C71.7464 190.646 71.9319 190.393 72.186 190.282C79.0965 187.234 85.3537 184.474 89.8988 182.469C92.1604 181.484 93.9955 180.685 95.2802 180.125C95.6354 179.986 95.9951 180.168 96.134 180.407C96.28 180.64 96.3019 180.901 96.2298 181.076C96.0812 181.437 95.8297 181.468 95.8447 181.469Z" fill="#263238"/>
<path d="M95.0891 178.476L71.1139 189.101C70.7754 189.252 70.3797 189.099 70.2293 188.76L70.1994 188.693C70.0491 188.355 70.2021 187.959 70.5406 187.809L94.5149 177.183C94.8535 177.033 95.2492 177.186 95.3995 177.524L95.4294 177.591C95.5807 177.93 95.4277 178.326 95.0891 178.476Z" fill="#E0E0E0"/>
<path d="M95.0895 178.476C95.0684 178.462 95.319 178.41 95.4368 178.049C95.4948 177.874 95.4526 177.633 95.297 177.415C95.144 177.203 94.7967 177.075 94.4854 177.245C93.1612 177.841 91.268 178.694 88.9352 179.745C84.2283 181.84 77.7478 184.726 70.5893 187.913C70.4012 187.994 70.2701 188.184 70.2587 188.387C70.2473 188.582 70.3537 188.812 70.504 188.93C70.6641 189.054 70.8892 189.079 71.0729 188.995C71.2928 188.897 71.5117 188.801 71.7298 188.704C72.6029 188.318 73.4638 187.937 74.3088 187.563C75.9997 186.815 77.6317 186.095 79.1863 185.408C82.2938 184.041 85.0944 182.809 87.4501 181.772C89.796 180.75 91.698 179.92 93.0293 179.339C93.6791 179.061 94.1891 178.843 94.5505 178.689C94.7158 178.62 94.8477 178.566 94.9488 178.525C95.0411 178.489 95.0877 178.472 95.0895 178.476C95.0912 178.479 95.0473 178.503 94.9602 178.546C94.8617 178.593 94.7334 178.654 94.5716 178.731C94.2146 178.894 93.7098 179.126 93.0671 179.421C91.7428 180.017 89.8506 180.87 87.5169 181.921C85.1656 182.971 82.3729 184.218 79.2725 185.602C77.7196 186.292 76.0903 187.017 74.4002 187.768C73.5552 188.144 72.6953 188.525 71.8221 188.912C71.604 189.009 71.3851 189.107 71.1653 189.203C70.9103 189.32 70.5893 189.286 70.3651 189.111C70.2543 189.026 70.1629 188.903 70.1136 188.78C70.0573 188.665 70.0187 188.513 70.0301 188.373C70.045 188.088 70.2314 187.818 70.4961 187.704C77.6651 184.541 84.1553 181.677 88.8693 179.598C91.2153 178.575 93.1181 177.745 94.4485 177.165C94.794 176.985 95.1915 177.136 95.3506 177.375C95.5133 177.612 95.5494 177.878 95.4799 178.063C95.4183 178.252 95.3014 178.357 95.2214 178.412C95.1396 178.466 95.0895 178.476 95.0895 178.476Z" fill="#263238"/>
<path d="M62.8208 179.018C62.9219 179.247 65.8104 184.441 67.2947 187.106C67.8399 188.085 68.8019 188.758 69.908 188.938L71.5303 189.201L95.4801 178.687L96.3717 177.334C96.9951 176.387 97.1463 175.206 96.7797 174.134L93.8015 165.417L62.8208 179.018Z" fill="#FF725E"/>
<g opacity="0.3">
<path d="M76.7761 196.513C79.312 196.022 81.6308 195.057 84.1588 193.934C86.1997 193.027 88.2291 192.204 90.4283 191.184C92.04 190.436 93.5006 189.698 95.0912 188.916C95.8967 188.52 96.7039 187.918 96.7962 187.68L76.7761 196.513Z" fill="black"/>
</g>
<g opacity="0.3">
<path d="M74.6941 194.092C77.4103 193.522 79.9084 192.478 82.6334 191.268C84.8334 190.291 87.0194 189.399 89.3917 188.303C91.1301 187.5 92.7076 186.71 94.4249 185.873C95.2945 185.449 96.1721 184.816 96.2776 184.572L74.6941 194.092Z" fill="black"/>
</g>
<g opacity="0.3">
<path d="M73.4797 191.326C76.1959 190.756 78.694 189.713 81.419 188.503C83.619 187.526 85.805 186.633 88.1774 185.538C89.9158 184.735 91.4932 183.944 93.2105 183.107C94.0802 182.683 94.9577 182.05 95.0632 181.807L73.4797 191.326Z" fill="black"/>
</g>
<g opacity="0.3">
<path d="M72.2654 188.56C74.9816 187.99 77.4797 186.945 80.2047 185.736C82.4047 184.759 84.5906 183.868 86.963 182.771C88.7014 181.968 90.2789 181.178 91.9962 180.341C92.8658 179.917 93.7434 179.284 93.8489 179.04L72.2654 188.56Z" fill="black"/>
</g>
<path opacity="0.3" d="M62.8208 179.018C62.9219 179.247 65.8104 184.441 67.2947 187.106C67.8399 188.085 68.8019 188.758 69.908 188.938L71.5303 189.201L95.4801 178.687L96.3717 177.334C96.9951 176.387 97.1463 175.206 96.7797 174.134L93.8015 165.417L62.8208 179.018Z" fill="black"/>
<path d="M96.6995 175.544C96.725 175.602 90.3394 178.461 82.4389 181.93C74.5356 185.4 68.1105 188.164 68.085 188.106C68.0595 188.048 74.4442 185.19 82.3474 181.72C90.2471 178.252 96.674 175.486 96.6995 175.544Z" fill="#263238"/>
<path d="M93.5621 165.333C93.5929 165.396 86.671 168.529 78.1048 172.33C69.535 176.132 62.5656 179.162 62.5357 179.099C62.505 179.036 69.4251 175.904 77.9949 172.102C86.5611 168.301 93.5314 165.27 93.5621 165.333Z" fill="#263238"/>
<path d="M375.089 106.524L364.103 105.242C359.677 109.737 353.994 113.103 347.418 114.719C328.508 119.366 309.411 107.804 304.764 88.8938C300.116 69.9834 311.679 50.8866 330.589 46.2394C349.499 41.5923 368.596 53.1543 373.244 72.0647C375.184 79.9609 374.29 87.8852 371.223 94.7807L371.235 94.7649L375.089 106.524Z" fill="white"/>
<path d="M375.089 106.524C375.089 106.524 374.989 106.256 374.816 105.747C374.638 105.224 374.385 104.475 374.052 103.493C373.384 101.507 372.405 98.5917 371.131 94.7992L371.321 94.8335L371.308 94.8493C371.271 94.8968 371.201 94.9047 371.154 94.8669C371.114 94.8353 371.103 94.7807 371.122 94.7359C372.963 90.5231 374.578 84.6063 373.975 77.6017C373.827 75.8598 373.55 74.0598 373.099 72.2362C372.561 70.4371 372.07 68.5527 371.225 66.7326C369.654 63.0597 367.352 59.4211 364.261 56.2196C361.179 53.018 357.315 50.2605 352.87 48.3498C348.434 46.4346 343.416 45.3768 338.245 45.4841C327.915 45.6019 317.018 50.9085 310.478 60.2318C307.17 64.9722 304.962 70.401 304.313 75.9319C303.601 81.4487 304.229 86.9795 305.934 91.9661C307.622 96.9693 310.488 101.357 313.909 104.88C317.343 108.407 321.375 111.057 325.533 112.797C329.695 114.545 333.975 115.383 338.009 115.507C338.515 115.513 339.016 115.52 339.513 115.526C340.011 115.541 340.504 115.541 340.992 115.48C341.967 115.393 342.926 115.309 343.869 115.226C345.724 114.855 347.537 114.593 349.212 114.053C355.971 112.02 360.86 108.363 364.03 105.168C364.053 105.144 364.087 105.134 364.117 105.137C367.658 105.579 370.385 105.919 372.245 106.151C373.164 106.269 373.866 106.359 374.358 106.421C374.834 106.483 375.089 106.524 375.089 106.524C375.089 106.524 374.863 106.508 374.397 106.46C373.911 106.409 373.217 106.335 372.309 106.239C370.428 106.035 367.672 105.735 364.091 105.346L364.177 105.315C361.019 108.559 356.117 112.279 349.305 114.365C347.617 114.918 345.787 115.192 343.915 115.573C342.963 115.661 341.995 115.75 341.01 115.842C340.519 115.905 340.02 115.909 339.517 115.895C339.014 115.89 338.508 115.886 337.997 115.881C333.918 115.772 329.586 114.938 325.371 113.181C321.159 111.432 317.07 108.76 313.584 105.194C310.112 101.632 307.201 97.19 305.483 92.1208C303.748 87.0701 303.105 81.4627 303.825 75.8668C304.481 70.2577 306.716 64.7506 310.072 59.9434C310.45 59.3306 310.918 58.7871 311.373 58.2358L312.736 56.5854L314.24 55.0765C314.735 54.5691 315.233 54.067 315.795 53.6379C316.339 53.1895 316.882 52.7419 317.424 52.2952C317.953 51.8327 318.572 51.4933 319.14 51.0888C319.725 50.7089 320.284 50.2895 320.887 49.9466C321.499 49.6186 322.109 49.2906 322.717 48.9644C327.617 46.4206 332.993 45.0814 338.233 45.0066C343.476 44.9046 348.56 45.9844 353.049 47.933C357.547 49.878 361.452 52.6795 364.562 55.9276C367.682 59.1758 369.999 62.8645 371.573 66.5831C372.42 68.4252 372.91 70.3316 373.444 72.1509C373.893 73.9948 374.164 75.8141 374.306 77.5727C374.879 84.6476 373.212 90.6014 371.322 94.8238L371.136 94.7104L371.148 94.6954C371.186 94.648 371.255 94.64 371.302 94.677C371.32 94.691 371.332 94.7104 371.338 94.7297C372.567 98.5741 373.511 101.529 374.154 103.541C374.462 104.516 374.697 105.26 374.862 105.779C375.02 106.28 375.089 106.524 375.089 106.524Z" fill="#263238"/>
<path d="M322.762 81.2956L326.981 76.6292L335.934 83.814L349.23 68.5448L353.579 72.7795L335.73 92.4136L322.762 81.2956Z" fill="#263238"/>
<path d="M278.331 109.573C279.926 109.375 282.264 109.083 285.301 108.704C285.327 108.701 285.355 108.71 285.375 108.73C288.094 111.47 292.285 114.605 298.081 116.348C299.516 116.811 301.072 117.036 302.663 117.353C303.471 117.425 304.293 117.498 305.129 117.571C305.547 117.623 305.97 117.624 306.396 117.611C306.823 117.606 307.253 117.601 307.686 117.594C311.145 117.488 314.815 116.77 318.383 115.27C319.298 114.887 320.207 114.451 321.102 113.965C320.828 113.859 320.553 113.76 320.28 113.645C316.152 111.932 312.144 109.312 308.728 105.816C305.324 102.326 302.471 97.9718 300.787 93.0028C299.086 88.0523 298.457 82.5558 299.162 77.0715C299.805 71.5732 301.996 66.176 305.285 61.4638C305.656 60.8632 306.115 60.3304 306.561 59.7896L307.896 58.1725L308.47 57.5966C308.141 57.5808 307.811 57.5588 307.483 57.5544C303.049 57.4621 298.747 58.3695 294.943 60.0112C291.132 61.6502 287.819 64.0147 285.177 66.759C282.526 69.5042 280.552 72.624 279.206 75.7728C278.482 77.3327 278.06 78.9488 277.6 80.4911C277.213 82.0554 276.974 83.5986 276.848 85.0917C276.332 91.0982 277.716 96.171 279.295 99.7832C279.312 99.821 279.302 99.8667 279.269 99.8939C278.185 103.117 277.352 105.6 276.783 107.292C276.498 108.134 276.28 108.776 276.128 109.223C275.979 109.66 275.894 109.89 275.894 109.89C275.894 109.89 276.112 109.856 276.521 109.803C276.941 109.751 277.543 109.674 278.331 109.573Z" fill="#F5F5F5"/>
<path d="M278.331 109.573C278.331 109.573 278.127 109.617 277.72 109.678C277.295 109.739 276.69 109.828 275.901 109.943L275.817 109.955L275.844 109.874C276.524 107.817 277.653 104.404 279.157 99.8596L279.192 99.8077C279.174 99.7998 279.198 99.864 279.173 99.8024L279.112 99.66L278.989 99.3716C278.909 99.1772 278.829 98.9811 278.748 98.7824C278.585 98.3858 278.438 97.9735 278.287 97.554C277.991 96.7125 277.727 95.8227 277.49 94.8924C277.024 93.0309 276.694 90.9926 276.609 88.8163C276.517 86.6418 276.66 84.331 277.102 81.9577C277.307 80.7636 277.679 79.5775 278.039 78.3781C278.391 77.1673 278.897 75.9644 279.448 74.7782C281.65 70.0097 285.369 65.4224 290.446 62.1698C295.485 58.9058 301.868 57.0065 308.479 57.374L308.979 57.4022L308.627 57.7565C308.448 57.9359 308.25 58.1338 308.053 58.3325L308.067 58.3167C304.033 62.8609 300.949 68.6186 299.718 74.9532C298.072 83.6363 299.82 92.5745 304.056 99.4542C308.264 106.389 314.638 111.291 321.169 113.783L321.597 113.945L321.192 114.138C319.593 114.898 318.053 115.7 316.438 116.206C314.837 116.741 313.234 117.129 311.656 117.388C308.508 117.911 305.425 117.846 302.646 117.513L302.633 117.511L302.628 117.51C301.614 117.305 300.615 117.137 299.647 116.921C298.674 116.715 297.755 116.401 296.869 116.107C295.1 115.482 293.488 114.745 292.048 113.937C289.167 112.318 286.972 110.475 285.348 108.829C285.335 108.745 285.15 108.829 285.018 108.825C284.879 108.842 284.742 108.858 284.607 108.873C284.337 108.905 284.075 108.937 283.821 108.967C283.313 109.026 282.839 109.082 282.398 109.134C281.521 109.235 280.777 109.32 280.169 109.39C279.58 109.454 279.124 109.504 278.798 109.539C278.491 109.569 278.331 109.573 278.331 109.573C278.331 109.573 278.487 109.538 278.794 109.492C279.118 109.447 279.573 109.382 280.159 109.3C280.766 109.218 281.509 109.118 282.384 109.001C282.824 108.943 283.298 108.88 283.805 108.813C284.059 108.779 284.32 108.745 284.59 108.71C284.725 108.692 284.862 108.674 285.001 108.656L285.211 108.629C285.257 108.627 285.256 108.614 285.343 108.62C285.376 108.626 285.41 108.643 285.435 108.668L285.474 108.706C287.107 110.322 289.302 112.132 292.171 113.717C295.041 115.305 298.572 116.607 302.691 117.197L302.675 117.194C304.086 117.314 305.522 117.476 307.009 117.433C308.506 117.424 310.037 117.289 311.599 117.034C313.158 116.773 314.74 116.384 316.318 115.85C317.911 115.346 319.429 114.548 321.006 113.793L321.029 114.148C314.415 111.648 307.951 106.701 303.681 99.6837C299.377 92.7143 297.602 83.6662 299.269 74.8679C300.52 68.4349 303.645 62.62 307.721 58.0318L307.732 58.0186L307.735 58.0159C307.933 57.8172 308.131 57.6194 308.309 57.44L308.457 57.8216C301.941 57.4532 295.649 59.3138 290.672 62.5215C285.657 65.7187 281.977 70.2322 279.784 74.9356C279.23 76.12 278.734 77.2825 278.379 78.4845C278.013 79.6874 277.643 80.8481 277.437 82.0228C276.99 84.367 276.836 86.6541 276.915 88.8058C276.987 90.9601 277.303 92.9807 277.752 94.829C277.98 95.7523 278.236 96.636 278.524 97.4731C278.67 97.8908 278.814 98.3006 278.971 98.6954C279.05 98.8932 279.129 99.0884 279.206 99.2819L279.326 99.5685L279.385 99.711C279.414 99.7356 279.443 99.9264 279.339 99.9862L279.374 99.9343C277.82 104.486 276.664 107.9 275.938 109.911L275.881 109.842C276.676 109.749 277.283 109.677 277.71 109.627C278.123 109.582 278.331 109.573 278.331 109.573Z" fill="#263238"/>
</svg>
