<svg width="696" height="364" viewBox="0 0 696 364" fill="none" xmlns="http://www.w3.org/2000/svg">
<g clip-path="url(#clip0_293_11850)">
<path d="M690.776 59.934C690.776 59.934 682.42 54.832 673.174 74.712C663.929 94.592 660.565 105.987 660.565 105.987C660.565 105.987 658.083 110.172 655.177 107.6C652.271 105.028 648.149 97.582 643.423 99.12C638.521 100.715 637.09 106.301 638.327 114.39C639.564 122.478 641.625 140.299 641.805 141.911C641.982 143.494 641.157 145.864 638.897 144.429C636.637 142.994 623.437 129.319 617.324 135.971C611.21 142.623 618.36 164.589 619.095 167.006C619.831 169.422 619.391 170.482 618.254 171.127C617.117 171.773 613.113 166.758 609.2 163.023C605.287 159.288 600.094 155.642 596.888 159.776C593.682 163.909 593.211 180.602 610.036 207.081L618.635 218.84L633.206 217.503C664.215 212.742 676.472 201.401 677.474 196.267C678.476 191.133 672.314 189.623 666.926 189.135C661.538 188.647 655.128 188.934 654.866 187.653C654.604 186.372 655.112 185.344 657.415 184.307C659.718 183.27 680.962 174.195 681.946 165.215C682.93 156.234 663.948 155.297 661.379 154.54C658.811 153.782 660.053 151.601 661.361 150.693C662.693 149.768 677.466 139.59 684.37 135.198C691.274 130.806 694.538 126.051 692.512 121.311C690.559 116.741 682.241 118.538 678.392 118.043C674.543 117.548 676.06 112.925 676.06 112.925C676.06 112.925 682.425 102.894 691.307 82.848C700.19 62.803 690.599 59.843 690.599 59.843" fill="#F5F5F5"/>
<path d="M682.466 77.724C682.466 77.724 682.418 77.873 682.303 78.154C682.177 78.453 682.003 78.866 681.779 79.396C681.299 80.505 680.606 82.104 679.719 84.154C677.924 88.284 675.284 94.24 671.992 101.588C665.414 116.285 656.154 136.51 645.854 158.813C635.55 181.123 626.24 201.325 619.581 215.984C616.265 223.302 613.579 229.23 611.712 233.351C610.788 235.384 610.067 236.971 609.567 238.071C609.324 238.593 609.135 238.999 608.998 239.293C608.867 239.567 608.789 239.703 608.789 239.703C608.789 239.703 608.836 239.554 608.952 239.273C609.078 238.974 609.252 238.562 609.477 238.031C609.957 236.922 610.65 235.323 611.537 233.274C613.331 229.145 615.972 223.189 619.264 215.841C625.842 201.144 635.103 180.916 645.407 158.606C655.707 136.304 665.017 116.104 671.675 101.444C674.991 94.126 677.677 88.197 679.545 84.076C680.469 82.042 681.19 80.456 681.69 79.356C681.933 78.834 682.122 78.428 682.259 78.133C682.388 77.859 682.466 77.724 682.466 77.724Z" fill="#E0E0E0"/>
<path d="M648.77 109.768C648.802 109.757 648.947 110.104 649.18 110.74C649.417 111.375 649.73 112.303 650.106 113.454C650.853 115.757 651.801 118.965 652.78 122.524C653.728 126.029 654.586 129.197 655.248 131.645C655.546 132.729 655.8 133.65 656.008 134.404C656.19 135.055 656.275 135.421 656.243 135.431C656.211 135.442 656.064 135.097 655.825 134.462C655.591 133.826 655.276 132.897 654.913 131.742C654.189 129.431 653.283 126.212 652.304 122.654C651.331 119.158 650.451 115.997 649.772 113.554C649.468 112.471 649.209 111.551 648.997 110.797C648.82 110.145 648.738 109.778 648.77 109.768Z" fill="#E0E0E0"/>
<path d="M657.59 135.642C657.548 135.512 664.073 133.263 672.163 130.618C680.256 127.972 686.848 125.934 686.891 126.063C686.933 126.193 680.41 128.441 672.317 131.087C664.226 133.732 657.632 135.771 657.59 135.642Z" fill="#E0E0E0"/>
<path d="M640.224 169.183C640.224 169.149 640.606 169.117 641.296 169.087C642.092 169.059 643.068 169.026 644.218 168.985C646.684 168.897 650.089 168.765 653.841 168.483C657.595 168.21 660.983 167.847 663.435 167.566C664.578 167.437 665.549 167.328 666.34 167.239C667.027 167.166 667.41 167.142 667.415 167.176C667.42 167.21 667.048 167.298 666.369 167.43C665.69 167.561 664.704 167.731 663.481 167.913C661.037 168.283 657.643 168.702 653.878 168.976C650.114 169.259 646.697 169.336 644.224 169.334C642.988 169.328 641.988 169.311 641.297 169.279C640.606 169.25 640.224 169.217 640.224 169.183Z" fill="#E0E0E0"/>
<path d="M627.096 147.536C627.125 147.518 627.339 147.8 627.702 148.326C628.065 148.852 628.576 149.621 629.199 150.577C630.445 152.489 632.137 155.148 633.981 158.102C635.825 161.056 637.47 163.745 638.641 165.705C639.226 166.685 639.692 167.482 640.005 168.039C640.318 168.596 640.477 168.913 640.448 168.93C640.419 168.948 640.205 168.666 639.842 168.14C639.479 167.615 638.968 166.845 638.345 165.889C637.099 163.977 635.407 161.317 633.563 158.363C631.72 155.41 630.074 152.721 628.904 150.762C628.319 149.782 627.853 148.985 627.54 148.428C627.226 147.871 627.067 147.554 627.096 147.536Z" fill="#E0E0E0"/>
<path d="M608.003 175.199C608.032 175.181 608.302 175.545 608.767 176.218C609.277 176.979 609.923 177.944 610.695 179.096C612.305 181.538 614.5 184.93 616.898 188.693C619.297 192.457 621.446 195.879 622.981 198.369C623.7 199.555 624.302 200.549 624.776 201.331C625.191 202.036 625.406 202.435 625.378 202.453C625.349 202.471 625.079 202.108 624.614 201.434C624.105 200.674 623.458 199.708 622.686 198.556C621.076 196.114 618.881 192.722 616.482 188.958C614.083 185.195 611.935 181.774 610.401 179.284C609.682 178.098 609.08 177.104 608.605 176.321C608.19 175.616 607.975 175.218 608.003 175.199Z" fill="#E0E0E0"/>
<path d="M625.146 201.686C625.145 201.652 625.628 201.599 626.501 201.532C627.468 201.464 628.711 201.376 630.201 201.271C633.324 201.049 637.637 200.729 642.388 200.244C647.141 199.766 651.432 199.222 654.536 198.809C656.017 198.614 657.252 198.451 658.213 198.324C659.082 198.214 659.566 198.169 659.571 198.202C659.576 198.236 659.104 198.345 658.243 198.513C657.383 198.681 656.134 198.905 654.586 199.153C651.492 199.655 647.199 200.255 642.437 200.734C637.677 201.22 633.352 201.486 630.22 201.619C628.654 201.682 627.386 201.718 626.509 201.723C625.633 201.732 625.147 201.72 625.146 201.686Z" fill="#E0E0E0"/>
<path d="M95.293 158.432C118.62 142.861 124.315 113.402 123.817 86.838C123.733 82.402 124.298 77.737 122.223 73.817C120.147 69.896 115.205 67.165 111.154 68.972C107.796 70.471 106.282 74.278 104.366 77.417C101.819 81.592 98.067 85.024 93.68 87.188C90.797 88.61 87.246 89.452 84.446 87.873C80.605 85.706 80.231 80.419 80.327 76.008C80.507 67.794 80.686 59.58 80.866 51.365C80.963 46.957 81.047 42.458 79.722 38.252C78.398 34.048 75.39 30.116 71.159 28.877C66.928 27.64 61.635 29.979 60.671 34.28C60.27 36.07 60.612 37.94 60.46 39.767C60.307 41.594 59.411 43.607 57.642 44.092C55.852 44.582 54.085 43.304 52.768 41.995C48.228 37.474 45.188 31.695 42.354 25.948C39.518 20.203 36.772 14.324 32.665 9.40699C28.558 4.48999 22.831 0.555986 16.441 0.102986C10.049 -0.350014 3.17398 3.44499 1.46098 9.61899C-0.257016 15.809 3.31998 22.168 7.23898 27.259C13.052 34.812 19.966 41.516 27.692 47.097C29.085 48.104 30.594 49.193 31.108 50.833C32.031 53.785 29.164 56.664 26.21 57.586C22.863 58.629 19.256 58.234 15.768 58.587C12.278 58.94 8.48198 60.399 7.11298 63.627C5.21498 68.107 8.95898 72.886 12.668 76.035C20.094 82.341 28.61 87.363 37.721 90.812C40.989 92.049 44.429 93.141 47.043 95.458C49.657 97.777 51.194 101.761 49.547 104.842C47.897 107.927 43.772 108.859 40.341 108.177C36.909 107.497 33.857 105.606 30.597 104.336C24.494 101.958 16.562 102.258 12.549 107.434C9.91098 110.836 9.60898 115.626 10.853 119.747C12.096 123.869 14.69 127.441 17.454 130.742C27.114 142.281 39.566 151.639 53.728 156.724C67.891 161.812 81.063 163.327 95.293 158.432Z" fill="#EBEBEB"/>
<path d="M93.4619 158.944C89.7079 145.49 79.4319 113.836 73.3109 98.948C71.7669 95.233 70.2399 91.562 68.7359 87.943C67.2279 84.333 65.7319 80.757 64.0489 77.346C60.7139 70.51 56.9809 64.188 53.2469 58.295C49.5129 52.399 45.7519 46.938 42.1979 41.854C38.6329 36.778 35.2189 32.108 31.9249 27.982C25.3599 19.704 19.2779 13.657 14.9329 9.67001C12.7629 7.66901 11.0299 6.17001 9.84193 5.16801C9.26293 4.68601 8.81294 4.31101 8.48494 4.03701C8.17694 3.78501 8.00793 3.66901 8.00793 3.66901C8.00793 3.66901 8.14693 3.819 8.43993 4.089C8.75693 4.374 9.19394 4.766 9.75394 5.269C10.9109 6.304 12.6159 7.83201 14.7549 9.85901C19.0399 13.899 25.0529 19.979 31.5539 28.274C34.8179 32.408 38.2019 37.086 41.7439 42.17C45.2749 47.264 49.0139 52.73 52.7259 58.624C56.4389 64.513 60.1499 70.822 63.4609 77.632C65.1309 81.029 66.6129 84.581 68.1229 88.2C69.6259 91.818 71.1499 95.488 72.6929 99.202C78.8089 114.08 89.0919 145.7 92.8689 159.112" fill="#E0E0E0"/>
<path d="M63.884 77.278C63.929 77.286 64.083 76.617 64.32 75.399C64.564 74.183 64.864 72.4131 65.205 70.2231C65.892 65.8421 66.64 59.761 67.449 53.054C68.258 46.342 69.11 40.289 69.89 35.934C70.273 33.754 70.605 31.994 70.852 30.782C71.092 29.568 71.205 28.89 71.159 28.879C71.115 28.868 70.918 29.526 70.599 30.724C70.273 31.922 69.87 33.673 69.427 35.847C68.525 40.192 67.596 46.257 66.786 52.973C65.994 59.623 65.277 65.6411 64.738 70.1581C64.466 72.2611 64.238 74.009 64.063 75.359C63.904 76.586 63.838 77.27 63.884 77.278Z" fill="#E0E0E0"/>
<path d="M6.625 65.829C6.624 65.852 6.828 65.887 7.215 65.934C7.682 65.981 8.24 66.037 8.913 66.105C10.386 66.246 12.517 66.446 15.143 66.78C20.395 67.404 27.622 68.53 35.536 70.123C43.45 71.732 50.547 73.497 55.641 74.929C58.193 75.627 60.242 76.249 61.661 76.673C62.309 76.863 62.849 77.022 63.298 77.154C63.675 77.257 63.876 77.301 63.884 77.279C63.891 77.257 63.704 77.172 63.341 77.027C62.903 76.863 62.376 76.665 61.742 76.428C60.347 75.928 58.314 75.235 55.773 74.477C50.701 72.928 43.601 71.085 35.667 69.472C27.735 67.873 20.475 66.819 15.194 66.313C12.557 66.039 10.413 65.909 8.931 65.848C8.254 65.83 7.692 65.814 7.223 65.801C6.832 65.797 6.626 65.806 6.625 65.829Z" fill="#E0E0E0"/>
<path d="M87.9179 140.629C87.9389 140.639 88.0729 140.4 88.3069 139.938C88.5679 139.407 88.8989 138.731 89.3089 137.896C90.1729 136.121 91.36 133.522 92.787 130.293C95.646 123.837 99.319 114.801 103.246 104.777C107.175 94.751 110.775 85.696 113.52 79.2C114.881 76.015 115.993 73.411 116.801 71.518C117.164 70.663 117.458 69.97 117.688 69.427C117.885 68.946 117.978 68.688 117.957 68.678C117.936 68.668 117.802 68.907 117.566 69.371C117.307 69.901 116.975 70.577 116.565 71.412C115.701 73.187 114.515 75.786 113.089 79.015C110.229 85.471 106.555 94.507 102.627 104.535C98.6989 114.558 95.099 123.611 92.355 130.108C90.995 133.291 89.8819 135.897 89.0739 137.79C88.7109 138.645 88.4169 139.338 88.1869 139.882C87.9899 140.362 87.8969 140.62 87.9179 140.629Z" fill="#E0E0E0"/>
<path d="M11.988 115.218C11.982 115.239 12.243 115.344 12.745 115.523C13.317 115.718 14.05 115.967 14.955 116.274C16.957 116.942 19.718 117.862 23.095 118.987C29.963 121.285 39.412 124.576 49.842 128.237C60.276 131.898 69.757 135.123 76.668 137.308C80.124 138.403 82.927 139.261 84.875 139.819C85.796 140.079 86.541 140.289 87.121 140.452C87.637 140.589 87.911 140.65 87.918 140.628C87.925 140.606 87.663 140.502 87.16 140.323C86.589 140.129 85.857 139.88 84.952 139.572C82.951 138.905 80.191 137.986 76.814 136.86C69.945 134.562 60.496 131.269 50.062 127.608C39.632 123.948 30.151 120.724 23.241 118.539C19.785 117.445 16.981 116.586 15.033 116.028C14.113 115.768 13.368 115.559 12.786 115.395C12.269 115.258 11.995 115.196 11.988 115.218Z" fill="#E0E0E0"/>
<path d="M287.992 304.42H170.315H138.809L163.111 321.957V356.458C163.111 360.437 166.336 363.662 170.315 363.662H287.992C291.971 363.662 295.196 360.437 295.196 356.458V311.624C295.197 307.646 291.971 304.42 287.992 304.42Z" fill="#F5F5F5"/>
<path d="M281.77 328.803C281.77 328.947 259.27 329.063 231.521 329.063C203.763 329.063 181.267 328.946 181.267 328.803C181.267 328.659 203.762 328.543 231.521 328.543C259.27 328.543 281.77 328.659 281.77 328.803Z" fill="#E0E0E0"/>
<path d="M281.77 342.049C281.77 342.193 259.27 342.309 231.521 342.309C203.763 342.309 181.267 342.192 181.267 342.049C181.267 341.905 203.762 341.789 231.521 341.789C259.27 341.789 281.77 341.905 281.77 342.049Z" fill="#E0E0E0"/>
<path d="M592.579 354.075H417.983C396.562 354.075 379.196 336.71 379.196 315.288V173.183C379.196 151.762 396.561 134.396 417.983 134.396H592.579C614 134.396 631.366 151.761 631.366 173.183V315.289C631.366 336.71 614.001 354.075 592.579 354.075Z" fill="#B565A7"/>
<g opacity="0.4">
<path d="M592.579 354.075H417.983C396.562 354.075 379.196 336.71 379.196 315.288V173.183C379.196 151.762 396.561 134.396 417.983 134.396H592.579C614 134.396 631.366 151.761 631.366 173.183V315.289C631.366 336.71 614.001 354.075 592.579 354.075Z" fill="black"/>
</g>
<path d="M631.302 210.984H669.068L630.446 249.606L631.302 210.984Z" fill="#B565A7"/>
<g opacity="0.4">
<path d="M631.302 210.984H669.068L630.446 249.606L631.302 210.984Z" fill="black"/>
</g>
<path d="M373.164 234.727L357.331 216.771C353.049 212.491 351.584 210.425 352.437 209.675C353.575 208.674 353.092 209.008 361.982 215.681C361.982 215.681 349.377 206.046 353.748 205.986C354.518 205.975 356.656 207.225 358.948 208.729C355.829 206.076 354.966 204.292 355.557 203.436C356.574 201.964 364.283 207.307 367.832 209.884C364.928 207.72 359.401 203.525 358.426 202.21C357.093 200.412 359.795 200.556 361.996 201.308C364.467 202.152 378.114 209.117 382.158 210.921C384.94 212.162 385.916 209.645 385.916 209.645C387.404 203.393 391.902 199.319 393.64 198.787C395.378 198.259 396.688 200.465 395.461 202.055C394.47 203.341 393.468 205.981 392.797 207.992C392.244 209.65 391.96 211.383 391.99 213.118C392.024 215.138 392.132 216.846 392.261 218.296L406.724 238.151L382.528 252.183L373.164 234.727Z" fill="#B78876"/>
<path d="M367.474 218.436C367.311 218.663 364.499 216.729 361.193 214.116C357.886 211.502 355.355 209.213 355.538 209.002C355.722 208.792 358.534 210.726 361.82 213.323C365.105 215.919 367.636 218.21 367.474 218.436Z" fill="#AA6550"/>
<path d="M370.558 215.278C370.398 215.507 367.286 213.615 363.607 211.052C359.927 208.488 357.074 206.225 357.233 205.996C357.392 205.767 360.504 207.659 364.185 210.222C367.863 212.785 370.717 215.049 370.558 215.278Z" fill="#AA6550"/>
<path d="M372.796 211.92C372.64 212.151 369.664 210.41 366.151 208.031C362.637 205.651 359.916 203.536 360.072 203.304C360.228 203.073 363.203 204.814 366.718 207.193C370.23 209.572 372.952 211.689 372.796 211.92Z" fill="#AA6550"/>
<path d="M393.61 221.031L451.287 294.174L438.079 324.925C438.079 324.925 422.259 321.423 417.461 314.757C412.663 308.091 373.164 234.727 373.164 234.727L393.61 221.031Z" fill="#B78876"/>
<path d="M540.031 118.682C544.183 122.278 544.168 128.62 543.688 134.092C543.208 139.564 542.843 145.794 546.633 149.771C549.756 153.048 555.426 154.483 556.154 158.951C556.494 161.036 555.4 163.278 553.548 164.294C551.696 165.31 549.217 165.026 547.642 163.619C548.863 167.147 548.018 171.561 544.957 173.698C541.896 175.834 536.774 174.52 535.824 170.91C536.401 173.299 534.65 175.991 532.231 176.43C529.813 176.87 527.226 174.967 526.925 172.527" fill="#263238"/>
<path d="M480.595 155.595C479.561 158.321 476.084 159.816 473.394 158.692C470.704 157.567 469.325 154.042 470.539 151.391C471.491 149.311 473.741 147.81 473.956 145.533C474.216 142.775 471.406 140.811 468.91 139.609C466.414 138.407 463.496 136.844 463.225 134.088C462.964 131.427 465.344 129.356 467.339 127.576C469.334 125.796 471.297 123.043 470.067 120.669C469.438 119.454 468.129 118.755 467.283 117.68C465.41 115.3 466.39 111.511 468.774 109.644C471.158 107.777 474.464 107.517 477.444 108.053C480.424 108.589 483.227 109.824 486.13 110.687C495.702 113.534 506.456 112.125 514.972 106.909" fill="#263238"/>
<path d="M498.308 220.086C509.059 222.261 519.564 215.404 521.901 204.687L536.086 139.625C539.815 123.799 529.748 108.016 513.825 104.727L512.336 104.509C497.346 102.313 483.184 111.994 479.791 126.759C476.635 140.492 473.325 155.705 472.325 163.174C470.255 178.638 485.343 183.3 485.343 183.3L482.635 196.327C480.37 207.222 487.401 217.88 498.308 220.086Z" fill="#B78876"/>
<path d="M482.571 136.954C482.359 138.112 483.165 139.246 484.371 139.489C485.574 139.731 486.723 138.992 486.934 137.834C487.146 136.676 486.34 135.541 485.137 135.298C483.932 135.055 482.782 135.796 482.571 136.954Z" fill="#263238"/>
<path d="M482.003 134.799C482.234 135.126 484.085 134.135 486.457 134.489C488.831 134.808 490.393 136.283 490.692 136.031C490.837 135.921 490.635 135.361 489.958 134.698C489.292 134.039 488.098 133.318 486.619 133.108C485.14 132.9 483.817 133.261 483.022 133.713C482.21 134.167 481.887 134.65 482.003 134.799Z" fill="#263238"/>
<path d="M505.758 140.802C505.546 141.96 506.353 143.094 507.558 143.337C508.761 143.58 509.91 142.84 510.121 141.682C510.332 140.524 509.526 139.388 508.323 139.146C507.119 138.903 505.97 139.644 505.758 140.802Z" fill="#263238"/>
<path d="M505.255 138.656C505.487 138.984 507.34 137.993 509.709 138.346C512.082 138.665 513.645 140.14 513.945 139.888C514.09 139.778 513.89 139.219 513.21 138.556C512.544 137.897 511.35 137.176 509.872 136.966C508.393 136.758 507.07 137.12 506.274 137.572C505.465 138.024 505.14 138.508 505.255 138.656Z" fill="#263238"/>
<path d="M494.07 154.988C494.101 154.855 492.664 154.384 490.319 153.728C489.722 153.577 489.167 153.373 489.125 152.944C489.046 152.486 489.396 151.87 489.792 151.208C490.576 149.826 491.397 148.376 492.259 146.858C495.708 140.655 498.3 135.519 498.049 135.382C497.798 135.245 494.798 140.162 491.349 146.365C490.513 147.897 489.714 149.356 488.953 150.754C488.623 151.409 488.114 152.132 488.291 153.085C488.388 153.561 488.784 153.955 489.157 154.116C489.528 154.291 489.868 154.348 490.165 154.41C492.551 154.892 494.041 155.121 494.07 154.988Z" fill="#263238"/>
<path d="M506.004 129.27C506.144 129.949 508.557 129.99 511.291 130.733C514.04 131.421 516.165 132.564 516.619 132.04C516.824 131.787 516.522 131.123 515.706 130.366C514.898 129.611 513.549 128.808 511.906 128.378C510.262 127.951 508.693 127.992 507.619 128.256C506.537 128.517 505.948 128.949 506.004 129.27Z" fill="#263238"/>
<path d="M483.88 128.061C484.218 128.661 485.934 128.341 487.903 128.603C489.881 128.795 491.479 129.496 491.944 128.989C492.152 128.74 491.969 128.162 491.316 127.545C490.674 126.932 489.536 126.341 488.18 126.184C486.824 126.029 485.582 126.346 484.817 126.798C484.044 127.25 483.734 127.771 483.88 128.061Z" fill="#263238"/>
<path d="M521.805 120.245C521.83 120.272 521.855 120.298 521.88 120.324C524.054 122.625 525.267 125.672 525.244 128.837C525.243 128.948 525.242 129.055 525.241 129.155C525.2 133.646 524.435 138.11 524.438 142.601C524.441 147.092 525.309 151.789 528.116 155.294C529.271 156.736 531.51 157.94 532.824 156.641C533.332 156.138 533.512 155.401 533.669 154.704C536.049 144.193 540.333 135.187 541.941 124.067C542.379 121.04 541.371 117.992 539.169 115.87C537.085 113.861 534.497 111.715 531.732 112.561C528.959 113.409 524.906 117.758 522.6 119.517" fill="#263238"/>
<path d="M529.859 145.848C530.139 145.772 540.925 144.264 539.042 154.768C537.159 165.272 527.002 161.216 527.038 160.911C527.074 160.607 529.859 145.848 529.859 145.848Z" fill="#B78876"/>
<path d="M530.96 157.507C531.012 157.482 531.12 157.668 531.404 157.865C531.681 158.057 532.182 158.245 532.767 158.138C533.949 157.93 535.2 156.335 535.59 154.451C535.788 153.5 535.751 152.554 535.547 151.739C535.364 150.913 534.963 150.287 534.422 150.088C533.889 149.86 533.434 150.123 533.252 150.396C533.059 150.665 533.088 150.886 533.029 150.894C532.995 150.915 532.835 150.678 532.997 150.259C533.078 150.058 533.245 149.833 533.528 149.675C533.817 149.515 534.206 149.477 534.588 149.589C535.388 149.79 535.983 150.666 536.208 151.56C536.476 152.466 536.54 153.533 536.318 154.601C535.871 156.706 534.433 158.492 532.836 158.659C532.063 158.719 531.486 158.386 531.212 158.081C530.934 157.764 530.92 157.519 530.96 157.507Z" fill="#AA6550"/>
<path d="M531.849 114.246C535.065 110.404 528.834 103.299 523.866 100.895C518.898 98.49 511.665 100.024 506.23 100.985C502.801 101.591 499.32 102.627 495.898 101.98C493.603 101.547 491.523 100.385 489.458 99.296C487.392 98.207 485.23 97.155 482.902 96.974C480.574 96.794 478.02 97.673 476.832 99.683C475.644 101.694 476.468 104.807 478.71 105.461C476.024 103.428 471.49 104.919 470.533 108.148C469.576 111.377 472.562 115.098 475.922 114.863C474.588 113.506 472.012 115.048 471.923 116.949C471.834 118.85 473.333 120.463 474.947 121.472C479.065 124.049 484.287 124.184 489.066 123.318C493.846 122.452 498.42 120.682 503.177 119.697C507.934 118.712 515.93 116.866 520.229 119.128C523.394 120.793 525.128 125.154 527.143 124.542C529.09 123.951 530.524 122.213 531.178 120.286C531.831 118.357 531.843 116.28 531.849 114.246Z" fill="#263238"/>
<path d="M552.42 163.016C552.42 163.016 552.633 162.987 552.972 162.778C553.309 162.575 553.774 162.168 554.11 161.479C554.434 160.795 554.642 159.841 554.454 158.764C554.279 157.678 553.576 156.572 552.565 155.676C551.547 154.772 550.223 154.076 548.78 153.471C547.345 152.856 545.77 152.296 544.352 151.332C542.935 150.378 541.813 148.898 541.138 147.16C540.445 145.426 540.166 143.467 540.206 141.477C540.314 137.471 541.422 133.727 541.694 130.199C542.024 126.694 541.507 123.359 540.009 121.069C538.533 118.775 536.473 117.649 535.023 117.317C534.291 117.128 533.699 117.14 533.308 117.147C532.915 117.189 532.713 117.219 532.715 117.237C532.713 117.309 533.555 117.117 534.97 117.518C536.359 117.9 538.311 119.039 539.69 121.27C541.084 123.487 541.555 126.712 541.205 130.156C540.915 133.62 539.788 137.358 539.673 141.467C539.632 143.514 539.921 145.543 540.652 147.354C541.362 149.167 542.566 150.741 544.075 151.738C545.576 152.739 547.181 153.285 548.609 153.879C550.042 154.459 551.33 155.117 552.317 155.961C553.297 156.8 553.972 157.817 554.161 158.82C554.364 159.824 554.199 160.733 553.92 161.392C553.308 162.741 552.356 162.956 552.42 163.016Z" fill="#455A64"/>
<path d="M478.371 105.235C478.377 105.222 478.222 105.141 477.915 104.995C477.763 104.916 477.569 104.833 477.327 104.764C477.09 104.678 476.809 104.599 476.482 104.549C475.214 104.292 473.067 104.498 471.183 106.17L471.181 106.171L471.175 106.178C469.899 107.63 469.067 109.914 469.288 112.439C469.453 114.965 470.833 117.649 473.147 119.567C475.437 121.519 478.557 122.735 481.888 123.084C485.229 123.45 488.742 123.111 492.268 122.447C498.023 121.349 503.246 119.145 507.57 116.536C509.75 115.271 511.814 114.063 513.885 113.256C515.945 112.427 518.004 112.064 519.889 112.029C523.683 111.963 526.652 113.089 528.51 114.066C530.384 115.064 531.258 115.881 531.297 115.827C531.297 115.827 530.476 114.95 528.609 113.883C526.76 112.839 523.762 111.634 519.884 111.652C517.961 111.662 515.836 112.015 513.725 112.844C511.604 113.65 509.509 114.859 507.326 116.11C503.011 118.681 497.861 120.835 492.167 121.923C488.681 122.58 485.206 122.918 481.945 122.57C478.69 122.239 475.674 121.074 473.45 119.207C471.206 117.368 469.873 114.826 469.686 112.405C469.447 109.983 470.212 107.789 471.407 106.377L471.399 106.385C473.153 104.775 475.219 104.505 476.457 104.71C477.731 104.91 478.35 105.293 478.371 105.235Z" fill="#455A64"/>
<path d="M484.224 96.489C484.224 96.489 484.111 97.365 484.593 98.853C485.081 100.315 486.363 102.33 488.732 103.835C489.9 104.593 491.313 105.231 492.924 105.572C494.527 105.919 496.292 105.994 498.118 105.844C501.79 105.568 505.634 104.311 509.664 103.267C513.68 102.222 517.721 101.681 521.199 102.609C524.677 103.5 527.336 105.616 529.038 107.698C530.765 109.799 531.63 111.881 532.041 113.34C532.444 114.812 532.49 115.667 532.555 115.659C532.573 115.657 532.563 115.445 532.527 115.041C532.51 114.633 532.402 114.045 532.241 113.287C531.886 111.791 531.06 109.642 529.33 107.46C527.625 105.299 524.92 103.085 521.323 102.133C517.723 101.145 513.576 101.697 509.533 102.749C505.47 103.804 501.671 105.058 498.076 105.354C496.29 105.515 494.57 105.456 493.013 105.139C491.458 104.829 490.078 104.231 488.933 103.516C486.609 102.095 485.323 100.183 484.787 98.781C484.259 97.355 484.293 96.479 484.224 96.489Z" fill="#455A64"/>
<path d="M489.33 162.852C489.505 163.875 489.686 164.913 490.143 165.845C490.6 166.776 491.382 167.602 492.386 167.862C493.456 168.14 494.632 167.718 495.423 166.946C496.214 166.174 496.654 165.097 496.832 164.005C496.993 163.019 496.79 161.758 495.842 161.44C495.448 161.307 495.017 161.38 494.608 161.454C492.761 161.788 490.915 162.122 489.068 162.455" fill="#AA6550"/>
<path d="M490.303 167.05C490.378 166.902 491.327 167.695 493.058 167.571C493.896 167.51 494.899 167.178 495.644 166.392C496.386 165.617 496.873 164.401 496.75 163.163C496.728 162.856 496.644 162.555 496.555 162.282C496.424 162.013 496.457 162.034 496.233 161.996C496.013 161.986 495.637 162.035 495.337 162.054C495.024 162.078 494.716 162.102 494.415 162.125C493.214 162.215 492.131 162.282 491.22 162.326C489.399 162.413 488.266 162.403 488.254 162.275C488.242 162.147 489.353 161.925 491.158 161.671C492.061 161.543 493.137 161.408 494.334 161.271C494.635 161.237 494.941 161.203 495.253 161.169C495.581 161.143 495.844 161.083 496.28 161.086C496.491 161.093 496.776 161.151 497.01 161.343C497.238 161.533 497.345 161.764 497.419 161.951C497.547 162.318 497.645 162.685 497.676 163.072C497.825 164.617 497.204 166.075 496.252 166.998C495.28 167.941 494.04 168.25 493.078 168.23C492.096 168.219 491.347 167.907 490.899 167.625C490.446 167.336 490.268 167.093 490.303 167.05Z" fill="#263238"/>
<path d="M485.343 183.3C485.343 183.3 495.421 187.123 505.233 184.344C505.233 184.344 497.832 190.548 484.331 188.167L485.343 183.3Z" fill="#AA6550"/>
<path d="M500.72 326.667C500.696 326.694 500.203 326.317 499.336 325.615C498.907 325.258 498.376 324.83 497.728 324.373C497.085 323.911 496.38 323.348 495.534 322.821C494.706 322.268 493.796 321.667 492.772 321.097C491.776 320.481 490.652 319.931 489.484 319.326C487.113 318.189 484.431 317.092 481.526 316.208C478.612 315.352 475.767 314.796 473.161 314.445C471.853 314.309 470.611 314.152 469.44 314.12C468.272 314.035 467.181 314.037 466.185 314.045C465.188 314.021 464.29 314.105 463.499 314.138C462.707 314.164 462.028 314.23 461.474 314.293C460.364 314.403 459.745 314.448 459.74 314.412C459.734 314.377 460.342 314.264 461.45 314.091C462.003 313.997 462.682 313.9 463.477 313.847C464.271 313.786 465.174 313.676 466.178 313.676C467.181 313.645 468.281 313.621 469.46 313.688C470.642 313.702 471.896 313.844 473.219 313.968C475.854 314.296 478.731 314.844 481.676 315.708C484.611 316.601 487.315 317.723 489.698 318.895C490.871 319.517 491.998 320.087 492.993 320.724C494.016 321.315 494.922 321.939 495.743 322.516C496.582 323.067 497.277 323.654 497.907 324.141C498.542 324.622 499.057 325.076 499.467 325.458C500.298 326.213 500.744 326.641 500.72 326.667Z" fill="#FAFAFA"/>
<path d="M441.946 275.309L450.151 239.778C453.29 226.417 457.007 213.577 463.256 212.056V216.191L460.583 317.704C460.583 317.704 443.865 336.741 422.548 326.159C415.889 322.853 403.738 299.604 403.738 299.604C403.738 299.604 375.509 249.156 376.678 246.867C377.847 244.578 395.128 222.318 396.892 221.211L441.946 275.309Z" fill="#B565A7"/>
<path d="M526.329 202.042C542.627 205.165 560.983 214.674 569.425 239.025C572.509 247.921 594.954 313.526 594.954 313.526L556.679 312.731L550.446 299.205L553.487 321.146L556.082 352.452L459.443 354.077L460.12 306.924L461.047 213.125C461.047 213.125 462.134 211.702 478.796 202.509C489.147 196.796 526.329 202.042 526.329 202.042Z" fill="#B565A7"/>
<g opacity="0.2">
<path d="M535.971 264.742C537.557 284.543 539.385 290.659 540.971 310.46C541.121 312.33 541.28 314.238 542.014 315.964C542.749 317.69 544.174 319.234 546.012 319.609C548.827 320.182 552.485 322.217 553.28 319.456L550.608 300.385C550.608 300.385 549.979 296.798 547.97 292.336C542.041 279.172 539.846 278.4 535.971 264.742Z" fill="black"/>
</g>
<path d="M478.796 212.655L479.118 210.597L482.207 190.84C482.393 189.648 483.469 188.802 484.671 188.903L522.721 192.079C525.112 192.279 526.896 194.367 526.719 196.76L525.871 208.241L513.99 223.742L496.882 226.411" fill="#B565A7"/>
<path d="M459.694 249.808C459.838 249.808 459.954 265.287 459.954 284.376C459.954 303.472 459.837 318.948 459.694 318.948C459.55 318.948 459.434 303.473 459.434 284.376C459.434 265.287 459.55 249.808 459.694 249.808Z" fill="#263238"/>
<path d="M557.491 315.893C557.483 315.897 557.441 315.82 557.368 315.669C557.285 315.488 557.181 315.265 557.054 314.99C556.772 314.351 556.385 313.472 555.894 312.36C554.891 310.027 553.469 306.72 551.719 302.65C548.225 294.397 543.426 283.06 538.125 270.538C535.491 264.259 532.982 258.279 530.698 252.833C529.485 250.144 528.678 247.387 528.24 244.796C527.782 242.198 527.596 239.742 527.577 237.502C527.53 233.019 528.201 229.395 529.1 227.051C529.211 226.758 529.307 226.477 529.414 226.221C529.537 225.973 529.652 225.74 529.76 225.522C529.966 225.085 530.158 224.725 530.359 224.46C530.531 224.21 530.671 224.007 530.784 223.842C530.882 223.705 530.935 223.637 530.943 223.643C531.014 223.685 530.101 224.766 529.291 227.12C528.461 229.458 527.853 233.052 527.946 237.498C528.065 241.917 528.67 247.296 531.141 252.649C533.437 258.09 535.958 264.065 538.606 270.338C543.852 282.884 548.601 294.241 552.059 302.509C553.745 306.606 555.115 309.935 556.082 312.283C556.534 313.411 556.892 314.303 557.152 314.951C557.26 315.234 557.347 315.464 557.418 315.65C557.474 315.807 557.499 315.89 557.491 315.893Z" fill="#263238"/>
<path d="M538.192 205.488C538.192 205.488 537.839 205.854 537.081 206.452C536.324 207.051 535.118 207.834 533.435 208.577C531.749 209.307 529.579 209.96 527.006 210.38C524.432 210.805 521.483 211.083 518.208 211.247C514.933 211.394 511.347 211.328 507.509 211.404C503.679 211.493 499.559 211.738 495.41 212.876C491.296 213.984 487.055 216.034 484.031 219.588C482.548 221.359 481.445 223.512 480.871 225.83C480.285 228.143 480.266 230.648 480.986 232.982C481.369 234.141 481.946 235.218 482.661 236.181C483.392 237.126 484.325 237.909 485.363 238.456C486.397 239.01 487.572 239.282 488.702 239.16C489.835 239.049 490.897 238.488 491.635 237.655C493.135 235.948 493.418 233.483 493.114 231.329C492.956 230.235 492.638 229.173 492.163 228.205C491.678 227.241 491.049 226.35 490.385 225.522C487.649 222.221 483.813 220.313 480.133 219.447C476.418 218.568 472.773 218.744 469.638 219.566C466.483 220.351 463.804 221.656 461.602 223.001C459.389 224.344 457.649 225.756 456.28 226.959C454.907 228.162 453.935 229.197 453.26 229.881C452.946 230.217 452.7 230.482 452.514 230.682C452.344 230.86 452.253 230.949 452.246 230.943C452.246 230.943 453.452 229.301 456.144 226.808C457.498 225.576 459.231 224.132 461.448 222.753C463.654 221.372 466.351 220.028 469.546 219.208C472.719 218.351 476.441 218.147 480.23 219.025C483.986 219.89 487.921 221.82 490.753 225.214C491.442 226.069 492.086 226.973 492.6 227.987C493.102 229.005 493.436 230.113 493.605 231.257C493.771 232.4 493.773 233.586 493.544 234.753C493.315 235.913 492.84 237.073 492.013 237.996C491.195 238.921 490.013 239.546 488.759 239.67C487.506 239.807 486.227 239.504 485.123 238.914C484.012 238.329 483.028 237.502 482.25 236.499C481.495 235.484 480.89 234.354 480.489 233.139C479.735 230.694 479.761 228.092 480.367 225.703C480.962 223.307 482.101 221.088 483.639 219.258C486.766 215.595 491.107 213.524 495.283 212.412C499.497 211.27 503.657 211.042 507.499 210.971C511.35 210.914 514.93 211.001 518.191 210.878C521.447 210.739 524.401 210.486 526.957 210.092C529.517 209.702 531.672 209.084 533.354 208.389C535.031 207.682 536.244 206.934 537.016 206.366C537.416 206.099 537.685 205.848 537.886 205.705C538.083 205.556 538.186 205.482 538.192 205.488Z" fill="#FAFAFA"/>
<path d="M571.26 247.107C571.261 247.125 571.115 247.149 570.834 247.178C570.554 247.201 570.139 247.254 569.604 247.266C568.534 247.32 566.981 247.301 565.072 247.159C563.162 247.02 560.901 246.729 558.402 246.384C555.902 246.045 553.158 245.661 550.265 245.507C547.377 245.37 544.611 245.589 542.167 246.116C539.728 246.66 537.605 247.481 535.993 248.466C532.721 250.423 531.54 252.621 531.433 252.51C531.418 252.5 531.492 252.372 531.646 252.136C531.812 251.909 532.01 251.534 532.372 251.136C533.033 250.288 534.172 249.19 535.801 248.152C537.425 247.104 539.583 246.228 542.062 245.648C544.548 245.085 547.358 244.848 550.29 244.987C553.216 245.143 555.972 245.544 558.469 245.909C560.965 246.28 563.21 246.608 565.104 246.792C566.997 246.981 568.536 247.055 569.601 247.063C570.666 247.075 571.257 247.065 571.26 247.107Z" fill="#FAFAFA"/>
<path d="M547.227 291.937C547.215 292.063 545.22 291.223 541.485 291.449C539.628 291.541 537.373 291.933 534.823 292.64C532.267 293.331 529.421 294.342 526.222 295.326C523.037 296.303 519.415 297.237 515.444 297.202C511.493 297.206 507.248 296.419 503.162 294.652C499.065 292.928 495.133 290.183 491.962 286.511C490.368 284.688 488.983 282.606 487.995 280.289C487.022 277.978 486.483 275.378 486.852 272.78C487.235 270.211 488.446 267.754 490.402 266.091C491.377 265.268 492.519 264.634 493.768 264.368C495.007 264.097 496.295 264.144 497.488 264.483C498.677 264.82 499.807 265.392 500.697 266.239C501.585 267.076 502.257 268.164 502.501 269.353C502.765 270.529 502.645 271.77 502.23 272.864C501.816 273.964 501.135 274.919 500.357 275.732C498.788 277.365 496.835 278.457 494.866 279.22C493.874 279.585 492.861 279.883 491.853 280.045C491.35 280.138 490.854 280.246 490.358 280.323C489.858 280.381 489.363 280.438 488.872 280.495C484.933 280.927 481.22 280.494 477.959 279.731C474.691 278.951 471.866 277.766 469.532 276.489C467.191 275.214 465.328 273.851 463.924 272.612C463.573 272.304 463.24 272.013 462.927 271.738C462.635 271.444 462.362 271.168 462.107 270.912C461.591 270.408 461.177 269.961 460.87 269.574C460.569 269.212 460.332 268.927 460.154 268.713C459.995 268.517 459.917 268.414 459.924 268.409C459.931 268.403 460.023 268.495 460.195 268.679C460.382 268.884 460.632 269.157 460.949 269.504C461.267 269.879 461.691 270.313 462.216 270.802C462.475 271.052 462.752 271.32 463.048 271.607C463.364 271.874 463.7 272.158 464.055 272.458C465.47 273.665 467.337 274.994 469.671 276.233C471.998 277.476 474.806 278.624 478.044 279.373C481.275 280.106 484.946 280.512 488.828 280.066C489.312 280.008 489.8 279.949 490.292 279.89C490.781 279.811 491.269 279.702 491.764 279.609C492.762 279.444 493.734 279.152 494.703 278.792C496.617 278.043 498.516 276.968 500.01 275.4C500.752 274.62 501.389 273.715 501.771 272.693C502.153 271.676 502.26 270.543 502.015 269.456C501.558 267.263 499.594 265.558 497.354 264.974C496.235 264.656 495.028 264.617 493.88 264.869C492.731 265.112 491.653 265.71 490.738 266.484C488.896 268.049 487.732 270.398 487.368 272.853C487.016 275.325 487.528 277.84 488.473 280.086C489.432 282.339 490.786 284.383 492.35 286.177C495.459 289.788 499.321 292.5 503.352 294.21C507.372 295.963 511.551 296.754 515.445 296.769C519.356 296.822 522.932 295.924 526.117 294.972C529.31 294.015 532.172 293.025 534.749 292.357C537.32 291.673 539.6 291.307 541.476 291.245C542.413 291.172 543.248 291.266 543.967 291.288C544.682 291.392 545.292 291.443 545.773 291.554C546.231 291.668 546.591 291.758 546.862 291.825C547.106 291.892 547.23 291.928 547.227 291.937Z" fill="#FAFAFA"/>
<path d="M459.357 281.275C459.273 281.31 458.814 280.217 457.843 278.588C456.877 276.958 455.325 274.826 453.214 272.852C451.095 270.884 448.86 269.486 447.166 268.636C445.472 267.782 444.35 267.401 444.379 267.314C444.39 267.28 444.679 267.347 445.195 267.498C445.714 267.641 446.445 267.913 447.324 268.304C449.084 269.08 451.404 270.46 453.568 272.471C455.724 274.488 457.264 276.705 458.162 278.406C458.614 279.256 458.936 279.966 459.115 280.474C459.304 280.978 459.391 281.261 459.357 281.275Z" fill="#FAFAFA"/>
<path d="M420.555 324.073C420.547 324.077 420.494 323.993 420.398 323.824C420.291 323.629 420.155 323.38 419.985 323.071C419.628 322.405 419.109 321.42 418.469 320.135C417.209 317.563 415.352 313.817 413.891 308.874C413.192 306.4 412.597 303.619 412.457 300.583C412.366 299.068 412.452 297.488 412.649 295.88C412.884 294.275 413.279 292.65 413.832 291.029C415.002 287.829 416.85 284.603 419.699 282.146C422.49 279.706 426.343 277.998 430.373 278.402C432.354 278.615 434.335 279.422 435.633 280.959C436.914 282.461 437.53 284.519 437.114 286.426C436.905 287.373 436.396 288.251 435.699 288.898C435.006 289.555 434.143 289.99 433.256 290.23C431.47 290.732 429.567 290.407 428.034 289.598C426.482 288.798 425.228 287.616 424.214 286.347C423.2 285.071 422.412 283.687 421.814 282.284C420.64 279.462 420.267 276.567 420.478 273.987C420.686 271.396 421.489 269.14 422.462 267.338C423.432 265.526 424.572 264.147 425.596 263.136C426.628 262.128 427.533 261.461 428.172 261.054C428.484 260.84 428.744 260.71 428.91 260.611C429.079 260.516 429.168 260.472 429.172 260.479C429.184 260.499 428.846 260.708 428.231 261.141C427.616 261.573 426.738 262.26 425.74 263.279C424.75 264.3 423.65 265.679 422.72 267.474C421.787 269.259 421.026 271.479 420.846 274.015C420.663 276.541 421.05 279.369 422.212 282.115C422.804 283.48 423.58 284.825 424.572 286.06C425.562 287.289 426.779 288.419 428.252 289.17C429.712 289.931 431.469 290.218 433.125 289.75C434.771 289.329 436.254 288.052 436.617 286.313C436.992 284.599 436.426 282.677 435.239 281.295C434.057 279.891 432.198 279.119 430.318 278.92C426.481 278.532 422.743 280.168 420.035 282.531C417.264 284.908 415.445 288.057 414.285 291.19C413.737 292.777 413.341 294.37 413.103 295.944C412.902 297.522 412.808 299.066 412.889 300.563C413.008 303.557 413.575 306.313 414.246 308.773C415.65 313.69 417.45 317.452 418.652 320.046C419.259 321.312 419.737 322.309 420.079 323.023C420.23 323.342 420.351 323.598 420.446 323.8C420.526 323.977 420.563 324.069 420.555 324.073Z" fill="#FAFAFA"/>
<path d="M408.212 235.787C408.23 235.785 408.261 235.928 408.304 236.204C408.34 236.48 408.417 236.887 408.45 237.416C408.551 238.471 408.596 240.013 408.442 241.907C408.158 245.675 406.821 250.949 403.506 255.77C400.189 260.591 395.741 263.728 392.325 265.34C390.611 266.162 389.155 266.671 388.134 266.954C387.628 267.112 387.221 267.185 386.95 267.251C386.677 267.31 386.532 267.332 386.528 267.315C386.517 267.274 387.077 267.104 388.072 266.762C389.068 266.422 390.489 265.865 392.16 265.012C395.494 263.334 399.822 260.206 403.077 255.476C406.329 250.746 407.701 245.586 408.075 241.873C408.274 240.006 408.286 238.48 408.247 237.429C408.211 236.375 408.169 235.791 408.212 235.787Z" fill="#FAFAFA"/>
<path d="M580.013 279.148C580.08 279.235 578.119 280.047 576.152 282.674C575.157 283.96 574.159 285.627 573.018 287.475C571.875 289.324 570.453 291.276 568.745 293.125C565.318 296.836 561.443 299.376 558.498 300.829C557.029 301.575 555.78 302.047 554.917 302.362C554.043 302.649 553.556 302.791 553.544 302.757C553.532 302.723 553.997 302.516 554.844 302.173C555.68 301.803 556.896 301.283 558.329 300.503C561.203 298.98 564.985 296.429 568.363 292.772C570.049 290.946 571.456 289.041 572.613 287.219C573.77 285.395 574.813 283.726 575.864 282.446C576.913 281.164 577.945 280.28 578.731 279.789C579.125 279.544 579.438 279.371 579.665 279.278C579.886 279.176 580.005 279.132 580.013 279.148Z" fill="#FAFAFA"/>
<path d="M525.969 203.202C525.972 203.22 525.814 203.26 525.51 203.32C525.146 203.385 524.707 203.463 524.18 203.556C523.023 203.747 521.345 204.002 519.266 204.282C515.109 204.844 509.348 205.497 502.964 205.964C499.775 206.197 496.719 206.406 493.929 206.289C491.142 206.187 488.638 205.731 486.637 205.042C484.628 204.369 483.136 203.486 482.185 202.793C481.707 202.446 481.359 202.148 481.133 201.936C480.908 201.723 480.796 201.605 480.808 201.591C480.838 201.556 481.326 201.987 482.3 202.625C483.274 203.258 484.764 204.075 486.752 204.692C488.732 205.324 491.192 205.734 493.946 205.809C496.7 205.899 499.736 205.677 502.925 205.444C509.299 204.977 515.056 204.383 519.22 203.916C521.239 203.686 522.904 203.497 524.151 203.355C525.317 203.225 525.964 203.166 525.969 203.202Z" fill="#263238"/>
<path d="M594.462 320.593C597.628 337.057 585.11 352.368 568.346 352.537L492.602 351.696L494.592 327.169L559.534 317.483" fill="#B78876"/>
<path d="M499.278 328.287C498.931 328.403 494.556 326.442 490.637 324.628C486.477 322.703 481.913 321.817 477.335 322.049L459.279 322.967C459.279 322.967 460.394 325.946 462.309 327.005C464.224 328.064 475.449 328.291 475.449 328.291L474.874 328.883C472.508 331.319 469.281 332.731 465.886 332.816L464.161 332.86C462.881 332.759 461.617 332.512 460.392 332.123L455.939 330.323C454.591 329.715 453.167 329.814 452.581 331.171C452.051 332.399 452.44 334.09 456.116 335.942C458.171 336.977 465.792 339.612 465.792 339.612C465.792 339.612 465.903 341.719 466.235 342.828C466.568 343.937 469.562 345.046 469.562 345.046C469.562 345.046 471.447 348.927 472.223 349.815C472.571 350.213 475.282 351.056 478.167 351.866C482.825 353.173 487.758 353.142 492.394 351.758L499.275 349.704V328.744" fill="#B78876"/>
<path d="M474.579 341.98C474.57 342.096 472.429 341.986 469.884 341.311C467.336 340.646 465.418 339.689 465.467 339.583C465.519 339.46 467.489 340.219 469.999 340.873C472.505 341.539 474.594 341.848 474.579 341.98Z" fill="#AA6550"/>
<path d="M473.944 346.209C473.945 346.328 472.779 346.402 471.405 346.025C470.028 345.655 469.06 345 469.121 344.899C469.183 344.783 470.206 345.236 471.523 345.589C472.838 345.95 473.949 346.078 473.944 346.209Z" fill="#AA6550"/>
<path d="M477.242 326.663C477.282 326.705 476.765 327.289 475.847 328.153C474.926 329.009 473.591 330.153 471.913 331.131C470.233 332.109 468.541 332.658 467.302 332.911C466.06 333.163 465.275 333.182 465.269 333.131C465.227 332.966 468.398 332.675 471.686 330.74C473.321 329.786 474.667 328.701 475.636 327.912C476.601 327.116 477.196 326.614 477.242 326.663Z" fill="#AA6550"/>
<path d="M501.116 324.979L499.277 352.715L570.629 352.741C575.472 352.743 580.225 351.426 584.376 348.933C594.013 343.145 598.988 331.939 596.818 320.909C596.084 316.401 594.369 311.133 592.214 305.524L556.342 311.426L557.489 315.892L501.116 324.979Z" fill="#B565A7"/>
<path d="M574.016 313.576C574.019 313.594 573.771 313.65 573.296 313.742C572.77 313.837 572.077 313.961 571.213 314.117C569.343 314.429 566.735 314.865 563.537 315.399C556.997 316.44 548.056 317.862 538.178 319.434C528.287 320.948 519.337 322.317 512.791 323.319C509.582 323.785 506.965 324.165 505.089 324.437C504.218 324.552 503.521 324.645 502.991 324.715C502.511 324.773 502.257 324.795 502.254 324.777C502.251 324.759 502.5 324.703 502.975 324.611C503.501 324.516 504.194 324.392 505.058 324.236C506.928 323.924 509.536 323.488 512.735 322.954C519.275 321.913 528.216 320.491 538.096 318.919C547.982 317.406 556.931 316.037 563.477 315.035C566.687 314.569 569.304 314.189 571.18 313.917C572.051 313.802 572.749 313.709 573.279 313.639C573.759 313.581 574.013 313.559 574.016 313.576Z" fill="#263238"/>
<path d="M537.509 352.763C537.384 352.74 537.935 350.759 538.005 347.494C538.003 346.678 538.021 345.785 537.901 344.833C537.851 343.875 537.654 342.87 537.464 341.811C537 339.711 536.256 337.453 535.144 335.23C534.022 333.01 532.628 331.078 531.244 329.431C530.886 329.03 530.535 328.639 530.194 328.257C529.848 327.882 529.476 327.552 529.136 327.214C528.466 326.525 527.76 325.975 527.139 325.444C524.59 323.398 522.778 322.448 522.837 322.349C522.854 322.318 523.307 322.549 524.113 322.996C524.517 323.218 525.014 323.488 525.549 323.868C526.082 324.248 526.737 324.619 527.367 325.155C528.011 325.673 528.739 326.214 529.432 326.899C529.783 327.235 530.166 327.563 530.524 327.938C530.876 328.321 531.237 328.714 531.607 329.116C533.034 330.772 534.466 332.731 535.609 334.994C536.742 337.259 537.488 339.57 537.934 341.715C538.115 342.797 538.299 343.822 538.332 344.799C538.434 345.77 538.396 346.677 538.374 347.505C538.387 348.334 538.235 349.074 538.174 349.726C538.115 350.38 537.986 350.932 537.88 351.381C537.674 352.28 537.544 352.771 537.509 352.763Z" fill="#FAFAFA"/>
<path d="M580.938 350.673C580.938 350.673 579.739 350.723 577.628 350.275C576.584 350.021 575.303 349.662 573.927 348.972C572.559 348.282 571.077 347.295 569.758 345.866C568.448 344.443 567.286 342.581 566.69 340.366C566.406 339.261 566.18 338.09 566.162 336.873C566.08 335.659 566.188 334.396 566.459 333.136C566.735 331.878 567.202 330.615 567.936 329.467C568.66 328.319 569.683 327.297 570.932 326.613C572.171 325.926 573.632 325.529 575.117 325.653C576.597 325.754 578.071 326.49 579.035 327.679C580.009 328.844 580.557 330.388 580.349 331.896C580.149 333.421 579.109 334.675 577.894 335.408C575.399 336.893 572.509 336.878 570.008 336.491C564.902 335.642 560.921 332.592 558.844 329.346C556.702 326.083 556.168 322.862 556.102 320.733C556.039 318.572 556.386 317.412 556.386 317.412C556.453 317.418 556.18 318.592 556.305 320.723C556.431 322.824 557.017 325.977 559.151 329.141C561.217 332.285 565.121 335.218 570.086 336.017C572.519 336.386 575.318 336.365 577.626 334.974C578.748 334.293 579.664 333.162 579.837 331.823C580.021 330.491 579.53 329.079 578.636 328.013C577.747 326.925 576.439 326.269 575.074 326.169C573.711 326.053 572.345 326.417 571.18 327.059C568.796 328.347 567.453 330.842 566.928 333.24C566.661 334.453 566.548 335.675 566.62 336.857C566.629 338.041 566.841 339.178 567.107 340.252C567.667 342.404 568.774 344.219 570.031 345.619C571.297 347.025 572.73 348.012 574.06 348.714C575.398 349.416 576.651 349.799 577.677 350.08C579.748 350.582 580.945 350.603 580.938 350.673Z" fill="#FAFAFA"/>
<path d="M297.91 48.4719H119.219C97.472 48.4719 79.842 66.1019 79.842 87.8489V151.529H41.287L79.843 190.085V233.37C79.843 255.117 97.473 272.747 119.22 272.747H297.91C319.657 272.747 337.287 255.117 337.287 233.37V87.8479C337.287 66.1009 319.658 48.4719 297.91 48.4719Z" fill="#B565A7"/>
<path d="M224.912 55.2039C223.781 58.1269 225.722 61.3199 227.898 63.5759C230.074 65.8319 232.711 67.9799 233.394 71.0389C233.968 73.6059 233.017 76.2799 233.248 78.8999C233.485 81.5819 234.928 83.9869 235.749 86.5519C237.234 91.1919 236.638 96.2629 235.312 100.951C234.224 104.797 232.612 108.578 229.952 111.561C227.292 114.544 223.466 116.653 219.47 116.579C218.338 116.558 217.113 116.314 216.372 115.458C215.731 114.718 215.587 113.682 215.477 112.708C213.185 92.5969 213.183 72.2259 215.469 52.1139" fill="#263238"/>
<path d="M222.804 120.094C231.502 119.714 239.539 128.043 238.85 136.722C247.658 138.866 253.879 148.562 252.158 157.462C251.59 160.4 250.284 163.197 250.103 166.184C249.906 169.443 251.062 172.609 251.691 175.812C252.828 181.6 252.215 187.721 249.953 193.169C248.579 196.479 246.023 199.897 242.441 199.998C240.009 200.066 237.758 198.493 236.405 196.47C235.053 194.447 234.453 192.024 233.979 189.638C232.428 181.826 231.961 173.794 229.818 166.123C227.675 158.452 223.511 150.892 216.571 146.983C212.738 144.824 208.137 143.804 205.093 140.628C201.905 137.301 201.172 132.024 202.838 127.728C204.505 123.431 208.311 120.152 212.642 118.578" fill="#263238"/>
<path d="M162.582 62.3679C162.475 58.6509 165.913 55.7789 169.374 54.4169C172.834 53.0559 176.681 52.5419 179.765 50.4659C182.496 48.6279 184.332 45.7599 186.644 43.4169C192.316 37.6669 201.172 35.2829 208.964 37.4089C216.756 39.5349 223.174 46.0849 225.14 53.9189C226.469 59.2129 225.562 65.4709 221.389 68.9889C216.546 73.0719 209.366 72.1649 203.16 70.8949C196.954 69.6249 189.931 68.3719 184.75 72.0159C181.626 74.2139 179.834 77.7889 177.924 81.0969C176.014 84.4049 173.617 87.7839 170.005 89.0269C166.393 90.2709 161.488 88.1229 161.348 84.3049" fill="#263238"/>
<path d="M177.24 63.131C174.029 63.478 171.618 66.223 171.689 69.452L175.4 153.455C175.555 163.376 190.058 168.95 200.679 168.703C211.406 168.453 211.752 163.193 211.885 153.754C212.109 137.985 212.09 132.066 212.096 132.155C212.096 132.155 225.645 129.875 228.415 112.184C229.792 103.386 229.318 88.967 228.55 77.182C227.858 66.574 220.8 53.573 210.231 54.714L177.24 63.131Z" fill="#FFBE9D"/>
<path d="M225.5 88.286C225.545 89.484 224.568 90.509 223.318 90.579C222.071 90.649 221.021 89.737 220.976 88.539C220.931 87.342 221.908 86.315 223.155 86.245C224.405 86.175 225.455 87.089 225.5 88.286Z" fill="#263238"/>
<path d="M225.439 84.6909C225.158 84.9869 223.437 83.7199 220.997 83.7309C218.559 83.7079 216.771 84.9679 216.505 84.6689C216.375 84.5369 216.66 84.0029 217.439 83.4329C218.205 82.8659 219.514 82.3129 221.034 82.3159C222.554 82.3209 223.834 82.8779 224.57 83.4489C225.322 84.0239 225.577 84.5579 225.439 84.6909Z" fill="#263238"/>
<path d="M202.05 88.286C202.095 89.484 201.118 90.509 199.868 90.579C198.621 90.649 197.571 89.737 197.526 88.539C197.481 87.342 198.458 86.315 199.706 86.245C200.955 86.175 202.005 87.089 202.05 88.286Z" fill="#263238"/>
<path d="M201.45 85.199C201.169 85.495 199.446 84.228 197.007 84.24C194.569 84.217 192.78 85.476 192.515 85.178C192.385 85.046 192.667 84.512 193.449 83.942C194.215 83.375 195.523 82.822 197.044 82.825C198.564 82.83 199.844 83.387 200.581 83.958C201.331 84.532 201.587 85.067 201.45 85.199Z" fill="#263238"/>
<path d="M210.347 103.279C210.336 103.14 211.852 102.875 214.31 102.555C214.933 102.489 215.523 102.364 215.627 101.939C215.773 101.488 215.51 100.817 215.207 100.093C214.618 98.5859 214.001 97.0069 213.353 95.3519C210.779 88.6009 208.914 83.0489 209.186 82.9479C209.459 82.8469 211.767 88.2359 214.341 94.9869C214.961 96.6519 215.554 98.2389 216.117 99.7569C216.355 100.464 216.762 101.267 216.446 102.202C216.279 102.668 215.823 103.007 215.423 103.115C215.024 103.238 214.673 103.245 214.365 103.264C211.892 103.404 210.357 103.418 210.347 103.279Z" fill="#263238"/>
<path d="M212.097 132.156C212.097 132.156 200.201 132.949 188.399 125.891C188.399 125.891 194.172 138.026 211.868 136.333L212.097 132.156Z" fill="#EB996E"/>
<path d="M209.328 109.163C208.448 108.005 206.909 107.371 205.382 107.539C204.323 107.655 203.254 108.168 202.613 109.032C201.972 109.896 201.839 111.12 202.426 111.941C203.087 112.866 204.463 113.077 205.627 112.743C206.791 112.409 207.792 111.64 208.742 110.874C209.005 110.662 209.273 110.441 209.437 110.151C209.601 109.861 209.635 109.482 209.431 109.242" fill="#EB996E"/>
<path d="M203.169 104.983C203.566 104.959 203.577 107.608 205.849 109.483C208.116 111.365 210.94 111.061 210.961 111.431C210.998 111.597 210.333 111.947 209.142 111.982C207.973 112.025 206.265 111.653 204.875 110.506C203.489 109.356 202.891 107.819 202.798 106.732C202.693 105.625 202.988 104.969 203.169 104.983Z" fill="#263238"/>
<path d="M202.539 80.924C202.3 81.588 199.862 81.279 197 81.63C194.13 81.924 191.823 82.767 191.442 82.173C191.272 81.889 191.673 81.264 192.605 80.619C193.529 79.975 195.004 79.363 196.723 79.167C198.442 78.975 200.016 79.245 201.06 79.667C202.111 80.089 202.641 80.609 202.539 80.924Z" fill="#263238"/>
<path d="M224.526 77.63C224.098 78.185 222.415 77.614 220.394 77.591C218.373 77.498 216.661 77.972 216.266 77.393C216.093 77.112 216.361 76.556 217.108 76.03C217.844 75.506 219.076 75.075 220.466 75.114C221.855 75.155 223.06 75.655 223.764 76.221C224.479 76.788 224.715 77.359 224.526 77.63Z" fill="#263238"/>
<path d="M164.892 121.314C169.755 122.294 175.052 120.8 178.686 117.422C182.32 114.044 184.197 108.87 183.574 103.948C183.024 99.6049 180.682 95.1849 182.188 91.0749C184.179 85.6399 191.798 83.9679 193.82 78.5439C194.995 75.3919 193.94 71.7039 195.272 68.6149C196.524 65.7099 199.581 64.0369 202.556 62.9609C205.531 61.8849 208.721 61.1429 211.218 59.2009C213.715 57.2589 215.273 53.5959 213.662 50.8729C200.469 52.4539 187.466 55.6139 175.018 60.2629C172.132 61.3409 169.1 62.6359 167.394 65.2019C165.588 67.9159 165.675 71.4239 165.827 74.6799C166.568 90.5589 164.151 105.434 164.892 121.314Z" fill="#263238"/>
<path d="M160.676 116.33C160.673 116.338 160.576 116.306 160.387 116.235C160.193 116.175 159.923 116.045 159.582 115.843C158.909 115.441 158.01 114.61 157.376 113.235C156.745 111.878 156.373 109.977 156.8 107.864C157.224 105.751 158.443 103.585 160.013 101.441C161.564 99.2799 163.527 97.0929 164.866 94.2999C165.526 92.9139 166.016 91.3679 166.037 89.7419C166.07 88.1139 165.55 86.4819 164.996 84.8219C164.433 83.1709 163.891 81.3749 163.952 79.4759C164.029 77.5949 164.574 75.6999 165.566 74.0179C166.547 72.3369 167.953 70.8409 169.7 69.8179C171.437 68.7429 173.52 68.3669 175.526 68.1559C177.541 67.9289 179.551 67.8119 181.36 67.1369C183.184 66.4919 184.591 65.0989 185.459 63.4449C186.352 61.7959 186.858 59.9839 187.402 58.2299C187.93 56.4669 188.567 54.7469 189.396 53.1799C191.024 50.0329 193.325 47.3979 196.026 45.7279C198.725 44.0549 201.735 43.3729 204.422 43.5509C207.118 43.7249 209.464 44.7989 211.027 46.2609C212.605 47.7109 213.537 49.3699 213.983 50.7969C214.444 52.2299 214.468 53.4199 214.393 54.1989C214.324 54.9829 214.185 55.3769 214.185 55.3769C214.151 55.3709 214.254 54.9689 214.288 54.1919C214.328 53.4209 214.271 52.2539 213.79 50.8609C213.325 49.4729 212.386 47.8679 210.832 46.4779C209.293 45.0769 207.019 44.0669 204.398 43.9189C201.789 43.7689 198.864 44.4549 196.254 46.0949C193.64 47.7329 191.405 50.3109 189.821 53.4009C189.012 54.9439 188.398 56.6179 187.876 58.3759C187.336 60.1259 186.833 61.9659 185.905 63.6889C185.44 64.5459 184.857 65.3649 184.118 66.0499C183.384 66.7399 182.489 67.2639 181.541 67.6219C179.628 68.3359 177.58 68.4459 175.582 68.6739C173.582 68.8859 171.61 69.2459 169.961 70.2639C168.298 71.2359 166.947 72.6659 166.005 74.2749C165.051 75.8859 164.527 77.6989 164.447 79.4919C164.384 81.2929 164.891 83.0119 165.45 84.6719C165.996 86.3309 166.535 88.0239 166.493 89.7479C166.463 91.4619 165.94 93.0669 165.254 94.4859C163.859 97.3429 161.863 99.5269 160.309 101.657C158.732 103.77 157.521 105.878 157.083 107.923C156.643 109.959 156.973 111.818 157.559 113.15C158.147 114.499 158.996 115.33 159.637 115.753C160.284 116.189 160.693 116.291 160.676 116.33Z" fill="#455A64"/>
<path d="M212.075 39.221C212.086 39.192 212.336 39.25 212.761 39.428C213.187 39.604 213.779 39.928 214.434 40.44C215.735 41.437 217.261 43.38 217.652 45.944C218.027 48.511 217.134 50.815 216.181 52.148C215.705 52.829 215.233 53.311 214.877 53.604C214.522 53.899 214.3 54.027 214.281 54.002C214.215 53.93 215.033 53.309 215.873 51.947C216.711 50.615 217.489 48.423 217.138 46.02C216.773 43.621 215.389 41.75 214.199 40.721C212.997 39.665 212.032 39.309 212.075 39.221Z" fill="#455A64"/>
<path d="M251.251 160.585C251.193 160.562 251.562 159.946 251.756 158.714C251.963 157.499 251.865 155.621 250.891 153.622C249.944 151.616 247.955 149.699 245.308 148.421C243.988 147.775 242.522 147.265 240.963 146.872C239.402 146.47 237.75 146.136 236.095 145.603C234.449 145.076 232.837 144.35 231.63 143.163C230.376 142.01 229.78 140.388 229.524 138.916C229.251 137.431 229.161 136.019 228.831 134.761C228.513 133.504 227.919 132.431 227.221 131.577C225.812 129.855 224.111 129.046 222.943 128.666C221.748 128.309 221.04 128.307 221.045 128.253C221.046 128.235 221.22 128.232 221.554 128.242C221.888 128.257 222.379 128.321 222.999 128.471C224.213 128.799 225.997 129.578 227.504 131.341C228.249 132.213 228.897 133.336 229.248 134.65C229.608 135.955 229.716 137.384 229.995 138.825C230.263 140.259 230.818 141.729 231.986 142.797C233.109 143.895 234.644 144.592 236.256 145.108C237.874 145.629 239.517 145.966 241.092 146.379C242.673 146.784 244.173 147.316 245.523 147.992C248.231 149.325 250.285 151.355 251.225 153.463C252.194 155.559 252.233 157.51 251.958 158.749C251.829 159.375 251.648 159.84 251.507 160.142C251.354 160.442 251.267 160.594 251.251 160.585Z" fill="#455A64"/>
<path d="M174.332 129.269C165.375 126.872 157.635 118.096 154.495 109.372C151.355 100.647 151.353 91.112 152.158 81.875C152.742 75.179 153.915 68.1 158.361 63.06C165.064 55.462 172.316 51.583 182.443 51.899" fill="#263238"/>
<path d="M226.631 148.771L218.281 146.673C220.242 145.118 220.79 143.121 219.938 140.849C218.941 138.19 216.379 136.437 213.558 136.119L175.473 131.82C174.11 131.666 172.782 132.422 172.279 133.699C170.588 137.989 170.53 141.523 172.106 144.3L171.925 144.298L164.59 145.758L152.183 255.499L233.66 251.69L226.631 148.771Z" fill="#F5F5F5"/>
<path d="M214.649 147.092C214.654 147.128 214.11 147.23 213.12 147.385C212.131 147.546 210.692 147.725 208.909 147.896C205.343 148.243 200.383 148.466 194.916 148.198C189.448 147.922 184.534 147.208 181.02 146.509C179.262 146.161 177.848 145.841 176.88 145.583C175.911 145.33 175.379 145.175 175.388 145.14C175.396 145.105 175.944 145.194 176.925 145.386C177.905 145.583 179.327 145.848 181.087 146.148C184.606 146.752 189.501 147.404 194.943 147.679C200.383 147.945 205.318 147.782 208.88 147.53C210.661 147.406 212.102 147.284 213.097 147.185C214.091 147.091 214.644 147.056 214.649 147.092Z" fill="#263238"/>
<path d="M177.819 164.529C177.699 164.449 178.977 162.327 180.671 159.789C182.366 157.25 183.837 155.258 183.956 155.337C184.076 155.417 182.799 157.539 181.104 160.078C179.41 162.615 177.938 164.609 177.819 164.529Z" fill="#E0E0E0"/>
<path d="M204.083 166.389C203.971 166.479 202.351 164.65 200.465 162.304C198.578 159.957 197.14 157.982 197.252 157.892C197.364 157.802 198.984 159.631 200.87 161.978C202.757 164.324 204.195 166.299 204.083 166.389Z" fill="#E0E0E0"/>
<path d="M191.883 180.335C191.741 180.36 191.19 177.916 190.653 174.877C190.115 171.836 189.794 169.352 189.935 169.327C190.076 169.302 190.627 171.746 191.165 174.786C191.703 177.826 192.025 180.31 191.883 180.335Z" fill="#E0E0E0"/>
<path d="M211.932 181.202C212.033 181.304 209.962 183.508 207.307 186.123C204.651 188.739 202.417 190.776 202.316 190.673C202.215 190.571 204.286 188.368 206.942 185.752C209.596 183.136 211.831 181.099 211.932 181.202Z" fill="#E0E0E0"/>
<path d="M185.044 199.9C184.979 200.011 182.498 198.503 180.066 195.911C177.619 193.332 176.258 190.767 176.373 190.709C176.507 190.624 178.043 193.023 180.445 195.553C182.831 198.098 185.137 199.771 185.044 199.9Z" fill="#E0E0E0"/>
<path d="M193.681 214.337C193.726 214.487 191.399 215.224 188.761 216.625C186.113 218.011 184.192 219.515 184.093 219.393C184.003 219.298 185.812 217.582 188.518 216.164C191.215 214.733 193.654 214.209 193.681 214.337Z" fill="#E0E0E0"/>
<path d="M207.735 215.274C207.681 215.318 207.066 214.67 206.143 213.563C205.219 212.457 203.993 210.887 202.714 209.098C201.436 207.307 200.349 205.638 199.602 204.405C198.855 203.172 198.441 202.381 198.5 202.344C198.563 202.305 199.086 203.026 199.91 204.204C200.85 205.542 201.937 207.088 203.137 208.796C204.362 210.485 205.472 212.014 206.433 213.337C207.28 214.498 207.792 215.228 207.735 215.274Z" fill="#E0E0E0"/>
<path d="M209.138 227.589C209.169 227.726 206.49 228.437 203.122 228.991C199.753 229.55 196.988 229.736 196.974 229.597C196.958 229.45 199.684 229.033 203.038 228.477C206.39 227.927 209.106 227.445 209.138 227.589Z" fill="#E0E0E0"/>
<path d="M186.392 145.542C186.322 145.486 186.804 144.938 187.213 143.88C187.631 142.833 187.893 141.25 187.647 139.537C187.399 137.821 186.798 136.335 186.357 135.272C185.908 134.208 185.615 133.548 185.683 133.513C185.743 133.482 186.15 134.078 186.691 135.116C187.222 136.151 187.901 137.659 188.163 139.464C188.424 141.272 188.084 142.958 187.551 144.026C187.025 145.109 186.426 145.583 186.392 145.542Z" fill="#E0E0E0"/>
<path d="M201.61 137.325C201.721 137.251 202.656 138.628 203.111 140.601C203.579 142.571 203.353 144.22 203.22 144.203C203.066 144.198 203.054 142.605 202.604 140.72C202.171 138.831 201.474 137.398 201.61 137.325Z" fill="#E0E0E0"/>
<path d="M270.256 215.511L308.164 148.941L312.731 137.394C312.731 137.394 324.545 111.989 325.369 109.403C326.322 106.415 327.99 106.157 329.067 106.583C330.746 107.247 331.284 109.749 330.546 112.337C330.291 113.232 325.697 127.186 325.697 127.186C325.697 127.186 326.707 126.233 329.616 124.278C332.525 122.322 337.862 122.383 342.796 124.14C347.731 125.897 348.957 126.826 348.364 128.774C348.126 129.557 347.488 130.042 346.783 130.343C345.631 130.835 344.317 130.827 343.132 130.423C335.191 127.717 331.673 131.296 331.673 131.296L331.075 132.807C331.075 132.807 337.041 130.896 340.438 133.598C340.992 134.039 341.385 134.532 341.675 135.044C343.79 135.745 345.502 137.572 346.024 139.741C346.567 141.998 345.805 144.522 344.103 146.101C343.29 146.855 342.059 147.405 341.091 146.863C340.58 146.578 340.261 146.05 339.953 145.552C339.791 145.291 339.616 145.027 339.41 144.798L337.144 148.795C337.144 148.795 331.573 157.503 329.578 161.567L303.49 231.088C299.873 240.727 289.055 245.526 279.482 241.74C269.071 237.624 264.715 225.241 270.256 215.511Z" fill="#FFBE9D"/>
<path d="M310.771 148.715C312.108 149.586 313.956 148.994 315.163 147.95C316.37 146.906 317.188 145.483 318.317 144.355C321.693 140.981 327.343 140.664 330.554 137.132C331.002 136.64 331.399 135.892 331.013 135.35C330.655 134.848 329.903 134.914 329.298 135.034C324.128 136.057 318.959 137.081 313.789 138.105" fill="#FFBE9D"/>
<path d="M313.79 138.104C313.778 138.043 314.364 137.867 315.433 137.6C316.503 137.333 318.056 136.976 319.979 136.554C321.983 136.128 324.259 135.644 326.743 135.116C327.383 134.984 328.035 134.85 328.701 134.713C329.331 134.633 330.119 134.248 331.07 134.792C331.531 135.086 331.706 135.742 331.576 136.2C331.467 136.666 331.234 137.022 330.969 137.342C330.435 137.92 329.869 138.442 329.222 138.885C326.639 140.67 323.809 141.405 321.553 142.589C320.416 143.163 319.406 143.822 318.609 144.597C317.811 145.369 317.183 146.249 316.52 147.001C315.256 148.58 313.571 149.357 312.411 149.307C311.221 149.284 310.736 148.725 310.774 148.715C310.81 148.631 311.339 149.044 312.396 148.956C313.454 148.88 314.875 148.148 316.033 146.59C316.643 145.842 317.24 144.931 318.083 144.066C318.926 143.2 319.997 142.47 321.171 141.852C323.503 140.588 326.32 139.81 328.702 138.149C329.297 137.744 329.825 137.252 330.286 136.761C330.72 136.268 330.873 135.676 330.56 135.512C330.247 135.28 329.534 135.42 328.87 135.558C328.203 135.685 327.548 135.809 326.906 135.931C324.408 136.389 322.119 136.81 320.104 137.179C318.165 137.521 316.593 137.783 315.503 137.944C314.41 138.105 313.802 138.165 313.79 138.104Z" fill="#EB996E"/>
<path d="M330.865 132.82C330.968 132.88 331.176 131.583 332.645 130.422C333.366 129.857 334.421 129.459 335.642 129.437C336.865 129.398 338.206 129.69 339.595 130.103C340.987 130.51 342.35 130.925 343.654 131.023C344.95 131.118 346.152 130.955 347.061 130.497C347.991 130.047 348.43 129.223 348.512 128.682C348.602 128.128 348.516 127.828 348.494 127.83C348.437 127.828 348.441 128.132 348.292 128.626C348.144 129.113 347.725 129.769 346.883 130.126C346.056 130.49 344.92 130.608 343.702 130.489C342.476 130.369 341.162 129.956 339.756 129.544C338.352 129.128 336.934 128.829 335.619 128.902C334.304 128.953 333.134 129.442 332.385 130.102C331.622 130.754 331.229 131.482 331.035 131.991C330.846 132.507 330.833 132.814 330.865 132.82Z" fill="#EB996E"/>
<path d="M330.817 111.334C330.736 111.314 330.408 112.38 329.885 114.102C329.295 116.016 328.591 118.297 327.813 120.819C326.997 123.329 326.259 125.6 325.64 127.505C325.076 129.214 324.731 130.274 324.808 130.304C324.88 130.333 325.362 129.323 326.027 127.645C326.694 125.968 327.535 123.62 328.368 120.994C329.198 118.369 329.862 115.965 330.282 114.209C330.705 112.455 330.892 111.352 330.817 111.334Z" fill="#EB996E"/>
<path d="M333.012 136.984C333.02 137.028 333.347 136.981 333.925 136.929C334.476 136.89 335.407 136.84 336.107 137.515C336.448 137.839 336.579 138.347 336.459 138.909C336.357 139.469 336.05 140.037 335.748 140.675C335.453 141.298 335.137 142.108 335.378 142.971C335.625 143.806 336.316 144.47 337.154 144.76C338.013 145.059 338.932 144.892 339.646 144.513C340.366 144.125 340.944 143.578 341.303 142.899C341.94 141.594 342.216 140.358 342.394 139.302C342.554 138.246 342.545 137.365 342.421 136.772C342.295 136.177 342.092 135.894 342.07 135.909C342.021 135.931 342.145 136.232 342.197 136.803C342.247 137.375 342.195 138.214 341.989 139.229C341.771 140.231 341.444 141.459 340.831 142.644C340.231 143.725 338.729 144.677 337.344 144.209C336.668 143.978 336.112 143.433 335.925 142.811C335.737 142.183 335.956 141.511 336.236 140.896C336.511 140.276 336.833 139.656 336.934 138.988C337.066 138.337 336.854 137.598 336.391 137.217C335.469 136.434 334.443 136.606 333.893 136.704C333.309 136.829 333.006 136.949 333.012 136.984Z" fill="#EB996E"/>
<path d="M339.554 144.015C339.529 144.002 339.357 144.274 339.378 144.83C339.401 145.364 339.68 146.215 340.541 146.786C341.384 147.343 342.729 147.447 343.906 146.821C345.084 146.205 345.997 144.988 346.452 143.578C346.907 142.16 346.859 140.68 346.453 139.461C346.054 138.231 345.315 137.292 344.599 136.66C343.876 136.022 343.168 135.678 342.67 135.498C342.168 135.321 341.873 135.292 341.864 135.325C341.817 135.429 343.007 135.688 344.318 136.961C344.957 137.593 345.604 138.489 345.942 139.622C346.288 140.747 346.315 142.104 345.899 143.399C345.485 144.688 344.662 145.793 343.653 146.348C342.652 146.913 341.492 146.864 340.755 146.433C340.006 145.999 339.687 145.277 339.604 144.803C339.516 144.313 339.603 144.026 339.554 144.015Z" fill="#EB996E"/>
<path d="M326.928 150.278C326.948 150.229 326.477 149.966 325.586 149.868C324.711 149.77 323.377 149.897 322.11 150.697L322.536 150.984C322.663 150.378 322.765 149.713 322.824 149.021C323.167 145.16 321.936 142.182 321.811 142.26C321.637 142.299 322.579 145.256 322.244 148.971C322.187 149.641 322.097 150.285 321.989 150.874L321.87 151.526L322.415 151.161C323.533 150.413 324.741 150.217 325.569 150.215C326.409 150.214 326.907 150.353 326.928 150.278Z" fill="#EB996E"/>
<path d="M334.817 126.558C334.665 126.581 334.883 127.757 335.943 128.676C336.995 129.605 338.19 129.666 338.192 129.512C338.227 129.346 337.237 129.053 336.326 128.239C335.4 127.444 334.977 126.502 334.817 126.558Z" fill="#EB996E"/>
<path d="M216.474 270.751L256.117 271.14L249.448 242.371L251.676 247.798C255.885 258.051 265.871 264.747 276.954 264.747C289.491 264.747 298.156 255.419 303.461 244.059C315.863 217.5 327.815 174.73 327.815 174.73L303.636 153.491C286.143 186.585 269.699 215.33 269.699 215.33C269.699 215.33 264.951 200.897 261.284 188.024C257.618 175.154 257.64 168.379 252.005 161.957C243.342 152.083 230.992 149.626 219.525 146.673L219.097 200.111L216.474 270.751Z" fill="#B565A7"/>
<path d="M171.13 230.947L243.326 245.01L246.846 272.746L136.145 272.744C123.306 272.916 113.1 262.02 114.109 249.22C115.703 229.005 117.433 204.097 118.747 193.572C119.772 185.363 123.046 176.874 126.926 169.567C132.512 159.045 151.138 145.532 167.469 144.866L170.561 213.639" fill="#B565A7"/>
<g opacity="0.4">
<path d="M216.474 270.751L256.117 271.14L249.448 242.371L251.676 247.798C255.885 258.051 265.871 264.747 276.954 264.747C289.491 264.747 298.156 255.419 303.461 244.059C315.863 217.5 327.815 174.73 327.815 174.73L303.636 153.491C286.143 186.585 269.699 215.33 269.699 215.33C269.699 215.33 264.951 200.897 261.284 188.024C257.618 175.154 257.64 168.379 252.005 161.957C243.342 152.083 230.992 149.626 219.525 146.673L219.097 200.111L216.474 270.751Z" fill="black"/>
<path d="M171.13 230.947L236.251 242.893C238.965 243.391 241.109 245.48 241.677 248.18L246.845 272.746L136.144 272.744C123.305 272.916 113.099 262.02 114.108 249.22C115.702 229.005 117.432 204.097 118.746 193.572C119.771 185.363 123.045 176.874 126.925 169.567C132.511 159.045 151.137 145.532 167.468 144.866L170.56 213.639" fill="black"/>
</g>
<path d="M157.383 228.938C157.365 228.937 157.354 228.71 157.35 228.277C157.352 227.79 157.354 227.163 157.357 226.385C157.367 224.679 157.38 222.319 157.397 219.429C157.405 213.557 157.294 205.444 156.838 196.498C156.613 192.023 156.32 187.765 156.01 183.895C155.718 180.024 155.381 176.544 154.559 173.738C153.773 170.925 152.503 168.873 151.376 167.703C150.253 166.522 149.431 166.089 149.471 166.033C149.471 166.033 150.329 166.402 151.521 167.562C152.715 168.709 154.069 170.787 154.912 173.633C155.792 176.469 156.17 179.99 156.488 183.854C156.825 187.726 157.133 191.99 157.358 196.471C157.815 205.43 157.867 213.556 157.765 219.432C157.715 222.371 157.634 224.748 157.559 226.39C157.516 227.167 157.481 227.794 157.454 228.28C157.425 228.712 157.401 228.939 157.383 228.938Z" fill="#263238"/>
<path d="M241.929 246.969C241.873 247.032 241.207 245.935 239.3 244.841C238.352 244.299 237.11 243.787 235.612 243.368C234.116 242.943 232.368 242.612 230.439 242.217C222.725 240.645 212.072 238.455 200.266 236.25C188.457 234.04 177.728 232.264 169.955 231.016C166.104 230.398 162.972 229.895 160.75 229.539C159.7 229.363 158.866 229.224 158.249 229.121C157.678 229.02 157.38 228.958 157.382 228.94C157.385 228.922 157.688 228.949 158.264 229.017C158.884 229.096 159.723 229.204 160.779 229.339C162.962 229.629 166.117 230.073 170.011 230.653C177.8 231.808 188.546 233.527 200.361 235.739C212.173 237.945 222.818 240.193 230.514 241.857C232.435 242.275 234.186 242.632 235.693 243.089C237.2 243.54 238.454 244.088 239.403 244.667C240.355 245.242 240.997 245.835 241.383 246.27C241.59 246.476 241.71 246.667 241.804 246.781C241.894 246.9 241.936 246.963 241.929 246.969Z" fill="#263238"/>
<path d="M157.597 228.938C157.62 229.032 156.266 229.344 154.207 230.181C153.175 230.593 151.986 231.175 150.714 231.904C149.455 232.654 148.12 233.562 146.819 234.644C145.529 235.74 144.404 236.898 143.448 238.009C142.511 239.137 141.733 240.208 141.149 241.154C139.969 243.038 139.428 244.317 139.34 244.279C139.307 244.265 139.419 243.937 139.653 243.353C139.876 242.765 140.276 241.943 140.834 240.965C141.385 239.981 142.145 238.869 143.079 237.704C144.031 236.555 145.169 235.363 146.484 234.247C147.81 233.144 149.18 232.23 150.475 231.489C151.783 230.77 153.01 230.213 154.074 229.84C155.134 229.459 156.012 229.207 156.63 229.088C157.247 228.957 157.589 228.903 157.597 228.938Z" fill="#263238"/>
<path d="M250.834 246.22C250.816 246.223 250.765 245.986 250.685 245.533C250.602 245.027 250.493 244.368 250.357 243.547C250.08 241.821 249.716 239.318 249.295 236.221C248.451 230.028 247.43 221.451 246.574 211.951C245.722 202.448 245.197 193.825 244.922 187.581C244.784 184.459 244.696 181.931 244.661 180.184C244.648 179.352 244.638 178.684 244.63 178.172C244.629 177.712 244.636 177.47 244.654 177.469C244.672 177.468 244.699 177.709 244.734 178.168C244.767 178.679 244.81 179.346 244.863 180.176C244.967 181.98 245.112 184.489 245.289 187.562C245.657 193.798 246.24 202.409 247.092 211.905C247.947 221.397 248.91 229.973 249.66 236.175C250.034 239.231 250.338 241.725 250.558 243.519C250.653 244.345 250.73 245.009 250.789 245.518C250.835 245.976 250.852 246.218 250.834 246.22Z" fill="#263238"/>
<path d="M274.773 235.465C274.744 235.486 274.539 235.252 274.192 234.807C273.839 234.367 273.379 233.69 272.862 232.823C271.823 231.093 270.649 228.523 269.939 225.51C269.238 222.494 269.15 219.669 269.314 217.658C269.393 216.651 269.504 215.841 269.626 215.29C269.739 214.737 269.819 214.436 269.854 214.442C269.943 214.457 269.745 215.684 269.682 217.677C269.614 219.667 269.759 222.431 270.446 225.392C271.143 228.348 272.24 230.89 273.183 232.643C274.125 234.4 274.847 235.412 274.773 235.465Z" fill="#263238"/>
<path d="M157.09 191.783C157.092 191.801 156.964 191.828 156.716 191.862C156.468 191.887 156.103 191.961 155.628 191.967C154.68 192.029 153.294 191.967 151.62 191.654C149.944 191.348 148.005 190.73 145.933 189.872C143.86 189.014 141.661 187.908 139.358 186.764C137.057 185.626 134.813 184.652 132.703 183.977C130.593 183.31 128.625 182.922 126.956 182.854C123.595 182.684 121.617 183.593 121.592 183.459C121.586 183.442 121.704 183.386 121.937 183.296C122.173 183.217 122.509 183.052 122.973 182.948C123.884 182.675 125.263 182.456 126.969 182.486C128.677 182.508 130.694 182.866 132.846 183.519C134.997 184.18 137.273 185.152 139.589 186.297C141.897 187.444 144.078 188.556 146.12 189.43C148.16 190.303 150.057 190.947 151.695 191.294C154.979 192.02 157.09 191.661 157.09 191.783Z" fill="#FAFAFA"/>
<path d="M169.452 189.346C169.476 189.488 166.842 190.055 163.569 190.612C160.295 191.17 157.622 191.507 157.598 191.365C157.574 191.223 160.208 190.656 163.482 190.099C166.754 189.541 169.427 189.204 169.452 189.346Z" fill="#FAFAFA"/>
<path d="M156.643 210.814C156.655 210.848 156.137 211.069 155.189 211.442C154.238 211.808 152.852 212.31 151.118 212.871C147.654 213.998 142.782 215.323 137.301 216.288C134.56 216.768 131.931 217.117 129.532 217.357C127.139 217.611 124.946 217.733 123.115 217.532C121.28 217.355 119.845 216.841 118.947 216.343C118.496 216.096 118.164 215.872 117.957 215.698C117.746 215.529 117.642 215.434 117.653 215.419C117.683 215.377 118.129 215.729 119.038 216.161C119.945 216.592 121.35 217.037 123.149 217.164C124.945 217.314 127.098 217.158 129.482 216.879C131.868 216.615 134.483 216.253 137.211 215.775C142.666 214.814 147.528 213.553 151.01 212.519C152.752 212.005 154.153 211.557 155.122 211.25C156.089 210.937 156.631 210.78 156.643 210.814Z" fill="#FAFAFA"/>
<path d="M169.171 216.079C169.173 216.223 166.735 216.38 163.725 216.43C160.714 216.48 158.273 216.404 158.27 216.26C158.268 216.116 160.705 215.959 163.716 215.909C166.726 215.859 169.168 215.935 169.171 216.079Z" fill="#FAFAFA"/>
<path d="M117.712 261.635C117.695 261.63 117.731 261.448 117.818 261.104C117.925 260.704 118.058 260.208 118.22 259.604C118.313 259.272 118.414 258.911 118.523 258.522C118.648 258.131 118.817 257.718 118.982 257.267C119.331 256.374 119.667 255.329 120.22 254.253C120.48 253.705 120.752 253.133 121.035 252.539C121.324 251.946 121.694 251.366 122.04 250.745C122.709 249.487 123.599 248.252 124.498 246.93C126.402 244.361 128.737 241.709 131.51 239.265C134.316 236.857 137.266 234.911 140.075 233.382C141.51 232.674 142.856 231.965 144.195 231.476C144.858 231.219 145.484 230.933 146.111 230.729C146.739 230.532 147.343 230.342 147.921 230.16C149.064 229.761 150.145 229.574 151.078 229.351C151.547 229.25 151.98 229.14 152.384 229.07C152.785 229.016 153.156 228.966 153.498 228.92C154.119 228.843 154.629 228.781 155.04 228.73C155.393 228.692 155.579 228.681 155.581 228.699C155.583 228.717 155.401 228.763 155.054 228.834C154.649 228.91 154.146 229.005 153.533 229.12C153.196 229.179 152.829 229.244 152.433 229.314C152.034 229.398 151.607 229.522 151.144 229.635C150.224 229.882 149.157 230.093 148.032 230.511C147.462 230.701 146.867 230.9 146.248 231.107C145.63 231.319 145.014 231.612 144.361 231.875C143.042 232.376 141.717 233.093 140.303 233.804C137.537 235.341 134.628 237.276 131.853 239.658C129.111 242.075 126.792 244.687 124.887 247.213C123.987 248.515 123.093 249.727 122.414 250.964C122.063 251.574 121.688 252.144 121.392 252.727C121.102 253.311 120.822 253.873 120.555 254.411C119.984 255.468 119.628 256.495 119.256 257.372C119.08 257.814 118.898 258.22 118.759 258.604C118.635 258.987 118.52 259.341 118.415 259.666C118.216 260.257 118.053 260.742 117.921 261.133C117.8 261.466 117.729 261.64 117.712 261.635Z" fill="#FAFAFA"/>
<path d="M167.865 230.92C167.971 231.007 165.674 232.418 163.757 236.081C162.805 237.891 161.981 240.21 161.459 242.869C160.928 245.528 160.718 248.519 160.512 251.661C160.306 254.804 160.071 257.82 159.488 260.514C158.914 263.206 158.016 265.549 156.982 267.36C155.944 269.172 154.806 270.449 153.933 271.215C153.492 271.596 153.14 271.877 152.881 272.042C152.629 272.215 152.493 272.298 152.482 272.284C152.376 272.195 154.7 270.823 156.659 267.182C157.632 265.383 158.478 263.072 159.017 260.416C159.566 257.76 159.785 254.769 159.991 251.627C160.197 248.485 160.422 245.471 160.987 242.774C161.543 240.08 162.418 237.729 163.431 235.906C164.449 234.082 165.568 232.791 166.429 232.011C166.864 231.624 167.212 231.337 167.468 231.168C167.719 230.991 167.854 230.905 167.865 230.92Z" fill="#FAFAFA"/>
<path d="M184.93 272.913C184.786 272.908 184.952 264.291 185.3 253.669C185.648 243.043 186.047 234.436 186.191 234.44C186.335 234.445 186.169 243.06 185.821 253.686C185.473 264.309 185.074 272.918 184.93 272.913Z" fill="#FAFAFA"/>
<path d="M212.072 271.432C212.038 271.442 211.881 270.998 211.628 270.184C211.495 269.778 211.348 269.277 211.221 268.684C211.089 268.093 210.908 267.424 210.8 266.667C210.519 265.164 210.333 263.349 210.269 261.327C210.237 259.305 210.346 257.077 210.689 254.766C211.055 252.457 211.618 250.299 212.255 248.379C212.922 246.469 213.644 244.793 214.362 243.444C214.692 242.754 215.064 242.17 215.368 241.646C215.667 241.118 215.957 240.684 216.206 240.337C216.692 239.635 216.974 239.259 217.004 239.279C217.09 239.335 216.013 240.886 214.692 243.609C214.023 244.966 213.345 246.637 212.711 248.531C212.107 250.435 211.565 252.567 211.205 254.845C210.867 257.125 210.745 259.322 210.75 261.319C210.787 263.316 210.933 265.113 211.165 266.609C211.608 269.602 212.171 271.404 212.072 271.432Z" fill="#FAFAFA"/>
<path d="M165.981 160.906C165.943 160.991 164.397 160.296 161.804 159.458C159.215 158.617 155.544 157.716 151.405 157.345C147.264 156.985 143.492 157.228 140.795 157.602C138.095 157.972 136.451 158.385 136.429 158.295C136.42 158.26 136.823 158.13 137.563 157.925C138.3 157.711 139.386 157.471 140.74 157.238C143.444 156.767 147.261 156.462 151.451 156.826C155.638 157.202 159.342 158.171 161.922 159.109C163.214 159.575 164.241 160.002 164.929 160.342C165.622 160.675 165.996 160.874 165.981 160.906Z" fill="#FAFAFA"/>
<path d="M244.975 202.951C244.97 203.025 243.553 202.981 241.265 202.893C238.978 202.804 235.819 202.683 232.329 202.595C228.838 202.509 225.677 202.474 223.388 202.448C221.099 202.422 219.682 202.396 219.68 202.322C219.679 202.286 220.032 202.245 220.672 202.201C221.312 202.156 222.238 202.114 223.384 202.08C225.675 202.011 228.843 201.988 232.341 202.074C235.838 202.162 239.001 202.342 241.285 202.525C242.427 202.616 243.351 202.704 243.988 202.78C244.627 202.857 244.978 202.915 244.975 202.951Z" fill="#FAFAFA"/>
<path d="M264.721 199.214C264.751 199.302 263.466 199.733 261.518 200.694C259.57 201.649 256.99 203.215 254.514 205.414C252.045 207.622 250.194 210.006 249.022 211.832C247.845 213.658 247.269 214.884 247.186 214.845C247.153 214.83 247.271 214.512 247.514 213.948C247.748 213.38 248.154 212.587 248.709 211.638C249.814 209.74 251.654 207.272 254.167 205.025C256.686 202.787 259.348 201.241 261.36 200.36C262.366 199.916 263.201 199.605 263.792 199.437C264.38 199.261 264.71 199.18 264.721 199.214Z" fill="#FAFAFA"/>
<path d="M254.983 167.155C254.99 167.285 252.947 166.838 249.9 167.867C248.382 168.351 246.661 169.173 244.774 170.147C242.886 171.109 240.805 172.24 238.434 172.995C233.693 174.543 229.067 174.417 225.903 173.812C224.309 173.514 223.057 173.118 222.207 172.812C221.363 172.488 220.911 172.275 220.923 172.245C220.956 172.145 222.803 172.941 225.964 173.449C229.101 173.953 233.63 174.015 238.273 172.499C240.589 171.762 242.65 170.661 244.557 169.718C246.46 168.765 248.225 167.964 249.791 167.515C251.35 167.046 252.683 166.93 253.589 166.972C254.044 166.969 254.392 167.038 254.628 167.071C254.864 167.109 254.985 167.138 254.983 167.155Z" fill="#FAFAFA"/>
<path d="M249.994 234.183C250.008 234.216 249.593 234.408 248.83 234.726C248.45 234.89 247.98 235.078 247.42 235.257C246.862 235.441 246.234 235.676 245.515 235.856C244.094 236.272 242.364 236.638 240.424 236.916C238.481 237.165 236.325 237.309 234.062 237.252C231.799 237.174 229.655 236.901 227.729 236.536C225.809 236.143 224.104 235.674 222.71 235.173C222.004 234.95 221.39 234.678 220.845 234.461C220.297 234.248 219.839 234.033 219.47 233.846C218.727 233.482 218.325 233.266 218.341 233.234C218.382 233.143 220.029 233.937 222.826 234.824C224.221 235.276 225.917 235.702 227.819 236.065C229.726 236.4 231.843 236.655 234.077 236.732C236.311 236.788 238.439 236.661 240.363 236.441C242.283 236.192 244.001 235.869 245.421 235.501C248.266 234.783 249.958 234.09 249.994 234.183Z" fill="#FAFAFA"/>
<path d="M272.969 263.776C272.957 263.789 272.824 263.679 272.581 263.457C272.347 263.228 271.967 262.919 271.553 262.45C270.684 261.551 269.54 260.13 268.389 258.206C266.052 254.386 264.061 248.314 263.933 241.46C263.809 234.605 265.149 228.511 266.201 224.195C266.738 222.031 267.224 220.294 267.573 219.098C267.74 218.55 267.878 218.097 267.991 217.725C268.093 217.413 268.154 217.251 268.171 217.256C268.188 217.261 268.161 217.431 268.092 217.752C268.005 218.13 267.898 218.591 267.769 219.149C267.465 220.438 267.056 222.171 266.559 224.278C265.601 228.606 264.33 234.672 264.454 241.447C264.582 248.216 266.484 254.204 268.708 258.02C269.803 259.942 270.889 261.38 271.704 262.313C272.515 263.252 273.002 263.742 272.969 263.776Z" fill="#FAFAFA"/>
<path d="M309.363 229.821C309.286 229.938 307.64 228.134 304.074 226.847C302.308 226.199 300.126 225.658 297.67 225.183C295.221 224.687 292.486 224.236 289.704 223.347C284.121 221.567 279.739 218.379 277.032 215.727C275.666 214.397 274.678 213.21 274.039 212.361C273.713 211.941 273.491 211.591 273.332 211.361C273.177 211.128 273.103 211.001 273.118 210.99C273.151 210.966 273.519 211.424 274.197 212.234C274.881 213.039 275.903 214.179 277.286 215.46C280.03 218.016 284.373 221.102 289.865 222.852C292.598 223.726 295.314 224.19 297.768 224.713C300.225 225.214 302.429 225.8 304.207 226.503C305.987 227.203 307.318 228.03 308.148 228.7C308.585 229.007 308.866 229.319 309.074 229.505C309.276 229.7 309.375 229.808 309.363 229.821Z" fill="#FAFAFA"/>
<path d="M320.799 196.449C320.773 196.474 320.392 196.141 319.728 195.52C319.4 195.205 318.995 194.826 318.499 194.413C318.007 193.996 317.47 193.495 316.821 193.007C315.565 191.982 313.99 190.861 312.177 189.721C310.348 188.608 308.271 187.492 306.003 186.509C303.725 185.547 301.484 184.815 299.415 184.26C297.339 183.735 295.44 183.37 293.831 183.169C293.03 183.037 292.297 182.994 291.656 182.926C291.015 182.852 290.46 182.821 290.006 182.801C289.099 182.75 288.595 182.704 288.595 182.668C288.595 182.632 289.098 182.609 290.012 182.598C290.469 182.587 291.028 182.589 291.676 182.635C292.324 182.676 293.065 182.693 293.875 182.803C295.503 182.959 297.428 183.29 299.533 183.794C301.63 184.329 303.904 185.056 306.207 186.029C308.501 187.023 310.596 188.166 312.431 189.313C314.249 190.487 315.818 191.651 317.055 192.721C317.694 193.232 318.218 193.756 318.695 194.196C319.176 194.633 319.563 195.036 319.87 195.374C320.495 196.044 320.826 196.424 320.799 196.449Z" fill="#FAFAFA"/>
<path d="M233.303 150.547C233.329 150.609 232.614 150.983 231.405 151.462C230.196 151.942 228.486 152.509 226.55 152.962C224.614 153.412 222.828 153.66 221.532 153.764C220.235 153.869 219.429 153.85 219.425 153.783C219.413 153.626 222.604 153.358 226.432 152.456C230.263 151.571 233.244 150.4 233.303 150.547Z" fill="#FAFAFA"/>
<path d="M268.769 291.393C269.326 293.328 267.709 295.197 265.714 294.923C264.634 294.775 263.739 294.009 263.426 292.964L262.583 289.816L262.706 289.858C263.234 291.746 261.416 293.479 259.465 293.29C258.148 293.258 257.016 291.376 256.645 290.371C254.469 290.628 252.405 289.35 251.564 287.93L245.694 278.772L234.825 270.821L241.398 247.331L264.795 262.474C265.713 263.187 265.852 263.489 267.314 264.842L282.414 278.727C280.699 279.756 279.249 279.676 276.875 278.727C274.501 277.778 264.067 270.742 264.067 270.742L268.769 291.393Z" fill="#FFBE9D"/>
<path d="M248.758 272.068C248.78 272.039 249.027 272.187 249.455 272.477C249.697 272.646 249.952 272.824 250.227 273.016C250.523 273.219 250.885 273.492 251.192 273.858C251.506 274.222 251.791 274.679 251.986 275.214C252.169 275.736 252.359 276.282 252.558 276.85C252.957 278.024 253.386 279.286 253.836 280.611C254.729 283.285 255.51 285.714 256.051 287.479C256.591 289.245 256.891 290.347 256.822 290.368C256.753 290.389 256.329 289.326 255.7 287.59C255.07 285.854 254.235 283.446 253.343 280.776C252.907 279.448 252.492 278.184 252.105 277.006C251.922 276.433 251.747 275.883 251.579 275.356C251.418 274.865 251.178 274.439 250.907 274.091C250.636 273.735 250.339 273.481 250.049 273.246C249.794 273.029 249.556 272.827 249.331 272.637C248.941 272.298 248.736 272.096 248.758 272.068Z" fill="#EB996E"/>
<path d="M262.833 290.317C262.798 290.325 262.682 289.979 262.498 289.348C262.289 288.603 262.038 287.711 261.746 286.67C261.115 284.409 260.257 281.281 259.169 277.875C258.073 274.479 256.936 271.419 255.573 269.541C254.902 268.6 254.202 267.967 253.655 267.629C253.109 267.286 252.755 267.186 252.772 267.135C252.777 267.118 252.867 267.132 253.038 267.177C253.213 267.211 253.453 267.308 253.757 267.454C254.36 267.752 255.136 268.375 255.869 269.322C257.36 271.218 258.563 274.306 259.665 277.716C260.758 281.14 261.562 284.291 262.103 286.579C262.371 287.724 262.571 288.655 262.696 289.301C262.819 289.947 262.868 290.309 262.833 290.317Z" fill="#EB996E"/>
<path d="M268.868 291.737C268.833 291.747 268.69 291.373 268.46 290.688C268.207 289.892 267.898 288.919 267.534 287.773C266.774 285.305 265.758 281.885 264.668 278.1C263.613 274.373 262.659 271.003 261.923 268.403C261.537 267.191 260.898 266.362 260.322 265.959C259.753 265.544 259.339 265.49 259.353 265.442C259.355 265.428 259.459 265.421 259.649 265.463C259.838 265.505 260.118 265.593 260.435 265.791C261.083 266.161 261.826 267.035 262.269 268.279C263.093 270.752 264.062 274.169 265.168 277.957C266.259 281.743 267.218 285.178 267.888 287.673C268.19 288.838 268.446 289.826 268.655 290.634C268.825 291.334 268.902 291.727 268.868 291.737Z" fill="#EB996E"/>
<path d="M410.969 74.89C410.969 76.823 412.536 78.391 414.47 78.391C416.403 78.391 417.971 76.824 417.971 74.89C417.971 72.956 416.404 71.389 414.47 71.389C412.536 71.39 410.969 72.957 410.969 74.89Z" fill="#455A64"/>
<path d="M400.461 78.39C402.394 78.39 403.961 76.823 403.961 74.89C403.961 72.957 402.394 71.39 400.461 71.39C398.528 71.39 396.961 72.957 396.961 74.89C396.961 76.823 398.528 78.39 400.461 78.39Z" fill="#455A64"/>
<path d="M382.988 73.14C382.021 74.814 382.595 76.955 384.269 77.922C385.943 78.889 388.084 78.315 389.051 76.641C390.018 74.967 389.444 72.826 387.77 71.859C386.095 70.892 383.955 71.466 382.988 73.14Z" fill="#455A64"/>
<path d="M400.244 34.004C400.244 33.988 400.005 33.984 399.536 33.992C399.022 34.007 398.334 34.026 397.456 34.051C396.999 34.072 396.485 34.072 395.923 34.119C395.36 34.198 394.749 34.284 394.088 34.377C393.422 34.473 392.708 34.575 391.947 34.685C391.196 34.871 390.399 35.069 389.555 35.278C386.194 36.143 382.122 37.619 377.96 40.334C373.8 43.004 369.477 46.823 365.968 52.013C362.525 57.21 359.869 63.747 359.165 71.09C359.096 72.927 358.875 74.797 359.052 76.697C359.118 77.645 359.099 78.609 359.238 79.565C359.382 80.521 359.527 81.483 359.673 82.453C360.456 86.284 361.596 90.208 363.57 93.863C365.498 97.526 367.985 101.013 371.022 104.118C374.118 107.16 377.734 109.798 381.759 111.831C385.772 113.881 390.218 115.297 394.847 115.848C395.993 116.075 397.167 116.074 398.338 116.145C399.509 116.222 400.686 116.264 401.867 116.209C404.227 116.113 406.595 115.817 408.935 115.316C414.018 114.234 418.804 112.164 423.006 109.395L422.579 109.438C427.456 111.396 432.241 113.316 436.912 115.19L437.761 115.531L437.519 114.65C436.073 109.391 434.666 104.275 433.306 99.328L433.234 99.706C437.256 94.361 439.82 88.257 440.882 82.197C441.415 79.169 441.64 76.147 441.439 73.227C441.377 71.764 441.307 70.321 441.032 68.918C440.923 68.214 440.815 67.515 440.707 66.821C440.579 66.132 440.369 65.464 440.206 64.792C437.437 54.006 430.794 46.04 424.215 41.48C420.921 39.16 417.673 37.497 414.699 36.459C413.958 36.194 413.243 35.938 412.556 35.692C411.85 35.513 411.171 35.34 410.521 35.175C409.872 35.014 409.251 34.86 408.659 34.714C408.062 34.599 407.485 34.538 406.945 34.455C405.861 34.318 404.91 34.13 404.075 34.089C403.254 34.061 402.553 34.038 401.969 34.018C401.436 34.006 401.012 33.997 400.683 33.99C400.391 33.987 400.244 33.992 400.244 34.004C400.244 34.017 400.391 34.037 400.679 34.064C401.007 34.09 401.429 34.123 401.96 34.165C402.54 34.204 403.237 34.251 404.052 34.306C404.88 34.37 405.823 34.58 406.895 34.738C411.113 35.511 417.437 37.193 423.897 41.917C430.348 46.478 436.822 54.369 439.485 64.971C439.641 65.632 439.845 66.288 439.967 66.965C440.069 67.647 440.172 68.333 440.276 69.025C440.54 70.402 440.601 71.819 440.655 73.255C440.841 76.121 440.607 79.084 440.074 82.049C439.012 87.984 436.482 93.952 432.531 99.177L432.402 99.348L432.458 99.556C433.808 104.507 435.205 109.625 436.64 114.887L437.246 114.347C432.578 112.467 427.795 110.541 422.92 108.578L422.695 108.488L422.492 108.622C418.38 111.327 413.703 113.348 408.735 114.405C406.448 114.894 404.134 115.185 401.826 115.279C400.671 115.334 399.521 115.291 398.376 115.217C397.231 115.148 396.083 115.152 394.963 114.929C390.437 114.394 386.09 113.015 382.164 111.015C378.226 109.032 374.684 106.458 371.647 103.488C368.669 100.455 366.226 97.049 364.327 93.467C362.382 89.894 361.256 86.054 360.474 82.302C360.327 81.352 360.181 80.409 360.036 79.473C359.896 78.536 359.913 77.59 359.843 76.661C359.659 74.798 359.872 72.963 359.93 71.159C360.588 63.951 363.159 57.515 366.512 52.377C369.93 47.247 374.159 43.447 378.239 40.769C382.322 38.047 386.33 36.536 389.646 35.626C390.479 35.404 391.267 35.194 392.008 34.997C392.762 34.873 393.468 34.757 394.126 34.649C394.78 34.541 395.386 34.441 395.944 34.349C396.502 34.287 397.012 34.273 397.466 34.237C398.339 34.173 399.024 34.124 399.535 34.086C400.005 34.049 400.244 34.021 400.244 34.004Z" fill="#455A64"/>
</g>
<defs>
<clipPath id="clip0_293_11850">
<rect width="695" height="364" fill="white" transform="translate(0.5)"/>
</clipPath>
</defs>
</svg>
