<svg width="324" height="400" viewBox="0 0 324 400" fill="none" xmlns="http://www.w3.org/2000/svg">
<path d="M95.5248 334.891C95.5248 334.891 103.391 303.707 92.4878 271.674C86.3938 253.769 74.0568 244.715 66.2528 243.322C57.5048 241.761 48.1888 248.433 55.3408 260.489C62.1378 271.946 76.2138 277.508 82.9988 306.517C87.4718 325.642 85.9158 337.922 85.9158 337.922L95.5248 334.891Z" fill="#FF5452"/>
<path opacity="0.5" d="M95.5248 334.891C95.5248 334.891 103.391 303.707 92.4878 271.674C86.3938 253.769 74.0568 244.715 66.2528 243.322C57.5048 241.761 48.1888 248.433 55.3408 260.489C62.1378 271.946 76.2138 277.508 82.9988 306.517C87.4718 325.642 85.9158 337.922 85.9158 337.922L95.5248 334.891Z" fill="#FAFAFA"/>
<path d="M90.522 326.436C90.221 326.385 90.014 326.13 90.059 325.864C95.826 291.515 78.666 261.021 64.641 250.339C64.406 250.159 64.37 249.85 64.562 249.646C64.757 249.442 65.101 249.424 65.338 249.604C79.564 260.441 96.977 291.321 91.147 326.047C91.102 326.312 90.823 326.486 90.522 326.436Z" fill="#FAFAFA"/>
<path d="M85.9159 337.923C85.0709 329.85 80.5619 321.267 70.3969 311.741C60.2319 302.215 46.0319 293.123 48.5899 285.572C51.1479 278.021 62.6449 280.507 70.5559 285.362C78.4669 290.217 95.8309 308.426 90.7199 336.406L85.9159 337.923Z" fill="#FF5452"/>
<path opacity="0.65" d="M85.9159 337.923C85.0709 329.85 80.5619 321.267 70.3969 311.741C60.2319 302.215 46.0319 293.123 48.5899 285.572C51.1479 278.021 62.6449 280.507 70.5559 285.362C78.4669 290.217 95.8309 308.426 90.7199 336.406L85.9159 337.923Z" fill="#FAFAFA"/>
<path d="M88.6298 329.182C88.3718 329.139 88.1698 328.938 88.1618 328.698C87.5338 311.724 66.7568 288.944 56.8218 284.941C56.5398 284.828 56.4068 284.537 56.5228 284.291C56.6368 284.044 56.9558 283.934 57.2408 284.051C67.6588 288.247 88.6098 311.064 89.2618 328.704C89.2728 328.975 89.0348 329.193 88.7298 329.191C88.6958 329.191 88.6628 329.188 88.6298 329.182Z" fill="#FAFAFA"/>
<path d="M139.927 396.035C179.096 396.035 210.849 377.702 210.849 355.088C210.849 332.474 179.096 314.141 139.927 314.141C100.758 314.141 69.0049 332.474 69.0049 355.088C69.0049 377.702 100.758 396.035 139.927 396.035Z" fill="#E0E0E0"/>
<path d="M247.915 11.1749C243.23 8.51394 236.782 8.92093 229.661 13.0329C215.336 21.3029 203.723 41.4169 203.723 57.9579C203.723 66.2209 206.623 72.0249 211.311 74.7359C213.262 75.8639 218.219 78.7079 220.174 79.8339C224.865 82.5349 231.339 82.1429 238.493 78.0139C252.818 69.7429 264.431 49.6299 264.431 33.0889C264.431 24.8429 261.543 19.0449 256.872 16.3279C254.914 15.1869 249.899 12.3009 247.915 11.1749Z" fill="#FF5452"/>
<path opacity="0.5" d="M247.915 11.1749C243.23 8.51394 236.782 8.92093 229.661 13.0329C215.336 21.3029 203.723 41.4169 203.723 57.9579C203.723 66.2209 206.623 72.0249 211.311 74.7359C213.262 75.8639 218.219 78.7079 220.174 79.8339C224.865 82.5349 231.339 82.1429 238.493 78.0139C252.818 69.7429 264.431 49.6299 264.431 33.0889C264.431 24.8429 261.543 19.0449 256.872 16.3279C254.914 15.1869 249.899 12.3009 247.915 11.1749Z" fill="#FAFAFA"/>
<path d="M224.08 80.191C223.001 82.021 221.057 84.419 217.595 86.619C214.346 88.691 210.5 89.102 207.861 89.074C207.691 89.074 207.535 89.031 207.407 88.96C206.882 88.648 198.709 83.952 198.581 83.881C198.042 83.569 197.957 82.717 198.595 82.349C204.668 78.773 206.329 73.65 206.697 70.16L224.08 80.191Z" fill="#FF5452"/>
<path opacity="0.35" d="M224.08 80.191C223.001 82.021 221.057 84.419 217.595 86.619C214.346 88.691 210.5 89.102 207.861 89.074C207.691 89.074 207.535 89.031 207.407 88.96C206.882 88.648 198.709 83.952 198.581 83.881C198.042 83.569 197.957 82.717 198.595 82.349C204.668 78.773 206.329 73.65 206.697 70.16L224.08 80.191Z" fill="#FAFAFA"/>
<path d="M256.829 58.6613C266.959 41.1175 266.959 22.1547 256.83 16.3065C246.701 10.4584 230.278 19.9395 220.149 37.4833C210.02 55.027 210.02 73.9899 220.149 79.838C230.278 85.6862 246.7 76.205 256.829 58.6613Z" fill="#FF5452"/>
<path opacity="0.25" d="M256.829 58.6613C266.959 41.1175 266.959 22.1547 256.83 16.3065C246.701 10.4584 230.278 19.9395 220.149 37.4833C210.02 55.027 210.02 73.9899 220.149 79.838C230.278 85.6862 246.7 76.205 256.829 58.6613Z" fill="#FAFAFA"/>
<path d="M215.437 71.3569C215.437 71.3569 217.489 81.5049 207.424 87.4269C206.648 87.8839 206.953 89.0689 207.854 89.0769C210.504 89.0989 214.34 88.6899 217.601 86.6219C224.495 82.2499 225.354 77.0819 225.354 77.0819L215.437 71.3569Z" fill="#FF5452"/>
<path opacity="0.25" d="M215.437 71.3569C215.437 71.3569 217.489 81.5049 207.424 87.4269C206.648 87.8839 206.953 89.0689 207.854 89.0769C210.504 89.0989 214.34 88.6899 217.601 86.6219C224.495 82.2499 225.354 77.0819 225.354 77.0819L215.437 71.3569Z" fill="#FAFAFA"/>
<path d="M235.966 29.566L222.57 68.237C221.174 72.266 223.054 73.819 226.746 71.686L250.261 58.11C253.969 55.969 255.24 51.227 253.099 47.519L242.381 28.954C240.249 25.261 237.362 25.537 235.966 29.566Z" fill="#FAFAFA"/>
<path d="M239.959 52.681L237.915 53.861C237.544 54.075 237.225 53.902 237.201 53.475L236.372 38.172C236.349 37.745 236.631 37.224 237.002 37.01L240.871 34.776C241.242 34.562 241.525 34.735 241.503 35.163L240.67 51.519C240.648 51.947 240.33 52.467 239.959 52.681Z" fill="#455A64"/>
<path d="M238.936 60.911C237.634 61.663 236.851 60.69 236.851 59.335C236.851 57.596 237.92 55.938 238.936 55.351C240.24 54.598 241.021 55.572 241.021 56.927C241.021 58.664 239.953 60.324 238.936 60.911Z" fill="#455A64"/>
<path d="M152.077 317.899L149.855 298.118L172.384 296.09C172.384 296.09 171.431 311.337 171.567 318.331C171.631 321.627 173.961 327.828 173.961 327.828C173.961 327.828 164.531 332.722 159.636 330.72C154.742 328.718 151.504 321.003 151.621 319.59C151.739 318.177 152.077 317.899 152.077 317.899Z" fill="#FFBDA7"/>
<path d="M200.075 349.028C200.386 349.033 200.619 351.901 198.903 353.306C196.923 354.928 190.632 358.03 183.089 356.936C175.545 355.842 171.493 353.468 168.514 350.922C165.535 348.376 161.36 344.785 157.953 343.984C154.789 343.239 150.529 340.629 149.53 339.645C148.531 338.66 148.752 334.363 148.752 334.363L200.075 349.028Z" fill="#263238"/>
<path d="M152.075 317.865C152.075 317.865 151.126 317.859 150.912 318.851C150.657 320.032 150.341 323.473 149.805 325.41C149.061 328.101 148.492 333.634 148.867 335.844C149.243 338.054 155.229 340.807 158.516 342.105C161.873 343.432 165.735 346.113 169.116 348.959C172.615 351.906 180.034 355.036 184.964 355.086C190.796 355.144 197.396 353.399 198.95 350.762C200.873 347.5 202.3 343.696 193.728 339.601C192.105 338.826 186.419 335.376 184.482 334.128C179.242 330.75 175.568 327.671 173.237 321.814C172.965 321.13 172.68 320.372 172.027 320.014C171.527 319.74 170.917 319.767 170.349 319.836C168.905 320.01 163.145 320.691 161.82 321.285C160.649 321.81 158.992 322.415 158.989 323.879C158.988 324.388 159.129 324.887 159.287 325.372C159.385 325.673 159.459 326.071 159.19 326.244C158.936 326.406 158.607 326.21 158.385 326.008C157.494 325.194 156.85 324.159 156.106 323.213C155.707 322.707 154.435 321.088 153.928 320.684C153.467 320.317 152.873 320.128 152.465 319.714C151.949 319.189 152.087 318.552 152.075 317.865Z" fill="#455A64"/>
<path d="M169.115 348.96C167.63 347.709 166.051 346.498 164.463 345.412V345.404C164.463 345.404 174.518 351.666 178.678 348.974C181.358 347.24 180.14 345.055 180.089 344.363C180.038 343.67 189.474 338.953 192.05 338.697C192.759 339.099 193.345 339.444 193.727 339.602C200.429 342.376 201.264 345.82 200.061 350.11C198.507 352.746 192.6 355.395 185.063 355.265C180.135 355.18 172.615 351.906 169.115 348.96Z" fill="#37474F"/>
<path d="M179.416 342.336C184.753 344.546 182.441 345.495 180.932 345.681C179.423 345.867 170.47 340.506 165.03 336.111C159.356 331.526 154.982 325.428 152.874 323.745C152.088 323.117 151.244 322.348 150.494 321.63C150.657 320.467 150.791 319.408 150.911 318.852C151.125 317.86 152.074 317.866 152.074 317.866C152.086 318.553 151.948 319.19 152.464 319.714C152.872 320.128 153.466 320.317 153.927 320.684C154.435 321.088 155.706 322.706 156.105 323.213C156.85 324.159 157.494 325.194 158.385 326.008C162.972 331.956 174.079 340.126 179.416 342.336Z" fill="#37474F"/>
<path d="M180.563 344.896C180.444 344.894 180.326 344.853 180.228 344.772C180.004 344.585 179.976 344.255 180.167 344.033C181.719 342.23 188.991 338.012 192.939 338.508C193.232 338.543 193.438 338.807 193.4 339.093C193.364 339.379 193.127 339.576 192.806 339.548C189.12 339.094 182.208 343.282 180.979 344.712C180.872 344.836 180.717 344.899 180.563 344.896Z" fill="#263238"/>
<path d="M175.927 341.973C175.808 341.971 175.69 341.93 175.593 341.849C175.368 341.662 175.342 341.332 175.532 341.11C177.082 339.308 184.353 335.093 188.304 335.586C188.596 335.621 188.803 335.885 188.765 336.171C188.729 336.457 188.47 336.661 188.171 336.626C184.483 336.176 177.573 340.358 176.343 341.788C176.236 341.913 176.081 341.976 175.927 341.973Z" fill="#263238"/>
<path d="M171.286 339.201C171.167 339.199 171.049 339.158 170.951 339.077C170.727 338.89 170.7 338.56 170.89 338.339C172.442 336.536 179.714 332.314 183.662 332.815C183.954 332.85 184.161 333.114 184.123 333.4C184.087 333.686 183.832 333.89 183.529 333.855C179.841 333.4 172.931 337.587 171.701 339.017C171.595 339.14 171.44 339.203 171.286 339.201Z" fill="#263238"/>
<path d="M166.996 336.051C166.877 336.049 166.759 336.009 166.661 335.927C166.436 335.74 166.41 335.41 166.6 335.189C168.151 333.385 175.439 329.17 179.372 329.665C179.664 329.701 179.871 329.964 179.833 330.25C179.797 330.536 179.541 330.739 179.239 330.705C175.556 330.254 168.641 334.437 167.412 335.866C167.304 335.991 167.15 336.054 166.996 336.051Z" fill="#263238"/>
<path d="M162.795 332.903C162.68 332.901 162.563 332.862 162.467 332.784C162.239 332.601 162.208 332.27 162.394 332.047C164.528 329.489 172.127 325.992 176.073 326.486C176.365 326.522 176.572 326.785 176.534 327.071C176.498 327.358 176.24 327.553 175.94 327.526C172.387 327.083 165.11 330.445 163.215 332.713C163.109 332.841 162.951 332.905 162.795 332.903Z" fill="#263238"/>
<path d="M114.742 327.186L120.101 303.431L96.6669 299.775L96.2909 323.226C96.2909 323.226 94.5009 329.533 95.8209 331.701C97.1409 333.87 111.22 336.15 112.511 334.706C113.801 333.262 114.742 327.186 114.742 327.186Z" fill="#FFBDA7"/>
<path d="M112.403 364.621C111.787 369.949 110.669 373.395 108.364 376.281C106.058 379.168 101.95 379.66 97.8848 378.234C93.8188 376.808 88.6758 373.698 87.7248 368.921C86.7748 364.143 87.1678 360.997 88.3458 356.129L112.403 364.621Z" fill="#263238"/>
<path d="M96.2897 323.226C94.5907 323.137 95.0507 327.331 94.2487 334.516C93.3817 342.288 89.8777 348.38 88.6307 354.612C87.2067 361.732 87.4777 365.024 90.1307 369.759C92.7827 374.495 102.726 380.038 108.037 374.372C112.367 369.753 112.814 364.097 112.798 356.812C112.78 349.281 112.701 343.975 113.325 338.338C113.921 332.95 116.182 327.971 114.74 327.188C114.588 327.971 113.144 333.429 112.194 333.341C112.14 332.637 112.188 331.993 112.275 331.293C112.351 330.685 112.325 330.007 111.897 329.485C111.465 328.958 109.845 328.3 109.164 328.096C107.512 327.599 104.559 326.982 102.872 326.639C102.032 326.468 101.187 326.329 100.34 326.234C99.6527 326.157 98.8417 326.109 98.1807 326.243C97.7747 326.325 97.3927 326.531 97.2277 326.867C97.1057 327.115 97.1117 327.405 97.0987 327.684C97.0747 328.185 96.9777 328.678 96.8137 329.146C96.7417 329.353 96.5617 329.593 96.3217 329.512C96.1267 329.446 96.0597 329.219 96.0677 329.04C96.1057 328.163 96.2327 323.686 96.2897 323.226Z" fill="#455A64"/>
<path d="M89.1169 352.596C88.9009 353.622 87.5609 360.424 89.6289 361.933C91.8669 363.566 93.399 358.277 93.399 358.277C93.399 358.277 98.876 357.473 106.593 361.485C106.134 362.559 107.166 366.413 109.363 365.895C111.545 365.38 112.781 357.541 112.797 357.439C112.784 364.421 112.242 369.887 108.038 374.371C102.726 380.037 92.7829 374.494 90.1319 369.758C87.4789 365.023 87.2079 361.731 88.6329 354.611C88.7749 353.899 88.9389 353.234 89.1169 352.596Z" fill="#37474F"/>
<path d="M93.9936 358.817C93.8306 361.434 90.9526 360.191 91.0076 356.475C91.0626 352.758 93.0116 343.734 93.7506 337.657C94.2426 328.914 94.5916 323.138 96.2906 323.227C96.2796 323.315 96.2776 323.404 96.2686 323.493C96.2686 323.493 96.0926 328.474 96.0696 329.04C95.7646 334.381 95.6956 344.758 94.9356 349.582C94.1756 354.405 94.1556 356.2 93.9936 358.817Z" fill="#37474F"/>
<path d="M105.685 361.301C106.367 358.795 106.921 357.112 107.749 352.302C108.572 347.528 111.429 337.97 112.845 332.831C113.303 331.987 114.742 327.185 114.742 327.185C115.918 327.517 114.742 332.097 114.192 334.24C113.642 336.383 112.97 338.68 112.281 341.754C110.523 347.813 110.355 356.908 109.222 360.395C108.089 363.883 105.003 363.807 105.685 361.301Z" fill="#37474F"/>
<path d="M106.749 361.718C106.671 361.702 106.595 361.671 106.523 361.63C106.464 361.593 100.453 358.056 93.5339 358.834C93.1929 358.87 92.8599 358.651 92.7849 358.345C92.7099 358.037 92.9249 357.758 93.2639 357.719C100.666 356.887 106.89 360.557 107.153 360.715C107.452 360.894 107.556 361.245 107.38 361.497C107.25 361.689 106.995 361.77 106.749 361.718Z" fill="#263238"/>
<path d="M108.443 356.202C108.373 356.187 108.304 356.162 108.237 356.125C108.17 356.088 101.399 352.371 93.6937 353.001C93.3527 353.024 93.0257 352.8 92.9607 352.491C92.8977 352.182 93.1237 351.909 93.4647 351.881C101.614 351.22 108.537 355.026 108.829 355.187C109.135 355.359 109.251 355.707 109.089 355.966C108.96 356.168 108.698 356.256 108.443 356.202Z" fill="#263238"/>
<path d="M94.3689 347.647C94.1329 347.597 93.9259 347.43 93.8549 347.208C93.7589 346.903 93.9499 346.608 94.2829 346.549C101.988 345.201 109.323 349.539 109.633 349.725C109.934 349.905 110.036 350.254 109.86 350.507C109.685 350.758 109.296 350.811 109.001 350.638C108.931 350.597 101.805 346.39 94.6349 347.653C94.5469 347.669 94.4569 347.666 94.3689 347.647Z" fill="#263238"/>
<path d="M95.0552 342.605C94.8232 342.556 94.6192 342.393 94.5452 342.175C94.4422 341.869 94.6262 341.572 94.9582 341.509C103.44 339.882 110.331 344.485 110.62 344.681C110.908 344.877 110.986 345.23 110.793 345.471C110.6 345.711 110.202 345.748 109.921 345.552C109.858 345.508 103.226 341.096 95.3322 342.608C95.2392 342.626 95.1442 342.624 95.0552 342.605Z" fill="#263238"/>
<path d="M95.851 336.943C95.623 336.894 95.42 336.736 95.343 336.521C95.236 336.218 95.415 335.918 95.745 335.849C103.699 334.212 111.197 338.983 111.511 339.19C111.805 339.379 111.89 339.732 111.704 339.977C111.519 340.223 111.132 340.272 110.837 340.076C110.764 340.029 103.52 335.422 96.135 336.944C96.04 336.964 95.944 336.963 95.851 336.943Z" fill="#263238"/>
<path d="M105.288 144.002C97.8388 162.257 102.726 186.685 101.97 206.582C101.065 230.388 100.644 249.049 100.644 249.049C100.357 252.25 98.5338 256.731 97.0478 272.522C95.4808 289.18 95.5398 312.962 95.5398 312.962C95.5398 312.962 109.622 318.974 118.373 315.868C118.373 315.868 127.778 280.194 132.329 260.575C136.636 242.008 139.807 212.974 139.807 212.974L144.919 240.945C144.919 240.945 144.276 252.962 144.577 261.372C144.927 271.154 150.208 308.606 150.208 308.606C150.208 308.606 163.291 316.442 172.395 308.973C172.395 308.973 176.826 254.004 177.122 242.238C177.701 219.161 178.363 173.772 175.635 144.001L105.288 144.002Z" fill="#37474F"/>
<path d="M139.808 212.974L145.637 176.383C145.637 176.383 158.246 174.279 163.694 169.037C163.694 169.037 159.621 177.145 149.621 179.827L143.507 213.715L144.921 240.946L139.808 212.974Z" fill="#263238"/>
<path d="M95.2988 313.776C99.2318 316.86 110.684 319.489 118.522 316.654L120.101 310.036C114.184 312.029 101.995 310.765 95.4328 306.716L95.2988 313.776Z" fill="#455A64"/>
<path d="M150.209 309.376C152.863 312.067 165.161 314.294 172.427 310.038L172.964 303.396C167.456 306.464 154.801 305.94 149.404 302.79L150.209 309.376Z" fill="#455A64"/>
<path d="M101.56 209.848C101.56 209.848 100.34 239.513 100.424 241.673C100.508 243.833 116.633 248.105 117.051 246.732C117.747 244.446 117.573 239.347 118.966 214.773C105.596 213.045 101.56 209.848 101.56 209.848Z" fill="#455A64"/>
<path d="M116.449 223.228C115.963 223.066 115.433 223.114 114.928 223.102C114.336 223.087 113.746 223.061 113.156 223.012C111.908 222.908 110.666 222.717 109.442 222.442C108.059 222.132 106.696 221.713 105.37 221.205C104.29 220.791 103.266 220.232 102.185 219.827C102.083 219.789 102.066 219.985 102.132 220.033C103.156 220.781 104.372 221.296 105.538 221.765C106.635 222.207 107.759 222.565 108.904 222.85C110.123 223.154 111.361 223.374 112.608 223.508C113.231 223.575 113.857 223.621 114.483 223.644C115.075 223.666 115.921 223.801 116.456 223.503C116.54 223.458 116.55 223.262 116.449 223.228Z" fill="#37474F"/>
<path d="M109.435 219.088C109.28 218.783 109.161 218.593 108.814 218.553C108.531 218.52 108.235 218.591 108.002 218.76C107.781 218.92 107.634 219.161 107.601 219.432C107.544 219.896 107.783 220.326 108.178 220.548C108.52 220.74 109.004 220.77 109.332 220.529C109.548 220.37 109.609 220.112 109.612 219.852C109.615 219.589 109.552 219.319 109.435 219.088ZM109.129 219.993C108.951 220.234 108.565 220.288 108.317 220.145C107.905 219.908 107.99 219.11 108.494 219.057C108.652 219.041 108.818 219.076 108.945 219.175C109.159 219.342 109.309 219.75 109.129 219.993Z" fill="#37474F"/>
<path d="M155.813 66.749C163.934 68.213 167.87 70.285 173.972 80.075C180.074 89.865 192.474 117.814 192.474 117.814L207.363 148.196L193.59 153.186C193.59 153.186 186.884 144.26 181.218 137.318C177.034 132.192 174.256 128.436 168.744 118.857C163.233 109.277 158.421 99.389 158.421 99.389L155.813 66.749Z" fill="#FFBDA7"/>
<path d="M111.589 124.227C111.587 126.329 106.241 136.892 103.327 148.279C120.847 170.865 172.732 158.54 176.528 145.83C175.712 130.725 175.014 92.576 171.706 85.676C165.788 73.335 155.813 66.748 155.813 66.748C151.098 65.748 146.176 65.424 144.745 65.279C141.842 64.984 135.902 64.517 128.151 65.704C123.238 66.456 115.168 68.592 115.168 68.592C112.095 71.191 103.567 82.141 105.54 95.339C106.445 101.401 111.601 109.307 111.589 124.227Z" fill="#FF5452"/>
<path opacity="0.2" d="M111.589 124.227C111.587 126.329 106.241 136.892 103.327 148.279C120.847 170.865 172.732 158.54 176.528 145.83C175.712 130.725 175.014 92.576 171.706 85.676C165.788 73.335 155.813 66.748 155.813 66.748C151.098 65.748 146.176 65.424 144.745 65.279C141.842 64.984 135.902 64.517 128.151 65.704C123.238 66.456 115.168 68.592 115.168 68.592C112.095 71.191 103.567 82.141 105.54 95.339C106.445 101.401 111.601 109.307 111.589 124.227Z" fill="#FAFAFA"/>
<path d="M141.009 150.301C140.417 149.008 146.575 147.946 148.83 145.15C149.948 143.763 149.791 141.067 147.498 141.992C142.692 143.93 139.939 143.451 136.755 144.271" fill="#FFBDA7"/>
<path d="M143.615 152.636C140.599 154.273 139.524 157.836 140.336 160.595C141.79 165.538 146.348 165.322 146.348 165.322C145.401 166.35 143.677 168.98 144.725 172.544C145.469 175.073 148.526 178.671 153.013 177.351L174.276 171.097C174.493 177.778 176.346 183.228 181.066 189.084C185.786 194.94 194.32 191.68 193.779 189.841C193.238 188.002 189.343 178.156 189.586 175.586C189.829 173.016 195.293 155.921 195.293 155.921L200.367 154.485L188.634 114.596L183.594 116.145C183.594 116.145 153.015 125.14 148.417 126.492C143.819 127.845 141.58 132.125 142.561 135.459C143.373 138.218 144.901 140.017 144.901 140.017C141.912 140.896 140.073 145.684 140.749 147.983C141.762 151.432 143.615 152.636 143.615 152.636Z" fill="#FAFAFA"/>
<path d="M193.779 189.84C194.32 191.679 185.786 194.939 181.066 189.083C176.346 183.227 174.493 177.777 174.276 171.096L174.542 170.728L178.325 169.661C181.53 190.241 189.727 190.922 193.779 189.84Z" fill="#E0E0E0"/>
<path d="M200.68 155.575L216.008 151.066L202.392 104.774L187.064 109.283L200.68 155.575Z" fill="#FF5452"/>
<path opacity="0.2" d="M200.68 155.575L216.008 151.066L202.392 104.774L187.064 109.283L200.68 155.575Z" fill="#1A1A1A"/>
<path d="M143.615 152.636C143.615 152.636 141.762 151.432 140.748 147.984C140.698 147.814 140.664 147.629 140.64 147.431C140.349 144.998 142.131 140.832 144.899 140.018C144.899 140.018 143.371 138.219 142.559 135.46C142.46 135.124 142.395 134.784 142.362 134.434C142.049 131.299 144.276 127.71 148.415 126.493L155.478 124.416C151.34 125.633 149.112 129.221 149.425 132.357C149.458 132.707 149.523 133.048 149.622 133.383C150.434 136.142 151.962 137.941 151.962 137.941C149.194 138.755 147.412 142.922 147.703 145.354C147.726 145.552 147.761 145.737 147.811 145.907C148.825 149.356 150.678 150.559 150.678 150.559C147.662 152.196 146.587 155.759 147.399 158.518C147.41 158.555 147.422 158.596 147.437 158.632C148.921 163.456 153.41 163.245 153.41 163.245C152.463 164.273 150.739 166.903 151.787 170.467C151.83 170.614 151.88 170.765 151.941 170.921C152.895 173.398 155.85 176.516 160.076 175.273L153.013 177.351C148.787 178.594 145.832 175.477 144.878 172.999C144.817 172.842 144.768 172.692 144.724 172.545C143.676 168.981 145.4 166.351 146.347 165.323C146.347 165.323 141.858 165.534 140.374 160.71C140.359 160.675 140.346 160.633 140.336 160.597C139.524 157.836 140.599 154.272 143.615 152.636Z" fill="#E0E0E0"/>
<path d="M188.82 114.248L200.711 154.675L195.512 156.147C194.986 157.798 190.088 173.223 189.863 175.611C189.684 177.501 191.952 183.835 193.171 187.238C193.586 188.397 193.914 189.311 194.046 189.762C194.235 190.406 193.692 191.116 192.557 191.71C189.716 193.197 184.204 193.419 180.85 189.257C176.354 183.68 174.298 178.34 174.012 171.463L153.091 177.617C150.465 178.389 148.493 177.498 147.3 176.614C145.728 175.45 144.801 173.789 144.459 172.623C143.454 169.206 144.906 166.69 145.775 165.572C144.451 165.437 141.25 164.69 140.069 160.675C139.308 158.088 140.14 154.456 143.123 152.602C142.52 152.073 141.261 150.713 140.482 148.063C140.132 146.873 140.412 145.023 141.198 143.351C141.997 141.65 143.165 140.41 144.443 139.886C143.969 139.249 142.925 137.687 142.293 135.54C141.784 133.81 142.099 131.823 143.158 130.091C144.282 128.252 146.122 126.881 148.338 126.229L183.514 115.882L188.82 114.248ZM200.021 154.294L188.446 114.944L183.674 116.411L148.495 126.759C146.412 127.372 144.685 128.657 143.634 130.378C142.656 131.978 142.363 133.802 142.827 135.382C143.612 138.047 145.097 139.821 145.113 139.838L145.388 140.163L144.978 140.283C143.706 140.658 142.511 141.862 141.7 143.586C140.969 145.142 140.7 146.837 141.014 147.905C141.983 151.199 143.749 152.392 143.767 152.403L144.154 152.658L143.748 152.879C140.729 154.518 139.874 158.037 140.603 160.516C141.976 165.182 146.152 165.061 146.337 165.043L147.01 165.013L146.554 165.508C145.912 166.205 143.905 168.764 144.994 172.464C145.311 173.544 146.172 175.083 147.633 176.166C148.724 176.975 150.529 177.791 152.937 177.083L174.544 170.727L174.555 171.086C174.78 178.006 176.792 183.336 181.283 188.908C184.44 192.825 189.626 192.617 192.301 191.217C193.127 190.784 193.615 190.262 193.514 189.918C193.386 189.482 193.061 188.574 192.649 187.424C191.329 183.739 189.12 177.57 189.31 175.558C189.553 172.988 194.805 156.534 195.029 155.835L195.074 155.693L200.021 154.294Z" fill="#455A64"/>
<path opacity="0.2" d="M193.872 132.43L209.201 127.922L202.393 104.776L187.064 109.285L193.872 132.43Z" fill="#1A1A1A"/>
<path d="M198.716 112.363C199.077 113.59 198.375 114.877 197.148 115.238C195.921 115.599 194.634 114.897 194.273 113.67C193.912 112.443 194.614 111.156 195.841 110.795C197.068 110.434 198.355 111.136 198.716 112.363Z" fill="#F0F0F0"/>
<path d="M136.754 144.27C133.57 145.09 131.028 145.187 126.238 143.938C121.151 142.61 103.775 128.29 103.775 128.29L115.718 98.277C115.718 98.277 121.373 85.006 115.168 68.593C103.358 71.126 100.53 75.527 98.3268 79.332C96.1778 83.044 94.9608 86.599 89.2068 102.36C84.2248 116.006 81.6488 124.042 80.5248 129.583C79.1338 136.442 83.6208 140.033 92.2228 145.05C100.825 150.067 106.533 152.706 119.092 158.711C125.132 161.599 128.846 162.277 134.375 163.852C137.119 164.634 138.808 164.866 140.797 164.853C142.786 164.839 144.808 164.486 146.557 163.538C146.886 163.36 147.171 163.15 147.541 163.072C147.894 162.998 148.255 162.97 148.614 162.949C149.295 162.908 149.992 162.898 150.641 162.661C151.328 162.409 151.895 161.931 152.512 161.554C152.8 161.378 153.049 161.164 153.362 161.023C153.678 160.879 154.013 160.781 154.349 160.697C155.217 160.481 156.16 160.334 156.908 159.82C157.606 159.341 157.534 158.597 157.534 158.597C157.534 158.597 158.701 158.497 159.096 158.442C159.65 158.364 160.196 158.226 160.719 158.03C160.926 157.953 161.151 157.844 161.222 157.636C161.264 157.514 161.243 157.379 161.214 157.253C160.75 155.233 158.731 154.622 156.948 154.239C152.308 153.243 149.191 153.587 144.66 152.077C142.196 151.256 141.595 151.02 141.008 150.301" fill="#FFBDA7"/>
<path d="M103.775 128.29C99.3199 124.038 94.9609 121.469 94.9609 121.469C94.9609 121.469 98.3899 121.141 104.487 126.501L103.775 128.29Z" fill="#F0997A"/>
<path d="M157.315 158.734C156.138 158.881 154.951 158.919 153.768 158.949C152.585 158.983 151.404 158.976 150.226 158.999C149.64 159.001 149.049 159.038 148.446 159.017C147.849 158.992 147.256 158.956 146.666 158.887C145.486 158.762 144.313 158.593 143.151 158.352L144.924 158.449C145.513 158.488 146.103 158.524 146.692 158.547C147.281 158.565 147.869 158.6 148.454 158.598C149.034 158.607 149.623 158.566 150.22 158.557C151.407 158.544 152.59 158.563 153.771 158.61L157.315 158.734Z" fill="#F0997A"/>
<path d="M153.5 160.963C152.632 161.251 151.699 161.467 150.795 161.579C149.889 161.693 148.979 161.757 148.069 161.8C147.158 161.834 146.247 161.848 145.335 161.819C144.424 161.794 143.511 161.733 142.609 161.585C143.521 161.56 144.426 161.506 145.333 161.473L148.05 161.357L150.765 161.235C151.669 161.183 152.596 161.084 153.5 160.963Z" fill="#F0997A"/>
<path d="M220.056 148.937C222.855 148.469 222.963 148.144 223.161 146.679C223.359 145.214 223.311 142.428 221.112 140.362C219.633 138.973 218.21 137.499 217.088 137.143C215.966 136.787 215.043 138.974 216.497 141.26C218.787 144.862 217.97 145.644 217.97 145.644C217.97 145.644 215.857 142.33 214.827 141.181C213.797 140.032 211.288 138.567 209.849 137.524C208.41 136.481 206.564 137.841 208.122 140.495C208.122 140.495 206.302 139.182 205.479 138.588C203.629 137.253 202.24 137.561 202.509 139.798C202.573 140.329 202.716 141.012 203.413 141.78C203.413 141.78 201.715 140.085 201.116 140.615C199.4 142.135 200.028 143.607 202.469 148.027C204.547 151.791 204.316 153.916 202.829 154.779L201.851 155.244C201.851 155.244 203.936 155.791 205.919 156.15C207.372 156.413 208.767 156.472 209.718 154.742C209.718 154.742 211.553 156.643 212.821 155.6C214.089 154.557 214.841 152.669 214.841 152.669C214.841 152.669 216.48 153.222 217.786 151.777C219.093 150.332 219.132 149.064 219.132 149.064L220.056 148.937Z" fill="#FFBDA7"/>
<path d="M208.122 140.495C208.912 141.076 209.708 141.569 210.415 142.333C211.103 143.153 211.419 144.087 211.786 144.967C212.47 146.765 213.094 148.588 213.471 150.498C212.462 148.827 211.698 147.068 210.995 145.285C210.647 144.393 210.352 143.469 209.89 142.739C209.372 142.02 208.666 141.293 208.122 140.495Z" fill="#F0997A"/>
<path d="M203.413 141.78C204.334 142.277 205.143 143.049 205.72 143.945C206.321 144.828 206.768 145.786 207.182 146.743C207.975 148.673 208.626 150.65 209.003 152.715C207.991 150.877 207.2 148.967 206.396 147.073C205.587 145.178 204.876 143.296 203.413 141.78Z" fill="#F0997A"/>
<path d="M116.874 14.831C116.61 15.646 116.433 16.491 116.346 17.34C116.29 17.886 116.27 18.439 116.344 18.983C116.691 21.541 119.218 23.415 121.749 23.455C124.279 23.495 126.671 21.996 128.255 19.971C130.361 17.278 133.508 10.933 129.41 8.67701C126.722 7.19701 123.228 7.598 120.714 9.395C118.887 10.702 117.575 12.663 116.874 14.831Z" fill="#FF5452"/>
<path opacity="0.25" d="M116.874 14.831C116.61 15.646 116.433 16.491 116.346 17.34C116.29 17.886 116.27 18.439 116.344 18.983C116.691 21.541 119.218 23.415 121.749 23.455C124.279 23.495 126.671 21.996 128.255 19.971C130.361 17.278 133.508 10.933 129.41 8.67701C126.722 7.19701 123.228 7.598 120.714 9.395C118.887 10.702 117.575 12.663 116.874 14.831Z" fill="#1A1A1A"/>
<path d="M166.824 11.768C164.081 7.80302 159.212 6.43302 156.474 7.73302C153.991 4.37602 148.969 2.46202 144.83 2.20702C129.022 1.23102 123.914 9.02002 123.05 11.918C115.566 12.968 110.194 24.139 114.716 39.558C116.685 46.269 126.883 54.272 127.489 57.848L134.706 55.429C134.706 55.429 135.291 44.959 146.156 40.701C157.021 36.444 163.17 33.786 164.821 31.585C171.528 24.853 169.567 15.733 166.824 11.768Z" fill="#263238"/>
<path d="M121.454 0.595026C117.248 1.10303 114.597 3.23303 113.803 7.28603C110.051 6.74503 105.935 7.44002 103.149 10.279C101.179 12.287 100.522 14.836 100.726 17.614C100.909 20.115 102.211 21.453 103.759 23.196C100.99 24.237 99.5196 27.498 100.397 30.487C100.91 32.235 107.498 38.706 102.208 39.229C104.619 40.895 108.697 39.477 108.42 36.177C108.391 40.309 111.357 43.58 115.55 43.762C121.457 44.018 126.243 40.764 127.649 35.043L130.459 5.79802C129.301 2.05802 125.549 0.101026 121.454 0.595026Z" fill="#263238"/>
<path d="M164.762 23.947C165.134 25.619 165.351 27.44 165.504 29.149C165.808 32.545 165.939 36.241 165.798 39.644C165.284 52.105 161.848 56.734 158.524 58.297C156.451 59.271 152.179 60.216 148.111 59.378L148.257 66.913C148.257 66.913 159.595 74.544 149.449 77.461C145.582 78.573 137.571 76.922 133.096 73.396C128.549 69.815 127.407 67.704 127.407 67.704L127.216 49.745C127.216 49.745 123.303 53.388 118.507 48.284C115.092 44.65 114.298 36.928 118.815 34.544C122.523 32.587 125.898 34.016 127.54 36.993C129.244 40.082 132.379 38.902 132.326 35.343C132.273 31.745 132.511 30.686 133.683 28.86C137.66 22.667 134.863 20.801 138.568 17.23C140.697 15.178 146.472 14.417 150.837 17.726C155.906 13.254 162.815 15.19 164.762 23.947Z" fill="#FFBDA7"/>
<path d="M150.255 28.418L152.892 42.468L159.88 39.186L150.255 28.418Z" fill="#F0997A"/>
<path d="M148.111 59.377C138.583 57.383 133.093 53.579 131.382 49.745C131.382 49.745 132.175 54.881 136.562 57.667C141.162 60.588 148.158 61.805 148.158 61.805L148.111 59.377Z" fill="#F0997A"/>
<path d="M158.131 24.765L162.448 26.993C161.873 28.218 160.44 28.712 159.248 28.096C158.056 27.481 157.556 25.989 158.131 24.765Z" fill="#263238"/>
<path d="M139.51 27.616L144.288 25.568C144.908 26.877 144.341 28.396 143.021 28.961C141.702 29.527 140.13 28.924 139.51 27.616Z" fill="#263238"/>
<path d="M161.103 32.125C161.458 33.113 160.769 33.447 159.818 33.786C158.866 34.126 158.012 34.342 157.657 33.354C157.302 32.366 157.785 31.291 158.737 30.951C159.687 30.612 160.747 31.138 161.103 32.125Z" fill="#263238"/>
<path d="M157.835 31.324C158.249 31.072 158.736 30.924 159.205 30.813C159.665 30.704 160.153 30.659 160.621 30.723C161.407 30.83 161.829 31.013 162.071 31.131C162.103 31.146 162.137 31.253 162.079 31.247C161.69 31.207 161.347 31.147 160.786 31.134C160.312 31.124 159.657 31.226 159.199 31.343C158.479 31.527 158.2 31.624 157.405 32.034C157.219 32.13 156.859 32.332 156.825 32.36C156.773 32.402 156.726 32.259 156.753 32.214C156.979 31.834 157.467 31.549 157.835 31.324Z" fill="#263238"/>
<path d="M142.65 32.79C142.432 33.817 143.16 34.054 144.148 34.262C145.137 34.47 146.012 34.568 146.231 33.541C146.449 32.514 145.824 31.514 144.835 31.306C143.847 31.098 142.868 31.763 142.65 32.79Z" fill="#263238"/>
<path d="M145.779 31.553C145.335 31.359 144.832 31.279 144.352 31.232C143.881 31.186 143.392 31.208 142.937 31.334C142.172 31.547 141.78 31.785 141.556 31.934C141.527 31.954 141.507 32.064 141.564 32.05C141.944 31.958 142.275 31.852 142.83 31.763C143.298 31.688 143.961 31.701 144.43 31.755C145.169 31.84 145.458 31.898 146.301 32.196C146.498 32.266 146.882 32.418 146.92 32.44C146.977 32.474 147.004 32.326 146.972 32.285C146.695 31.942 146.174 31.726 145.779 31.553Z" fill="#263238"/>
<path d="M150.909 46.9921C151.145 46.7481 150.68 46.1271 150.516 45.9871C150.313 45.8121 150.076 45.6671 149.845 45.5311C149.399 45.2671 148.908 45.0701 148.407 44.9381C147.395 44.6701 146.25 44.6801 145.278 45.0881C145.093 45.1661 145.144 45.4361 145.227 45.5611C145.28 45.6411 145.358 45.7101 145.447 45.7571C145.539 45.8041 145.643 45.8251 145.745 45.8001C145.734 45.7981 145.722 45.7971 145.71 45.7951C145.736 45.7921 145.761 45.7951 145.788 45.7901C145.938 45.7621 146.086 45.7251 146.236 45.6981C146.473 45.6551 146.715 45.6231 146.957 45.6181C147.411 45.6081 147.862 45.6741 148.299 45.7911C148.713 45.9021 149.115 46.0731 149.481 46.2991C149.79 46.4901 150.09 46.6981 150.385 46.9091C150.526 47.0101 150.656 47.1371 150.838 47.0441C150.868 47.0271 150.89 47.0111 150.909 46.9921Z" fill="#B16668"/>
</svg>
