<svg width="14" height="19" viewBox="0 0 14 19" fill="none" xmlns="http://www.w3.org/2000/svg">
<path d="M13.1875 5.00031V1.9375C13.1875 1.57283 13.0426 1.22309 12.7848 0.965228C12.5269 0.707366 12.1772 0.5625 11.8125 0.5625H2.1875C1.82283 0.5625 1.47309 0.707366 1.21523 0.965228C0.957366 1.22309 0.8125 1.57283 0.8125 1.9375V5.03125C0.812964 5.24463 0.862868 5.455 0.958295 5.64585C1.05372 5.83671 1.19207 6.00285 1.3625 6.13125L5.85445 9.5L1.3625 12.8687C1.19207 12.9971 1.05372 13.1633 0.958295 13.3541C0.862868 13.545 0.812964 13.7554 0.8125 13.9688V17.0625C0.8125 17.4272 0.957366 17.7769 1.21523 18.0348C1.47309 18.2926 1.82283 18.4375 2.1875 18.4375H11.8125C12.1772 18.4375 12.5269 18.2926 12.7848 18.0348C13.0426 17.7769 13.1875 17.4272 13.1875 17.0625V13.9997C13.1869 13.7873 13.1374 13.5778 13.0428 13.3876C12.9481 13.1975 12.8109 13.0317 12.6418 12.9031L8.14039 9.5L12.6418 6.09688C12.8111 5.96847 12.9484 5.8027 13.043 5.61249C13.1377 5.42228 13.1871 5.21277 13.1875 5.00031ZM11.3166 13.625H2.64555L7 10.3594L11.3166 13.625ZM2.1875 17.0625V15H11.8125V17.0625H2.1875ZM11.8125 5.00031L7 8.64062L2.1875 5.03125V1.9375H11.8125V5.00031Z" fill="#242424"/>
</svg>
