<svg width="156" height="400" viewBox="0 0 156 400" fill="none" xmlns="http://www.w3.org/2000/svg">
<path d="M83.4723 203.593C74.8167 208.077 68.1788 215.796 63.4057 224.296C58.6326 232.797 55.5569 242.123 52.5103 251.384L49.8447 299.141C59.9163 282.007 68.0004 261.864 70.1843 242.109C67.9507 241.91 65.7158 241.711 63.4821 241.512C67.9761 240.826 71.7483 237.57 74.1482 233.709C76.5481 229.849 77.7832 225.396 78.9892 221.013C76.2629 221.419 73.5379 221.824 70.8116 222.229C77.2154 217.955 81.8574 211.121 83.4723 203.593Z" fill="#455A64"/>
<g opacity="0.1">
<path d="M83.4723 203.593C74.8167 208.077 68.1788 215.796 63.4057 224.296C58.6326 232.797 55.5569 242.123 52.5103 251.384L49.8447 299.141C59.9163 282.007 68.0004 261.864 70.1843 242.109C67.9507 241.91 65.7158 241.711 63.4821 241.512C67.9761 240.826 71.7483 237.57 74.1482 233.709C76.5481 229.849 77.7832 225.396 78.9892 221.013C76.2629 221.419 73.5379 221.824 70.8116 222.229C77.2154 217.955 81.8574 211.121 83.4723 203.593Z" fill="black"/>
</g>
<path d="M48.3535 310.331C48.3535 310.331 26.4924 284.165 26.7447 259.186H35.5763C35.5763 259.186 25.984 252.878 26.7435 249.346C27.503 245.814 27.7554 232.441 27.7554 232.441L35.8299 234.46C35.8299 234.46 29.7743 231.432 29.0172 226.638C28.2601 221.844 30.7838 199.64 30.7838 199.64C30.7838 199.64 40.6236 209.985 43.6519 220.583C46.6791 231.18 54.6274 243.543 52.293 275.84C49.9574 308.135 48.3535 310.331 48.3535 310.331Z" fill="#455A64"/>
<path d="M59.4356 312.801C59.4356 312.801 83.1203 297.024 88.3823 276.885L81.2822 274.954C81.2822 274.954 90.3746 271.981 90.5372 268.975C90.6997 265.968 93.4224 255.163 93.4224 255.163L86.4896 255.019C86.4896 255.019 92.021 253.91 93.6784 250.222C95.3357 246.534 98.1651 228.13 98.1651 228.13C98.1651 228.13 87.9905 234.294 83.238 242.152C78.4855 250.01 69.3907 258.21 64.2015 284.687C59.011 311.161 59.4356 312.801 59.4356 312.801Z" fill="#455A64"/>
<path d="M36.7529 222.454C36.7638 222.451 36.7942 222.542 36.8427 222.723C36.8973 222.94 36.9628 223.205 37.0441 223.526C37.22 224.288 37.4578 225.322 37.7587 226.627C38.3739 229.322 39.1868 233.237 40.1174 238.09C41.9895 247.794 44.1977 261.276 45.9363 276.258C47.6628 291.246 48.5886 304.878 48.9793 314.753C49.1807 319.69 49.2826 323.688 49.2983 326.452C49.3032 327.791 49.3081 328.852 49.3105 329.633C49.3056 329.965 49.3008 330.236 49.2971 330.461C49.2911 330.648 49.2826 330.743 49.2717 330.743C49.2607 330.743 49.2474 330.649 49.2328 330.462C49.2195 330.237 49.2025 329.967 49.1831 329.636C49.1503 328.856 49.1066 327.795 49.0521 326.458C48.9611 323.698 48.7912 319.705 48.5328 314.775C48.028 304.914 47.0331 291.303 45.3078 276.332C43.5716 261.367 41.4362 247.889 39.677 238.173C38.8034 233.314 38.0584 229.387 37.5173 226.678C37.2661 225.363 37.0659 224.321 36.9191 223.554C36.8633 223.226 36.8172 222.959 36.7796 222.737C36.7517 222.552 36.742 222.456 36.7529 222.454Z" fill="#263238"/>
<path d="M45.3204 326.355C45.3204 326.355 25.3144 303.655 19.1036 289.933L23.7929 287.93C20.3933 288.491 16.9111 287.03 14.2759 284.812C11.6406 282.594 9.70541 279.675 7.8066 276.8L13.9847 275.757C8.36714 274.181 3.41813 270.347 0.486816 265.302C7.77627 266.501 14.3717 270.505 19.8061 275.51C24.2079 279.562 27.9339 284.267 31.5131 289.074C33.259 291.419 34.7866 293.918 36.0593 296.549C39.4201 303.497 45.3325 318.018 45.3204 326.355Z" fill="#455A64"/>
<path d="M88.6976 241.341C88.717 241.351 88.586 241.661 88.3179 242.242C88.0182 242.873 87.619 243.714 87.1191 244.77C86.0587 246.955 84.5506 250.129 82.721 254.067C79.058 261.94 74.2231 272.922 69.4403 285.276C64.666 297.639 60.855 309.018 58.2695 317.307C56.9737 321.451 55.9545 324.814 55.269 327.145C54.9293 328.262 54.6587 329.153 54.4561 329.821C54.2632 330.432 54.1516 330.749 54.131 330.743C54.1103 330.737 54.1807 330.408 54.3336 329.787C54.5083 329.111 54.7412 328.209 55.0324 327.078C55.6451 324.727 56.6 321.342 57.8424 317.178C60.3212 308.847 64.0715 297.429 68.8518 285.05C73.6407 272.679 78.5484 261.708 82.3181 253.878C84.2012 249.961 85.7712 246.814 86.9007 244.662C87.4455 243.628 87.8811 242.804 88.2062 242.186C88.5084 241.621 88.677 241.331 88.6976 241.341Z" fill="#263238"/>
<path d="M47.0178 336.082C46.9741 336.087 46.8576 335.51 46.6829 334.466C46.5179 333.42 46.2449 331.912 45.87 330.059C45.1238 326.354 43.828 321.283 41.797 315.887C39.7538 310.492 37.3745 305.83 35.4854 302.556C34.5427 300.918 33.7516 299.606 33.1838 298.713C32.6245 297.813 32.3309 297.304 32.3673 297.278C32.4025 297.253 32.764 297.716 33.3889 298.575C34.021 299.43 34.8739 300.71 35.8701 302.328C37.8671 305.56 40.3301 310.228 42.3879 315.663C44.4347 321.101 45.6722 326.231 46.3092 329.977C46.6307 331.85 46.837 333.374 46.928 334.433C47.0275 335.49 47.0615 336.076 47.0178 336.082Z" fill="#263238"/>
<path d="M73.4151 330.742H29.6299V339.674H73.4151V330.742Z" fill="#FF725E"/>
<path d="M33.8027 339.673L38.5394 369.717H64.9965L69.4116 339.673H33.8027Z" fill="#FF725E"/>
<path d="M70.73 339.673C70.73 339.848 62.4469 339.989 52.2322 339.989C42.0139 339.989 33.7319 339.847 33.7319 339.673C33.7319 339.499 42.0139 339.358 52.2322 339.358C62.4469 339.358 70.73 339.5 70.73 339.673Z" fill="#263238"/>
<path d="M76.714 47.9468L68.2974 47.4542C64.7498 50.7568 60.2751 53.1506 55.1745 54.171C40.5046 57.1072 26.2338 47.595 23.2977 32.9251C20.3615 18.2552 29.8737 3.98322 44.5436 1.04827C59.2123 -1.8879 73.4842 7.62431 76.4204 22.2942C77.6458 28.4201 76.6958 34.472 74.1115 39.6625L74.1212 39.6503L76.714 47.9468Z" fill="white"/>
<path d="M76.7144 47.9469C76.7144 47.9469 76.6671 47.7734 76.5615 47.4203C76.4511 47.0563 76.2922 46.5298 76.0835 45.8394C75.6504 44.4223 75.0146 42.3403 74.1871 39.6298L74.1519 39.5133L74.0694 39.6043L74.0597 39.6152L74.1738 39.6929C75.7304 36.5832 77.2131 32.1183 77.0396 26.6815C76.9995 25.3287 76.8479 23.9261 76.5749 22.4945C76.2327 21.0798 75.9306 19.5947 75.3422 18.1497C74.2708 15.2317 72.6208 12.3052 70.3301 9.68938C68.0467 7.07352 65.1275 4.77433 61.7145 3.12062C58.3088 1.46447 54.4105 0.462293 50.3472 0.378575C46.2851 0.268166 42.0847 1.18178 38.213 3.00293C34.3475 4.83014 30.7865 7.60616 28.1367 11.2024C27.8066 11.6549 27.4657 12.1002 27.1454 12.5576C26.8578 13.0368 26.5715 13.5149 26.2852 13.9905L25.8569 14.7051L25.4965 15.4537C25.2587 15.9536 25.0209 16.4511 24.7843 16.9485C24.5659 17.4532 24.3997 17.9786 24.2068 18.4906C24.0309 19.0087 23.804 19.5098 23.6924 20.0448C23.4315 21.1016 23.1076 22.1402 22.9899 23.2151C22.2959 27.4689 22.6392 31.7688 23.8319 35.672C25.0537 39.5727 27.1199 43.0537 29.6824 45.8673C32.2436 48.6882 35.289 50.8454 38.4545 52.3026C41.6224 53.767 44.9056 54.5302 48.0152 54.7352C49.5743 54.8772 51.0861 54.7656 52.542 54.6782C53.9846 54.4538 55.3884 54.2985 56.6951 53.9284C61.9608 52.5513 65.8227 49.8736 68.3427 47.5052L68.2917 47.5234C71.035 47.6654 73.1437 47.7746 74.5802 47.8498C75.2791 47.8838 75.8117 47.9105 76.1818 47.9275C76.5409 47.9444 76.7144 47.9469 76.7144 47.9469C76.7144 47.9469 76.5215 47.9287 76.1563 47.9032C75.7826 47.8777 75.2439 47.8413 74.5378 47.7928C73.1134 47.6994 71.0216 47.5635 68.3027 47.3851L68.2736 47.3839L68.2517 47.4045C65.7256 49.7413 61.8746 52.3778 56.6442 53.7209C55.3471 54.0825 53.9531 54.2305 52.5226 54.4477C51.0776 54.5278 49.5792 54.6345 48.0346 54.4889C44.9541 54.2754 41.7049 53.5098 38.5722 52.0539C35.4419 50.604 32.4329 48.4625 29.9044 45.6683C27.3747 42.8814 25.3376 39.4368 24.134 35.581C22.9583 31.7203 22.6247 27.4702 23.3114 23.2685C23.4291 22.2069 23.7506 21.1817 24.0078 20.137C24.1182 19.608 24.3427 19.113 24.5162 18.6022C24.7079 18.0963 24.8705 17.577 25.0877 17.0783C25.3218 16.5869 25.556 16.0943 25.7914 15.6017L26.1481 14.8629L26.5715 14.1567C26.8542 13.686 27.1369 13.214 27.4208 12.7408C27.7375 12.2895 28.0736 11.8502 28.3999 11.4025C31.0182 7.84881 34.5356 5.10678 38.3538 3.29897C42.1769 1.49724 46.33 0.590903 50.3435 0.695246C54.3595 0.77411 58.2154 1.7593 61.5871 3.39118C64.9649 5.02063 67.8586 7.2907 70.125 9.8738C72.3987 12.4581 74.0403 15.3518 75.1117 18.2394C75.7001 19.6699 76.0022 21.1416 76.348 22.543C76.6246 23.9613 76.7811 25.3518 76.826 26.6937C77.0214 32.0855 75.5751 36.5274 74.0512 39.6346L73.828 40.0908L74.1653 39.7135L74.175 39.7026L74.0561 39.6771C74.9127 42.356 75.5715 44.4138 76.0192 45.8151C76.2437 46.5091 76.4147 47.0381 76.5324 47.4045C76.6477 47.7588 76.7144 47.9469 76.7144 47.9469Z" fill="#263238"/>
<path d="M60.1046 23.8739C59.8668 22.5818 59.1522 21.4049 58.2119 20.4864C57.291 19.5874 56.1226 18.908 54.8486 18.7199C53.4958 18.5209 52.0665 18.9031 50.9952 19.7524C50.3582 20.2571 49.8523 20.9232 49.5223 21.6658C49.1073 21.0555 48.5613 20.5325 47.9244 20.1576C46.7463 19.4624 45.2794 19.2768 43.9666 19.6578C42.7303 20.0169 41.665 20.848 40.8751 21.8647C40.0683 22.9021 39.5199 24.1651 39.4604 25.4779C39.3852 27.1219 39.822 28.8861 40.7647 30.2365C41.7596 31.6621 43.2859 32.7637 44.8317 33.5572C47.4318 34.8918 50.8484 36.5504 50.8484 36.5504C50.8484 36.5504 53.4861 34.2816 55.8811 32.6072C57.3055 31.6111 58.6668 30.3117 59.4591 28.7647C60.2089 27.3003 60.4018 25.4925 60.1046 23.8739Z" fill="#FF725E"/>
<path d="M99.0822 90.7481C97.6178 85.8913 95.8415 80.9835 96.0526 75.9156L92.949 66.7807C88.3883 66.1231 83.5642 67.6118 80.167 70.7251C76.7698 73.8384 74.8661 78.5133 75.1221 83.1141C75.2835 85.9932 76.2335 88.7644 76.7116 91.6083C77.1896 94.4523 77.1314 97.5838 75.4849 99.9509C74.7448 101.016 73.6686 101.986 73.5958 103.281C73.5036 104.936 75.2277 106.231 76.8838 106.304C78.5388 106.376 80.0954 105.584 81.5623 104.814C81.2347 107.252 82.9042 109.804 85.2689 110.479C87.6348 111.154 90.3999 109.871 91.4094 107.627C91.191 109.885 94.0446 111.497 96.1982 110.783C98.3506 110.07 99.6779 107.88 100.308 105.701C101.719 100.826 100.548 95.6049 99.0822 90.7481Z" fill="#263238"/>
<path d="M102.872 372.279L103.413 362.741L120.057 362.402L119.602 374.078L113.492 377.622L102.872 372.279Z" fill="#FFBF9D"/>
<path d="M120.002 371.911L119.976 373.005C119.976 373.005 138.312 380.947 138.415 384.469L101.616 383.292L102.507 371.062C107.898 373.771 113.615 374.24 120.002 371.911Z" fill="#455A64"/>
<g opacity="0.6">
<path d="M106.109 375.096C105.39 375.269 104.872 376.054 105.014 376.778C105.156 377.504 105.95 378.036 106.672 377.877C107.392 377.718 108.044 376.795 107.821 376.09C107.599 375.385 106.632 374.81 105.97 375.138" fill="white"/>
</g>
<g opacity="0.6">
<path d="M101.616 383.292L101.83 380.351L137.023 382.556C137.023 382.556 138.638 383.321 138.416 384.469L101.616 383.292Z" fill="white"/>
</g>
<path d="M120.103 373.111C120.092 373.291 119.19 373.343 118.288 373.893C117.371 374.418 116.89 375.183 116.727 375.106C116.562 375.066 116.866 374.001 117.97 373.354C119.067 372.699 120.148 372.949 120.103 373.111Z" fill="#263238"/>
<path d="M123.911 374.832C123.946 375.008 123.159 375.288 122.524 376.028C121.868 376.75 121.688 377.567 121.509 377.553C121.339 377.576 121.248 376.52 122.055 375.614C122.853 374.702 123.913 374.66 123.911 374.832Z" fill="#263238"/>
<path d="M125.955 379.521C125.792 379.554 125.57 378.649 126.062 377.679C126.547 376.706 127.408 376.345 127.479 376.498C127.576 376.648 127.013 377.159 126.621 377.961C126.21 378.753 126.135 379.509 125.955 379.521Z" fill="#263238"/>
<path d="M107.799 350.981L104.39 379.344L91.4038 376.951L91.5979 348.972L107.799 350.981Z" fill="#FFBF9D"/>
<path d="M91.548 371.564C91.548 371.564 100.041 378.974 105.124 373.965L105.987 376.768L109.075 396.392C109.275 397.662 108.528 398.953 107.256 399.281C106.277 399.533 105.265 399.214 104.632 398.479C101.239 394.539 88.8315 379.989 89.1663 378.244L89.7475 373.576C89.8688 372.609 90.581 371.812 91.548 371.564Z" fill="#455A64"/>
<g opacity="0.6">
<path d="M106.79 399.358L89.3433 376.616L89.2317 377.638C89.0084 378.734 89.4549 379.226 89.9135 379.997C91.2749 382.278 95.1707 387.475 104.557 398.471C105.104 399.111 105.945 399.446 106.79 399.358Z" fill="white"/>
</g>
<g opacity="0.6">
<path d="M92.5819 373.904C93.1558 374.389 93.2602 375.324 92.7894 375.901C92.3186 376.477 91.3444 376.582 90.7608 376.107C90.1784 375.631 90.0182 374.513 90.5521 373.991C91.0859 373.469 92.2373 373.407 92.6875 374.004" fill="white"/>
</g>
<path d="M102.279 388.212C102.412 388.293 103.108 387.092 104.653 386.574C106.181 386.011 107.512 386.499 107.56 386.354C107.588 386.297 107.294 386.077 106.724 385.933C106.158 385.789 105.314 385.777 104.465 386.073C103.616 386.373 102.977 386.908 102.64 387.37C102.298 387.833 102.22 388.185 102.279 388.212Z" fill="#263238"/>
<path d="M103.69 391.631C103.797 391.748 104.677 391.051 105.996 390.834C107.31 390.588 108.39 390.939 108.445 390.794C108.53 390.679 107.395 390.038 105.895 390.31C104.394 390.566 103.569 391.552 103.69 391.631Z" fill="#263238"/>
<path d="M99.4488 383.717C99.5519 383.844 100.9 382.765 102.919 382.251C104.93 381.706 106.658 381.978 106.68 381.818C106.735 381.694 104.932 381.159 102.773 381.737C100.609 382.293 99.336 383.637 99.4488 383.717Z" fill="#263238"/>
<path d="M99.6638 377.873C99.7147 378.025 101.142 377.617 102.928 377.75C104.715 377.858 106.078 378.451 106.148 378.308C106.229 378.197 104.882 377.338 102.961 377.218C101.043 377.081 99.5982 377.753 99.6638 377.873Z" fill="#263238"/>
<path d="M103.947 377.812C103.978 377.81 104.01 377.48 103.911 376.894C103.81 376.312 103.568 375.461 102.979 374.548C102.675 374.117 102.351 373.558 101.634 373.286C101.278 373.149 100.769 373.246 100.5 373.586C100.233 373.917 100.171 374.321 100.193 374.704C100.339 376.238 101.805 377.632 103.594 377.733C105.387 377.802 106.922 376.701 107.524 375.328C107.651 374.974 107.725 374.545 107.501 374.15C107.28 373.749 106.763 373.62 106.412 373.703C105.683 373.861 105.251 374.306 104.841 374.642C104.038 375.37 103.564 376.112 103.294 376.637C103.024 377.166 102.948 377.488 102.978 377.498C103.07 377.556 103.513 376.267 105.098 374.924C105.5 374.612 105.961 374.221 106.488 374.138C106.744 374.095 106.974 374.18 107.083 374.378C107.192 374.567 107.165 374.874 107.052 375.152C106.541 376.278 105.136 377.28 103.621 377.198C102.112 377.128 100.824 375.901 100.695 374.668C100.669 374.371 100.727 374.066 100.876 373.878C101.023 373.694 101.264 373.629 101.5 373.703C101.997 373.86 102.36 374.346 102.658 374.752C103.84 376.46 103.839 377.843 103.947 377.812Z" fill="#263238"/>
<path d="M141.541 171.132C141.541 171.132 144.131 183.252 147.115 205.245C149.829 225.256 140.934 283.636 138.622 295.865C137.048 304.189 129.293 345.794 120.391 371.039L107.343 370.813C107.343 370.813 117.269 286.325 117.069 277.502C116.869 268.68 114.505 221.723 114.505 221.723L110.537 186.027L141.541 171.132Z" fill="#263238"/>
<path d="M89.848 167.172C90.9 167.543 113.847 184.318 113.847 184.318C113.847 184.318 124.71 281.097 125.548 293.811C126.386 306.525 107.344 370.812 107.344 370.812L89.3591 370.502C89.3591 370.502 90.4486 327.837 93.4952 314.838C96.5418 301.839 96.5964 298.665 94.9742 290.524C93.3508 282.383 79.2329 239.151 75.0204 217.56C70.8066 195.97 89.848 167.172 89.848 167.172Z" fill="#263238"/>
<path d="M122.879 210.295C122.888 210.294 122.911 210.434 122.949 210.71C122.987 211.011 123.036 211.416 123.099 211.933C123.219 213.038 123.392 214.62 123.613 216.643C124.038 220.735 124.622 226.66 125.251 233.991C125.873 241.321 126.567 250.054 127.067 259.773C127.284 264.633 127.51 269.738 127.466 275.04C127.456 276.365 127.386 277.703 127.348 279.052C127.285 280.4 127.125 281.763 126.982 283.126C126.561 285.834 126.06 288.563 125.545 291.322C121.269 313.372 116.908 333.224 113.797 347.604C112.211 354.765 110.926 360.57 110.031 364.615C109.577 366.597 109.222 368.148 108.973 369.232C108.85 369.738 108.755 370.135 108.684 370.43C108.616 370.699 108.576 370.836 108.568 370.834C108.559 370.832 108.58 370.691 108.631 370.418C108.689 370.121 108.768 369.72 108.867 369.208C109.093 368.12 109.415 366.562 109.827 364.57C110.683 360.517 111.91 354.701 113.426 347.524C116.441 333.126 120.743 313.258 125.018 291.223C127.74 280.256 126.898 269.493 126.572 259.797C126.1 250.087 125.445 241.354 124.872 234.022C124.292 226.69 123.767 220.761 123.404 216.663C123.227 214.637 123.087 213.053 122.991 211.945C122.95 211.426 122.917 211.019 122.894 210.717C122.875 210.438 122.87 210.296 122.879 210.295Z" fill="#455A64"/>
<path d="M94.5895 57.3704C99.7254 51.0929 106.623 47.4785 114.734 47.3438C119.309 47.2686 121.203 48.2186 124.498 49.1079C127.794 49.9973 130.766 51.765 132.732 54.5544C135.066 57.8679 137.028 61.5793 137.47 65.6087C137.923 69.7484 137.183 75.1888 135.809 79.1199C133.804 84.8478 133.24 86.4506 130.795 89.8211L123.615 91.6083C117.78 91.8073 111.864 91.999 106.18 90.6668C100.496 89.3358 94.9717 86.2771 91.9275 81.2953C87.6968 74.3759 89.4536 63.648 94.5895 57.3704Z" fill="#263238"/>
<path d="M103.991 57.3014L118.076 51.702L121.756 52.1291C130.036 52.1582 135.746 61.2895 135.8 67.9953C135.861 75.4449 135.64 84.5434 134.456 90.0335C132.075 101.074 122.652 101.994 122.652 101.994C122.652 101.994 122.845 107.879 122.915 111.585C115.029 120.356 106.562 120.757 100.137 110.097L100.268 61.0808C100.339 59.0473 101.957 57.4045 103.991 57.3014Z" fill="#FFBF9D"/>
<path d="M132.446 77.0573C132.431 77.8132 131.778 78.4247 130.989 78.4235C130.201 78.4223 129.573 77.8108 129.587 77.0549C129.602 76.299 130.254 75.6875 131.042 75.6887C131.832 75.6887 132.46 76.3014 132.446 77.0573Z" fill="#263238"/>
<path d="M133.276 71.7201C133.089 71.8973 132.05 71.037 130.512 70.9558C128.977 70.8538 127.806 71.583 127.65 71.3852C127.572 71.2979 127.771 70.9715 128.282 70.6403C128.785 70.3115 129.628 70.0106 130.586 70.0664C131.543 70.1246 132.329 70.5214 132.772 70.9072C133.226 71.2967 133.368 71.6425 133.276 71.7201Z" fill="#263238"/>
<path d="M123.397 83.7767C123.395 83.6893 124.359 83.5765 125.918 83.4636C126.313 83.4442 126.689 83.3872 126.77 83.1227C126.878 82.8436 126.737 82.4117 126.572 81.9446C126.255 80.9739 125.923 79.9572 125.575 78.892C124.197 74.5484 123.221 70.9837 123.397 70.9303C123.573 70.8757 124.832 74.3542 126.211 78.6978C126.541 79.7692 126.857 80.7895 127.158 81.765C127.283 82.2188 127.51 82.7393 127.277 83.3168C127.155 83.6044 126.855 83.8009 126.6 83.8555C126.344 83.9186 126.123 83.9101 125.928 83.9113C124.365 83.9101 123.398 83.864 123.397 83.7767Z" fill="#263238"/>
<path d="M122.67 101.983C122.67 101.983 115.15 102.055 107.971 97.1859C107.971 97.1859 111.521 105.124 122.727 104.694L122.67 101.983Z" fill="#FF9A6C"/>
<path d="M133.246 63.909C132.967 64.2706 131.804 63.9551 130.423 63.9939C129.041 63.9879 127.882 64.3324 127.598 63.9782C127.472 63.8059 127.643 63.448 128.141 63.0961C128.631 62.7467 129.462 62.4421 130.412 62.43C131.362 62.4191 132.197 62.703 132.692 63.0415C133.193 63.38 133.368 63.7331 133.246 63.909Z" fill="#263238"/>
<path d="M115.597 76.5005C115.557 77.2552 116.164 77.9116 116.951 77.9674C117.737 78.0232 118.408 77.459 118.448 76.7043C118.488 75.9497 117.882 75.2921 117.096 75.2363C116.308 75.1792 115.637 75.7458 115.597 76.5005Z" fill="#263238"/>
<path d="M112.472 71.1256C112.645 71.3149 113.743 70.5323 115.283 70.5627C116.822 70.5712 117.937 71.3828 118.108 71.1972C118.191 71.1147 118.015 70.775 117.531 70.4086C117.053 70.0434 116.233 69.683 115.275 69.6697C114.316 69.6588 113.503 69.9973 113.032 70.3503C112.552 70.7058 112.386 71.0407 112.472 71.1256Z" fill="#263238"/>
<path d="M113.397 64.8286C113.694 65.1829 114.888 64.8419 116.316 64.8492C117.744 64.8128 118.949 65.1295 119.234 64.7691C119.359 64.5932 119.175 64.2401 118.652 63.9004C118.137 63.5619 117.271 63.2768 116.29 63.2865C115.308 63.2974 114.453 63.5995 113.949 63.9489C113.438 64.2984 113.266 64.6551 113.397 64.8286Z" fill="#263238"/>
<path d="M102.181 79.8006C102.225 78.9707 101.373 76.9628 100.562 76.7893C98.3936 76.3282 94.4406 76.287 94.0985 81.8414C93.6314 89.433 101.35 88.3361 101.377 88.119C101.398 87.9503 102.031 82.6652 102.181 79.8006Z" fill="#FFBF9D"/>
<path d="M99.4525 85.2179C99.4209 85.1913 99.3141 85.3029 99.0848 85.3915C98.8604 85.4776 98.4818 85.5237 98.0948 85.3514C97.311 85.008 96.7141 83.6928 96.7614 82.3218C96.7844 81.629 96.9688 80.9811 97.2479 80.4509C97.5136 79.9098 97.897 79.5446 98.3047 79.4973C98.7123 79.4281 98.9829 79.6878 99.063 79.9074C99.1516 80.1258 99.0933 80.275 99.1334 80.2908C99.154 80.3114 99.3044 80.1743 99.262 79.8564C99.2401 79.7035 99.1625 79.5191 98.9926 79.3614C98.8191 79.2025 98.557 79.1102 98.2731 79.1236C97.6847 79.1284 97.1254 79.6344 96.8196 80.2155C96.4811 80.7979 96.2566 81.5259 96.2312 82.3036C96.1851 83.836 96.8803 85.3162 97.9589 85.7008C98.4842 85.8731 98.9404 85.7397 99.1807 85.5747C99.427 85.4012 99.4779 85.2325 99.4525 85.2179Z" fill="#FF9A6C"/>
<path d="M100.251 76.8122L102.18 78.8129C110.51 70.8404 126.788 50.8769 125.88 52.0671C125.88 52.0671 120.174 49.7206 113.98 50.775C107.786 51.8305 96.0388 54.9305 96.2183 62.2345C96.3991 69.5397 100.251 76.8122 100.251 76.8122Z" fill="#263238"/>
<path d="M89.2198 75.1354C89.2064 75.1318 89.2465 74.9814 89.3363 74.6962C89.4273 74.4135 89.5898 74.0022 89.8543 73.4999C90.3821 72.5002 91.3916 71.1474 93.0271 69.9292C94.6371 68.6783 96.8708 67.6579 99.4151 66.856C101.955 66.0285 104.817 65.3867 107.628 64.1806C110.456 63.0195 112.978 61.5223 115.128 59.979C117.272 58.4212 119.042 56.805 120.422 55.3515C121.803 53.8968 122.806 52.6155 123.483 51.7189C123.794 51.2918 124.046 50.9461 124.245 50.6719C124.421 50.4328 124.519 50.3115 124.53 50.3188C124.541 50.3261 124.466 50.462 124.309 50.7155C124.15 50.9655 123.927 51.344 123.606 51.8075C122.964 52.7345 121.987 54.0497 120.622 55.5396C119.257 57.0283 117.491 58.6808 115.338 60.269C113.179 61.8414 110.636 63.3653 107.776 64.5398C104.929 65.7616 102.047 66.3961 99.5231 67.1981C96.9897 67.9758 94.7924 68.9513 93.1897 70.15C91.5651 71.3172 90.5459 72.613 89.9854 73.5727C89.4297 74.5434 89.2598 75.15 89.2198 75.1354Z" fill="#455A64"/>
<path d="M122.581 87.2576C121.539 86.6121 120.545 85.9218 119.411 85.4899C119.199 85.4098 118.975 85.3309 118.752 85.3613C118.465 85.4013 118.226 85.6148 118.044 85.8538C117.329 86.7917 117.328 88.2513 118.002 89.2316C118.677 90.212 119.95 90.6585 121.048 90.3418C122.145 90.0251 122.82 88.7742 123.041 87.5864L122.581 87.2576Z" fill="#FF9A6C"/>
<path d="M122.266 89.6428C122.308 89.6659 121.721 90.2956 120.424 90.3659C119.792 90.3926 118.989 90.1766 118.346 89.5979C117.699 89.0434 117.231 88.0801 117.348 87.0718C117.399 86.5732 117.571 86.0951 117.858 85.7057C118.011 85.514 118.147 85.3405 118.403 85.1937C118.529 85.1221 118.717 85.0905 118.861 85.1221C119.007 85.1488 119.116 85.2046 119.212 85.2531C119.856 85.6062 120.471 85.9435 121.063 86.2674C122.109 86.8583 122.739 87.2563 122.705 87.3218C122.671 87.3873 121.981 87.1082 120.891 86.6035C120.284 86.3123 119.652 86.0102 118.992 85.6935C118.81 85.6098 118.731 85.5904 118.642 85.645C118.535 85.7045 118.389 85.8646 118.282 86.0126C118.062 86.3232 117.922 86.7151 117.881 87.1264C117.786 87.96 118.147 88.7401 118.679 89.2376C119.209 89.7459 119.868 89.9667 120.43 89.9898C121.574 90.0262 122.228 89.5518 122.266 89.6428Z" fill="#263238"/>
<path d="M101.914 89.0797C101.914 90.5539 100.719 91.7502 99.2437 91.7502C97.7683 91.7502 96.5732 90.5551 96.5732 89.0797C96.5732 87.6056 97.7683 86.4093 99.2437 86.4093C100.719 86.4093 101.914 87.6056 101.914 89.0797Z" fill="#455A64"/>
<path d="M137.314 109.82C137.314 109.82 145.247 112.569 147.61 119.635C149.918 126.535 153.179 135.61 153.179 135.61L138.125 139.831L137.314 109.82Z" fill="#5BB85F"/>
<path d="M84.9987 110.301L95.1394 106.447L100.138 104.672C102.391 108.471 107.34 110.341 112.38 110.301C117.724 110.26 120.056 108.03 122.708 104.708L124.79 105.616L137.317 109.383L143.536 135.464L142.243 171.132L147.676 196.913C128.453 204.722 95.9608 203.031 75.4307 193.71L89.5558 164.881L84.551 113.375L84.9987 110.301Z" fill="#5BB85F"/>
<path d="M142.877 138.608L143.16 139.055L128.828 116.357L120.427 123.204C120.427 123.204 129.153 147.71 134.395 156.345C139.488 164.734 149.786 167.884 154.97 157.289C157.627 151.857 151.789 136.102 151.789 136.102L142.877 138.608Z" fill="#FFBF9D"/>
<path d="M147.675 146.066L128.977 116.357L132.977 103.843C133.612 102.058 133.717 100.132 133.282 98.2886C132.56 95.2348 131.418 90.7104 130.797 89.8223C129.842 88.4561 129.37 89.2023 129.37 89.2023L118.734 118.904L122.44 128.87" fill="#FFBF9D"/>
<path d="M122.439 128.87C122.422 128.876 122.321 128.653 122.14 128.217C121.946 127.732 121.691 127.092 121.37 126.285C120.696 124.535 119.747 122.067 118.556 118.969L118.532 118.906L118.555 118.839C121.072 111.722 124.789 101.218 129.076 89.0968L129.087 89.0665L129.107 89.0362C129.319 88.6952 129.791 88.6151 130.081 88.7547C130.375 88.8736 130.563 89.0616 130.734 89.2448C131.071 89.5979 131.322 90.0966 131.469 90.5212C131.798 91.4009 132.058 92.2926 132.312 93.1953C132.809 95.0092 133.277 96.8267 133.694 98.7364C133.996 100.373 133.874 102.063 133.385 103.611C132.902 105.111 132.426 106.59 131.958 108.046C131.024 110.953 130.12 113.764 129.257 116.448L129.226 116.201C134.632 124.877 139.263 132.308 142.578 137.628C144.178 140.238 145.458 142.326 146.372 143.816C146.783 144.507 147.111 145.057 147.361 145.477C147.58 145.857 147.688 146.058 147.674 146.068C147.659 146.078 147.523 145.893 147.276 145.531C147.005 145.123 146.651 144.59 146.206 143.921C145.258 142.454 143.928 140.395 142.267 137.824C138.905 132.535 134.207 125.145 128.723 116.517L128.649 116.402L128.692 116.27C129.546 113.581 130.441 110.764 131.367 107.852C132.176 104.918 133.757 101.983 133.072 98.8517C132.668 97.0099 132.193 95.1524 131.706 93.3664C131.456 92.4734 131.197 91.5865 130.885 90.7481C130.725 90.3089 130.562 89.9777 130.272 89.6658C130.138 89.5178 129.986 89.3868 129.858 89.3371C129.733 89.28 129.671 89.3298 129.626 89.371L129.656 89.3104C125.275 101.398 121.48 111.873 118.907 118.97L118.905 118.842C120.027 121.965 120.921 124.452 121.555 126.219C121.838 127.039 122.064 127.69 122.233 128.184C122.385 128.628 122.454 128.864 122.439 128.87Z" fill="#FF9A6C"/>
<path d="M118.538 126.136L119.878 121.622C119.878 121.622 127.898 105.15 128.439 103.085C128.98 101.02 131.244 93.3991 129.574 91.9153C129.574 91.9153 130.81 87.9781 129.218 87.6906C127.625 87.403 126.872 89.5033 126.872 89.5033C126.872 89.5033 127.112 87.3654 126.298 86.9966C125.03 86.4227 124.024 88.2135 124.024 88.2135C124.024 88.2135 122.637 87.1228 121.081 89.684C121.081 89.684 114.188 101.37 113.33 102.17C112.472 102.97 111.07 100.526 111.07 100.526C111.07 100.526 109.99 97.1773 108.751 95.8293C107.812 94.8078 106.24 95.6304 106.24 95.6304C106.24 95.6304 106.11 99.9388 107.8 105.15C108.522 107.375 110.459 115.32 110.459 115.32L107.06 122.62" fill="#FFBF9D"/>
<path d="M107.059 122.62C107.046 122.614 107.109 122.44 107.246 122.113C107.406 121.743 107.612 121.267 107.869 120.673C108.457 119.367 109.277 117.544 110.308 115.249L110.297 115.359C109.654 112.968 108.884 110.105 108.005 106.844C107.605 105.204 106.97 103.483 106.61 101.603C106.235 99.7253 105.961 97.7391 105.961 95.6219V95.4533L106.11 95.3841C106.739 95.0917 107.445 94.9133 108.192 95.1414C108.554 95.2494 108.892 95.526 109.099 95.7978C109.327 96.066 109.512 96.3547 109.692 96.6471C110.382 97.8301 110.897 99.1004 111.354 100.434L111.329 100.377C111.662 100.922 112.074 101.503 112.556 101.862C112.822 102.046 112.992 102.068 113.129 101.937C113.315 101.726 113.523 101.419 113.719 101.135C114.503 99.9606 115.264 98.7231 116.036 97.4697C117.554 94.9412 119.12 92.3327 120.719 89.6707C121.065 89.1017 121.462 88.5217 122.046 88.0934C122.613 87.6603 123.511 87.4637 124.219 87.9624L123.749 88.0558C124.023 87.6105 124.333 87.2271 124.771 86.9177C125.183 86.6011 125.844 86.4482 126.378 86.6909C126.699 86.8146 126.897 87.1167 126.992 87.3582C127.094 87.6118 127.145 87.8605 127.175 88.1031C127.231 88.5921 127.226 89.0556 127.18 89.5348L126.578 89.3953C126.859 88.7122 127.246 88.091 127.897 87.6615C128.221 87.454 128.625 87.3388 129.018 87.3618C129.204 87.3618 129.419 87.4213 129.63 87.5147C129.823 87.6421 129.982 87.8022 130.078 87.9891C130.427 88.728 130.341 89.428 130.275 90.0844C130.19 90.7469 130.047 91.3754 129.859 92.0039L129.772 91.6908C130.165 92.107 130.325 92.6057 130.389 93.0655C130.467 93.5314 130.477 93.9888 130.46 94.4353C130.428 95.3307 130.317 96.1982 130.165 97.0415C129.871 98.7304 129.46 100.338 129.043 101.882C128.834 102.638 128.648 103.432 128.327 104.155C128.034 104.877 127.726 105.568 127.42 106.245C126.797 107.592 126.197 108.886 125.626 110.122C123.295 115.038 121.344 118.983 119.994 121.676L120.001 121.657C119.553 123.071 119.202 124.183 118.946 124.994C118.829 125.34 118.734 125.621 118.657 125.851C118.589 126.043 118.548 126.139 118.537 126.135C118.526 126.131 118.544 126.029 118.591 125.832C118.652 125.596 118.726 125.31 118.817 124.957C119.045 124.137 119.357 123.013 119.754 121.584L119.756 121.575L119.762 121.564C121.063 118.78 122.919 114.809 125.203 109.925C125.762 108.687 126.347 107.39 126.956 106.04C127.254 105.363 127.556 104.669 127.837 103.961C128.14 103.269 128.306 102.526 128.516 101.743C128.921 100.203 129.318 98.6054 129.598 96.9456C129.743 96.1169 129.846 95.27 129.871 94.4207C129.891 93.6006 129.835 92.6445 129.373 92.1385L129.237 91.9905L129.285 91.8255C129.458 91.2431 129.596 90.6244 129.672 90.0104C129.748 89.4099 129.767 88.7377 129.541 88.2875C129.375 87.8665 128.668 87.9042 128.225 88.1869C127.755 88.4853 127.385 89.0519 127.163 89.6088L126.355 91.6387L126.561 89.4693C126.601 89.0507 126.604 88.6018 126.554 88.1844C126.506 87.778 126.364 87.3412 126.137 87.2732C125.484 86.9614 124.717 87.6615 124.297 88.3676L124.121 88.6625L123.828 88.4598C123.454 88.2038 122.855 88.2621 122.411 88.6091C121.948 88.9476 121.586 89.456 121.262 89.9934C119.678 92.6675 118.113 95.281 116.566 97.7961C115.789 99.0531 115.025 100.287 114.225 101.48C114.014 101.779 113.832 102.066 113.546 102.381C113.369 102.541 113.073 102.681 112.817 102.62C112.564 102.585 112.371 102.472 112.208 102.358C111.574 101.872 111.189 101.284 110.81 100.675L110.797 100.653L110.785 100.617C110.349 99.3273 109.841 98.0618 109.194 96.9432C108.852 96.4033 108.51 95.8282 108.011 95.6789C107.507 95.5054 106.868 95.6401 106.367 95.8755L106.517 95.6377C106.504 97.6724 106.758 99.6573 107.112 101.502C107.452 103.36 108.055 105.042 108.445 106.707C109.278 109.99 110.01 112.872 110.62 115.278L110.635 115.335L110.609 115.388C109.517 117.653 108.65 119.456 108.028 120.744C107.738 121.324 107.507 121.788 107.327 122.148C107.163 122.467 107.072 122.626 107.059 122.62Z" fill="#FF9A6C"/>
<path d="M117.88 101.756C117.92 101.784 118.442 101.125 119.169 99.98C119.896 98.8359 120.804 97.1919 121.645 95.2991C122.484 93.4052 123.102 91.635 123.497 90.3404C123.891 89.0446 124.074 88.2269 124.024 88.2123C123.969 88.1953 123.691 88.984 123.23 90.2518C122.769 91.5185 122.113 93.2608 121.282 95.139C120.449 97.0159 119.589 98.6636 118.927 99.8369C118.269 101.01 117.831 101.722 117.88 101.756Z" fill="#FF9A6C"/>
<path d="M121.448 102.987C121.498 103.01 121.879 102.305 122.451 101.145C123.021 99.9837 123.783 98.3663 124.542 96.5403C125.301 94.7143 125.891 93.0206 126.26 91.7782C126.63 90.5358 126.794 89.7496 126.746 89.7362C126.69 89.7204 126.429 90.4763 125.993 91.6908C125.558 92.9053 124.929 94.5712 124.175 96.3899C123.428 98.137 122.754 99.718 122.195 101.03C121.69 102.217 121.399 102.964 121.448 102.987Z" fill="#FF9A6C"/>
<path d="M125.308 103.744C125.349 103.769 125.773 103.196 126.33 102.191C126.89 101.186 127.557 99.7373 128.13 98.08C128.701 96.4214 129.085 94.8793 129.313 93.7558C129.541 92.6311 129.623 91.9262 129.572 91.9165C129.447 91.8898 128.886 94.6658 127.755 97.9514C127.187 99.5917 126.571 101.037 126.08 102.064C125.593 103.09 125.255 103.712 125.308 103.744Z" fill="#FF9A6C"/>
<path d="M74.4106 137.774C74.4106 137.774 82.2716 163.736 85.107 167.86C90.2987 175.41 101.335 177.046 105.427 169.101C109.8 160.612 119.879 121.62 119.879 121.62L109.77 117.13L95.9842 145.999L91.3458 132.881L74.4106 137.774Z" fill="#FFBF9D"/>
<path d="M84.9988 110.302C84.9988 110.302 74.4116 114.655 73.5951 129.012C73.3949 132.524 75.7535 151.534 75.7535 151.534L95.5059 142.897L90.7692 126.136L84.9988 110.302Z" fill="#5BB85F"/>
<path d="M95.9221 145.293C95.7571 145.35 94.198 141.281 92.4399 136.205C90.6807 131.128 89.3897 126.967 89.5547 126.91C89.7197 126.853 91.2788 130.922 93.0369 135.998C94.7949 141.074 96.0871 145.236 95.9221 145.293Z" fill="#263238"/>
<path d="M94.2335 83.1979C94.185 83.2488 93.4849 82.6907 92.6125 81.5466C91.7402 80.4097 90.7562 78.6407 90.1847 76.5102C89.6206 74.3772 89.5939 72.3523 89.7856 70.9327C89.9736 69.5059 90.3024 68.6748 90.3704 68.6942C90.5766 68.7124 89.6557 72.2079 90.7962 76.3476C91.8651 80.5044 94.4034 83.079 94.2335 83.1979Z" fill="#455A64"/>
<path d="M140.763 123.013C140.934 122.979 141.751 126.349 142.589 130.537C143.261 133.898 143.741 136.766 143.81 137.755L143.843 138.222L143.632 137.83C143.496 137.578 143.446 137.448 143.476 137.428C143.503 137.409 143.608 137.501 143.795 137.718L143.616 137.794C143.3 136.854 142.641 134.023 141.969 130.662C141.131 126.472 140.592 123.047 140.763 123.013Z" fill="#263238"/>
<path d="M92.2945 158.719C91.5229 154.776 92.9291 148.287 95.9829 145.998L92.2945 158.719Z" fill="#FFBF9D"/>
<path d="M95.9831 145.998C96.0486 146.083 95.4456 146.567 94.788 147.591C94.1134 148.6 93.4376 150.165 92.9729 151.973C91.9901 155.622 92.4536 158.698 92.2947 158.719C92.2219 158.737 91.961 157.986 91.8736 156.72C91.779 155.458 91.8821 153.692 92.3614 151.817C92.8419 149.945 93.6184 148.328 94.4252 147.331C95.2187 146.316 95.9515 145.94 95.9831 145.998Z" fill="#FF9A6C"/>
</svg>
