<svg width="242" height="400" viewBox="0 0 242 400" fill="none" xmlns="http://www.w3.org/2000/svg">
<g clip-path="url(#clip0_293_3109)">
<path d="M160.135 399.279C204.912 399.279 241.212 378.321 241.212 352.469C241.212 326.617 204.912 305.659 160.135 305.659C115.357 305.659 79.0581 326.617 79.0581 352.469C79.0581 378.321 115.357 399.279 160.135 399.279Z" fill="#E0E0E0"/>
<path d="M32.6343 384.425L8.42145 370.445C4.18894 368.002 4.18894 364.04 8.42145 361.596L82.9564 318.564C87.1889 316.12 94.051 316.12 98.2835 318.564L122.497 332.543C126.73 334.986 126.73 338.948 122.497 341.392L47.9614 384.426C43.7298 386.869 36.8668 386.869 32.6343 384.425Z" fill="#E0E0E0"/>
<path d="M107.453 240.339L88.921 229.639C88.8983 229.626 88.8747 229.613 88.852 229.599L88.7151 229.52L88.7131 229.526C79.5712 224.348 66.9969 225.146 53.1131 233.162C25.1712 249.294 2.52002 288.527 2.52002 320.792C2.52002 336.825 8.11707 348.112 17.1722 353.44L17.1683 353.445L17.3062 353.525C17.3289 353.538 17.3506 353.551 17.3732 353.564L35.9072 364.263L39.124 355.798C43.5693 354.706 48.2589 352.805 53.1141 350.001C81.056 333.869 103.707 294.635 103.707 262.371C103.707 256.812 103.021 251.836 101.763 247.467L107.453 240.339Z" fill="#B565A7"/>
<path opacity="0.4" d="M107.453 240.339L88.921 229.639C88.8983 229.626 88.8747 229.613 88.852 229.599L88.7151 229.52L88.7131 229.526C79.5712 224.348 66.9969 225.146 53.1131 233.162C25.1712 249.294 2.52002 288.527 2.52002 320.792C2.52002 336.825 8.11707 348.112 17.1722 353.44L17.1683 353.445L17.3062 353.525C17.3289 353.538 17.3506 353.551 17.3732 353.564L35.9072 364.263L39.124 355.798C43.5693 354.706 48.2589 352.805 53.1141 350.001C81.056 333.869 103.707 294.635 103.707 262.371C103.707 256.812 103.021 251.836 101.763 247.467L107.453 240.339Z" fill="#FAFAFA"/>
<path opacity="0.4" d="M2.9624 312.904C2.68062 315.567 2.51904 318.204 2.51904 320.792C2.51904 336.825 8.11609 348.112 17.1713 353.44L17.1673 353.445L17.3053 353.525C17.3279 353.538 17.3496 353.551 17.3722 353.564L35.9053 364.263L39.122 355.798C40.1722 355.54 41.2383 355.229 42.3151 354.879L47.0974 338.385L2.9624 312.904Z" fill="#B565A7"/>
<path d="M107.616 323.061C127.374 288.84 127.374 251.852 107.617 240.444C87.8593 229.037 55.8258 247.531 36.0678 281.752C16.3099 315.972 16.3095 352.961 36.0669 364.369C55.8243 375.776 87.8577 357.282 107.616 323.061Z" fill="#B565A7"/>
<path d="M49.2552 359.771C36.7074 359.771 29.2168 349.244 29.2168 331.611C29.2168 302.433 50.5626 265.459 75.8296 250.873C82.4513 247.051 88.8887 245.031 94.4454 245.031C106.993 245.031 114.484 255.558 114.484 273.191C114.486 302.367 93.1399 339.34 67.871 353.93C61.2493 357.752 54.8119 359.772 49.2572 359.772C49.2552 359.771 49.2552 359.771 49.2552 359.771Z" fill="#B565A7"/>
<path opacity="0.15" d="M49.2552 359.771C36.7074 359.771 29.2168 349.244 29.2168 331.611C29.2168 302.433 50.5626 265.459 75.8296 250.873C82.4513 247.051 88.8887 245.031 94.4454 245.031C106.993 245.031 114.484 255.558 114.484 273.191C114.486 302.367 93.1399 339.34 67.871 353.93C61.2493 357.752 54.8119 359.772 49.2572 359.772C49.2552 359.771 49.2552 359.771 49.2552 359.771Z" fill="black"/>
<path d="M109.829 270.424C109.829 259.196 106.781 250.866 101.336 246.284C99.2513 245.47 96.9557 245.031 94.4473 245.031C88.8897 245.031 82.4532 247.051 75.8316 250.873C50.5646 265.459 29.2188 302.433 29.2188 331.611C29.2188 342.838 32.266 351.168 37.7114 355.751C39.7961 356.565 42.0917 357.004 44.6 357.004C44.6 357.004 44.6 357.004 44.602 357.004C50.1567 357.004 56.5941 354.983 63.2158 351.162C88.4838 336.571 109.831 299.6 109.829 270.424Z" fill="#FAFAFA"/>
<path d="M84.8915 308.722C84.6284 308.722 84.3595 308.675 84.0994 308.573L63.9062 300.797L84.0324 262.97C84.6048 261.896 85.9407 261.488 87.0166 262.059C88.0925 262.632 88.5003 263.967 87.9279 265.043L70.1437 298.47L85.6856 304.456C86.8225 304.895 87.39 306.17 86.9516 307.307C86.6136 308.185 85.7782 308.722 84.8915 308.722Z" fill="#37474F"/>
<path d="M67.1943 307.965C71.1785 305.664 74.409 300.069 74.409 295.468C74.409 290.867 71.1785 289.002 67.1943 291.302C63.21 293.603 59.9795 299.198 59.9795 303.799C59.9795 308.4 63.21 310.265 67.1943 307.965Z" fill="#455A64"/>
<path d="M67.194 343.816C66.6019 344.158 66.1221 343.841 66.1221 343.11V334.616C66.1221 333.885 66.6019 333.015 67.194 332.674C67.7861 332.332 68.2659 332.648 68.2659 333.379V341.874C68.2659 342.605 67.7861 343.474 67.194 343.816Z" fill="#B565A7"/>
<path d="M67.109 269.578C66.5169 269.92 66.0381 269.604 66.0381 268.873V260.378C66.0381 259.647 66.5179 258.777 67.109 258.436C67.7011 258.095 68.1809 258.41 68.1809 259.142V267.636C68.1809 268.367 67.7011 269.236 67.109 269.578Z" fill="#B565A7"/>
<path d="M31.1821 322.3C31.1851 321.618 31.7014 320.769 32.3339 320.404L39.6905 316.157C40.324 315.791 40.8344 316.047 40.8314 316.729C40.8284 317.411 40.3122 318.259 39.6797 318.625L32.323 322.872C31.6895 323.237 31.1792 322.981 31.1821 322.3Z" fill="#B565A7"/>
<path d="M95.1455 285.281C95.1485 284.599 95.6647 283.751 96.2972 283.385L103.654 279.138C104.287 278.772 104.798 279.029 104.795 279.71C104.792 280.392 104.276 281.24 103.643 281.606L96.2864 285.853C95.6539 286.219 95.1426 285.962 95.1455 285.281Z" fill="#B565A7"/>
<path d="M118.477 334.863C119.447 321.511 117.841 306.831 118.953 285.981C119.052 280.637 119.245 274.912 119.603 269.827C120.809 252.715 123.446 246.865 123.691 243.563C123.691 243.563 124.986 210.77 126.105 173.328C126.631 155.714 131.734 150.38 135.813 141.032H184.288C189.704 164.101 191.246 214.41 191.085 238.186C191.002 250.308 186.109 315.152 186.012 316.643C185.665 321.935 186.126 324.024 188.201 326.249C192.545 330.909 198.84 335.346 204.283 339.409C203.495 341.491 196.949 341.415 193.708 339.83C188.532 337.298 183.394 333.435 181.628 332.128C177.156 328.818 171.44 326.162 171.368 321.124C171.355 320.497 171.185 320.324 171.218 320.225C171.133 317.283 164.276 273.906 163.706 263.84C163.215 255.186 164.268 240.499 164.268 240.499L158.684 203.838C158.684 203.838 154.398 231.675 150.915 246.471C148.081 258.514 143.406 279.065 140.215 293.887C137.151 310.962 132.756 327.561 131.977 336.108C131.742 338.149 129.432 358.179 128.477 362.767C127.523 367.356 117.523 367.477 116.882 359.586C116.455 354.333 118.295 337.376 118.477 334.863Z" fill="#9E6767"/>
<path d="M213.544 344.732C213.821 344.729 214.271 347.775 212.781 349.088C211.062 350.603 205.995 353.114 199.256 352.316C192.516 351.518 188.85 349.475 186.133 347.25C183.416 345.025 179.607 341.887 176.556 341.248C173.721 340.655 170.636 339.407 169.722 338.542C168.808 337.678 168.892 333.79 168.892 333.79L213.544 344.732Z" fill="#263238"/>
<path d="M171.077 318.801C171.077 318.801 170.57 318.823 170.405 319.724C170.209 320.797 170.019 323.914 169.592 325.677C169.001 328.127 168.64 333.138 169.033 335.126C169.425 337.113 174.049 338.447 177.008 339.538C180.029 340.652 183.535 342.976 186.617 345.463C189.807 348.036 196.488 350.581 200.875 350.599C207.573 350.626 211.89 348.763 213.203 346.342C214.828 343.347 213.51 341.635 205.777 338.152C204.313 337.493 199.164 334.519 197.408 333.439C195.553 332.3 193.774 331.029 192.13 329.598C191.299 328.874 190.504 328.109 189.756 327.299C189.099 326.585 188.175 325.723 187.779 324.831C187.69 324.629 187.627 324.391 187.547 324.181C187.315 323.575 187.156 323.016 187.026 322.383C186.895 321.745 186.807 320.813 186.194 320.436C185.491 320.004 184.231 320.072 183.441 320.141C182.446 320.227 181.447 320.365 180.477 320.593C179.347 320.859 178.038 320.974 177.377 322.045C176.872 322.866 176.804 323.897 176.774 324.839C176.759 325.289 176.774 325.741 176.774 326.19C176.774 326.382 176.86 326.726 176.59 326.649C176.333 326.576 176.041 325.907 175.941 325.681C175.722 325.18 175.579 324.643 175.341 324.151C175.068 323.588 174.761 323.011 174.367 322.532C173.998 322.085 173.597 321.656 173.135 321.304C172.714 320.984 172.181 320.829 171.808 320.465C171.336 320.003 171.121 319.181 171.077 318.801Z" fill="#37474F"/>
<path d="M207.024 338.725C197.336 339.497 194.347 345.516 193.976 349.226C196.386 350.051 198.87 350.59 200.875 350.598C207.573 350.625 212.165 348.762 213.478 346.34C215.01 343.515 213.925 341.26 207.024 338.725Z" fill="#FAFAFA"/>
<path d="M192.492 338.979C192.387 338.98 192.28 338.947 192.191 338.876C191.987 338.712 191.955 338.415 192.118 338.211C193.45 336.544 197.319 334.314 200.846 334.661C201.107 334.686 201.298 334.918 201.271 335.177C201.247 335.436 201.021 335.628 200.754 335.603C197.461 335.29 193.912 337.481 192.855 338.803C192.765 338.917 192.63 338.978 192.492 338.979Z" fill="#F0F0F0"/>
<path d="M188.29 336.592C188.184 336.593 188.078 336.56 187.989 336.489C187.784 336.326 187.753 336.028 187.915 335.823C189.248 334.154 193.119 331.919 196.644 332.272C196.905 332.297 197.095 332.529 197.07 332.789C197.045 333.048 196.825 333.239 196.553 333.215C193.26 332.897 189.71 335.092 188.655 336.414C188.563 336.53 188.428 336.59 188.29 336.592Z" fill="#F0F0F0"/>
<path d="M184.392 333.855C184.287 333.856 184.181 333.823 184.091 333.752C183.887 333.589 183.854 333.291 184.017 333.086C185.349 331.418 189.234 329.187 192.745 329.536C193.006 329.561 193.197 329.793 193.171 330.053C193.146 330.313 192.923 330.502 192.653 330.479C189.365 330.164 185.812 332.357 184.756 333.679C184.665 333.792 184.53 333.853 184.392 333.855Z" fill="#F0F0F0"/>
<path d="M180.573 331.116C180.47 331.117 180.365 331.085 180.278 331.017C180.07 330.857 180.034 330.559 180.194 330.353C182.026 327.988 186.206 326.399 189.729 326.746C189.99 326.77 190.181 327.003 190.155 327.263C190.13 327.523 189.907 327.706 189.638 327.689C186.465 327.378 182.568 328.836 180.942 330.933C180.849 331.053 180.711 331.115 180.573 331.116Z" fill="#F0F0F0"/>
<path d="M131.619 366.343C131.353 370.915 130.642 373.947 129.02 376.629C127.398 379.31 124.337 380.153 121.236 379.367C118.137 378.582 114.166 376.483 113.278 372.539C112.389 368.594 111.872 365.891 112.575 361.65L131.619 366.343Z" fill="#263238"/>
<path d="M118.587 333.23C117.31 333.33 116.933 339.47 116.197 345.618C115.408 352.207 113.44 354.932 112.735 360.335C111.929 366.507 112.951 369.265 115.113 372.997C117.276 376.73 124.932 380.39 128.705 375.045C131.781 370.688 131.908 365.855 131.628 359.692C131.339 353.32 131.779 348.908 132.039 344.073C132.289 339.451 133.311 334.791 132.202 334.277C132.116 334.956 132.033 335.817 131.943 336.484C131.831 337.304 131.828 338.165 131.531 338.948C131.401 339.291 131.116 339.651 131 339.093C130.921 338.713 130.958 338.322 131.001 337.943C131.188 336.24 130.33 336.101 129.868 335.969C128.864 335.683 124.9 335.195 123.943 335.13C122.967 335.063 119.599 334.917 119.161 335.472C118.866 335.848 118.823 336.478 118.732 337.257C118.623 338.186 118.408 338.867 118.381 338.575C118.32 337.91 118.449 336.181 118.466 335.764C118.482 335.364 118.547 334.817 118.553 334.415C118.557 334.02 118.559 333.625 118.587 333.23Z" fill="#37474F"/>
<path d="M112.38 363.911C112.159 367.744 113.076 370.369 114.768 373.291C116.931 377.024 125.204 380.697 128.977 375.351C130.855 372.692 131.357 369.547 131.616 366.339C129.355 362.22 115.947 360.405 112.38 363.911Z" fill="#FAFAFA"/>
<path d="M128.83 359.629C128.776 359.623 128.724 359.609 128.672 359.585C128.621 359.561 122.71 357.117 116.959 358.448C116.705 358.502 116.45 358.348 116.39 358.093C116.331 357.837 116.491 357.583 116.746 357.524C122.831 356.12 128.856 358.624 129.082 358.729C129.317 358.843 129.417 359.125 129.306 359.362C129.217 359.546 129.023 359.647 128.83 359.629Z" fill="#F0F0F0"/>
<path d="M117.245 353.847C117.066 353.83 116.905 353.709 116.843 353.529C116.76 353.281 116.892 353.012 117.139 352.927C122.865 350.987 129.22 353.899 129.459 354.025C129.692 354.146 129.78 354.432 129.658 354.663C129.536 354.894 129.246 354.978 129.02 354.862C128.967 354.834 122.773 352.013 117.445 353.825C117.379 353.847 117.312 353.853 117.245 353.847Z" fill="#F0F0F0"/>
<path d="M117.446 349.509C117.271 349.492 117.112 349.375 117.048 349.198C116.959 348.951 117.088 348.68 117.334 348.592C123.632 346.336 129.664 349.517 129.888 349.653C130.111 349.789 130.183 350.081 130.046 350.303C129.91 350.527 129.614 350.599 129.395 350.462C129.346 350.431 123.515 347.385 117.653 349.483C117.585 349.508 117.514 349.516 117.446 349.509Z" fill="#F0F0F0"/>
<path d="M117.76 345.238C117.586 345.221 117.43 345.107 117.364 344.934C117.272 344.689 117.395 344.416 117.641 344.324C123.542 342.114 130.036 345.375 130.279 345.517C130.506 345.646 130.583 345.937 130.452 346.164C130.323 346.391 130.034 346.472 129.806 346.337C129.749 346.304 123.453 343.157 117.973 345.21C117.903 345.236 117.83 345.245 117.76 345.238Z" fill="#EBEBEB"/>
<path d="M130.866 141.032C125.54 154.161 123.703 161.619 123.121 192.759C122.54 223.898 122.599 237.389 122.477 241.144C122.355 244.898 120.169 251.61 118.251 270.106C116.332 288.603 118.096 310.261 118.096 310.261C118.096 310.261 119.926 313.618 126.999 314.252C133.524 314.837 136.755 312.388 136.755 312.388C136.755 312.388 145.702 276.37 148.175 265.23C150.65 254.089 158.684 211.29 158.684 211.29L162.951 240.999C162.951 240.999 160.961 251.206 162.951 267.427C164.941 283.646 168.447 300.261 168.447 300.261C168.447 300.261 172.885 301.982 178.466 301.899C184.048 301.815 187.26 299.601 187.26 299.601C187.26 299.601 192.803 251.341 192.803 232.957C192.803 214.572 192.571 168.252 186.785 141.033H130.866V141.032Z" fill="#455A64"/>
<path d="M149.928 246.425C149.928 246.425 147.119 242.367 140.221 241.534C133.325 240.701 129.742 244.447 129.742 244.447C129.742 244.447 142.541 243.095 149.928 246.425ZM128.966 247.166C137.858 248.922 141.916 248.565 145.974 247.755C145.974 247.755 133.185 246.139 128.966 247.166Z" fill="#9E6767"/>
<path d="M192.707 237.751L192.767 235.758C186.827 234.967 177.373 236.883 174.832 238.348C183.784 236.995 192.707 237.751 192.707 237.751ZM179.051 240.656C183.029 241.725 192.504 242.208 192.504 242.208L192.601 240.338C192.601 240.338 185.827 240.128 179.051 240.656Z" fill="#9E6767"/>
<path d="M119.823 311.97C120.088 312.173 120.408 312.384 120.788 312.595C118.987 283.529 122.6 266.837 125.011 255.712C125.242 254.643 125.463 253.628 125.666 252.658C127.487 243.963 128.308 226.5 128.279 212.203C128.271 207.901 128.262 203.454 128.304 198.729C128.352 193.203 128.518 187.48 128.97 181.819C139.102 180.61 141.303 170.602 144.072 157.966C144.451 156.238 144.842 154.452 145.268 152.618L144.368 152.41C143.942 154.247 143.55 156.037 143.17 157.768C140.394 170.431 138.356 179.628 129.045 180.862C130.148 168.005 132.802 155.546 139.107 146.542L138.352 146.012C128.971 159.404 127.542 180.171 127.379 198.721C127.338 203.449 127.347 207.899 127.355 212.204C127.383 226.448 126.562 243.867 124.762 252.468C124.559 253.435 124.339 254.449 124.107 255.516C121.706 266.605 118.111 283.194 119.823 311.97ZM164.508 175.935L158.684 211.288L162.951 240.997L162.387 212.139L166.341 190.218C166.488 192.395 166.64 194.627 166.795 196.905C168.079 215.7 169.533 237.003 168.55 241.487C165.853 253.778 166.646 261.531 168.087 275.607C168.233 277.036 168.385 278.529 168.542 280.098C169.333 288.051 170.208 295.851 170.799 300.97C171.094 301.045 171.416 301.12 171.755 301.194C171.164 296.088 170.269 288.126 169.46 280.005C169.304 278.436 169.152 276.943 169.005 275.512C167.574 261.531 166.787 253.83 169.451 241.684C170.463 237.07 169.066 216.619 167.716 196.841C167.471 193.253 167.234 189.778 167.016 186.468L168.138 180.242C172.571 179.179 182.335 174.028 183.634 167.909C176.802 175.057 164.508 175.935 164.508 175.935Z" fill="#37474F"/>
<path d="M214.833 125.578C214.087 125.17 212.706 126.393 210.855 128.115C209.312 129.551 209.558 131.473 209.558 131.473C209.558 131.473 211.252 131.292 212.786 129.609C214.321 127.925 214.833 125.578 214.833 125.578Z" fill="#263238"/>
<path d="M219.017 139.698C218.307 139.471 218.039 139.166 219.012 138.25C219.984 137.335 223.281 134.949 223.281 134.949L224.097 136.328C224.097 136.328 220.278 139.969 219.017 139.698Z" fill="black"/>
<path d="M239.96 117.354C239.497 115.318 237.272 113.822 233.256 111.586C233.249 111.582 233.245 111.577 233.238 111.573C233.208 111.557 233.163 111.533 233.129 111.515C232.939 111.41 232.767 111.311 232.569 111.202C232.562 111.205 232.554 111.209 232.548 111.211C225.871 107.799 193.059 92.9576 187.742 90.9192C180.613 88.1882 178.145 88.064 174.996 87.6197L182.36 113.521C182.36 113.521 206.741 121.153 216.813 124.252C214.037 127.533 211.33 130.707 208.837 131.855L218.665 140.197C220.847 136.813 234.151 130.035 237.096 125.455C239.296 122.034 240.408 119.328 239.96 117.354Z" fill="#9E6767"/>
<path d="M230.141 113.832C223.422 113.109 217.859 118.879 215.233 121.884C214.972 122.182 214.413 122.859 213.973 123.376C215.003 123.696 215.962 123.991 216.812 124.253C216.955 124.087 218.078 122.603 218.776 121.666C221.979 117.36 225.741 114.9 230.141 113.832Z" fill="#874C4C"/>
<path d="M217.914 132.83C216.799 131.841 214.079 129.354 212.351 130.084C209.627 131.234 208.346 132.311 204.256 134.23C201.297 135.618 197.705 137.469 196.934 138.388C194.973 140.727 195.631 146.718 196.417 149.255C197.173 151.695 199.597 150.703 199.597 150.703C199.837 151.221 200.495 152.346 202.586 151.925C202.743 152.702 203.93 153.633 205.78 153.26C206.012 154.121 207.672 154.419 208.785 153.915C210.326 153.219 211.939 151.018 212.911 150.18C213.798 149.416 214.345 149.027 214.366 148.501C214.394 147.789 213.611 147.078 212.311 147.197C213.772 146.711 215.289 145.987 216.288 144.678C217.092 143.625 217.789 142.327 218.302 141.118C218.864 139.792 219.173 139.311 220.087 138.282C221.522 136.665 219.373 134.246 218.214 133.11C218.117 133.014 218.016 132.92 217.914 132.83Z" fill="#9E6767"/>
<path d="M212.311 147.197C211.859 147.448 211.419 147.707 211.057 148.044C210.879 148.216 210.705 148.388 210.56 148.587C210.408 148.784 210.295 149.001 210.124 149.224L210.038 149.335L209.911 149.271C209.209 148.918 208.35 148.925 207.512 148.946C208.307 148.656 209.227 148.589 210.065 148.962L209.853 149.009C210.129 148.625 210.447 148.14 210.882 147.833C211.313 147.514 211.805 147.308 212.311 147.197Z" fill="#874C4C"/>
<path d="M209.448 151.358C209.546 150.952 209.69 150.613 209.764 150.244C209.871 149.884 209.916 149.522 209.988 149.115C210.205 149.485 210.182 149.927 210.103 150.329C209.982 150.725 209.79 151.11 209.448 151.358Z" fill="#874C4C"/>
<path d="M205.779 153.26C205.253 152.3 205.053 151.202 204.941 150.125C204.881 149.045 204.883 147.931 205.241 146.896C205.173 147.973 205.192 149.036 205.29 150.098C205.362 151.162 205.528 152.208 205.779 153.26Z" fill="#874C4C"/>
<path d="M202.586 151.925C202.114 150.706 201.86 149.417 201.705 148.12C201.591 146.822 201.573 145.495 201.871 144.219C201.863 145.521 201.901 146.804 202.052 148.085C202.166 149.368 202.393 150.635 202.586 151.925Z" fill="#874C4C"/>
<path d="M199.596 150.703C198.447 148.285 198.174 145.401 198.932 142.823C198.829 144.159 198.76 145.479 198.896 146.792C198.988 148.11 199.283 149.4 199.596 150.703Z" fill="#874C4C"/>
<path d="M199.111 140.773C199.095 140.456 199.136 140.127 199.271 139.823C199.4 139.515 199.628 139.253 199.878 139.039C200.413 138.645 201.026 138.426 201.658 138.35C201.382 138.508 201.107 138.658 200.838 138.805C200.571 138.956 200.307 139.104 200.083 139.297C199.599 139.644 199.324 140.171 199.111 140.773Z" fill="#874C4C"/>
<path d="M202.158 141.963C202.142 141.645 202.184 141.317 202.319 141.012C202.448 140.704 202.674 140.442 202.925 140.229C203.46 139.834 204.073 139.615 204.706 139.539C204.43 139.698 204.154 139.847 203.885 139.994C203.618 140.145 203.354 140.294 203.13 140.486C202.647 140.833 202.371 141.362 202.158 141.963Z" fill="#874C4C"/>
<path d="M205.851 143.64C205.836 143.323 205.877 142.994 206.012 142.69C206.141 142.382 206.368 142.12 206.619 141.906C207.154 141.512 207.767 141.293 208.399 141.217C208.123 141.375 207.847 141.525 207.578 141.672C207.311 141.823 207.047 141.97 206.823 142.164C206.34 142.511 206.064 143.038 205.851 143.64Z" fill="#874C4C"/>
<path d="M221.285 126.437L217.145 125.042C216.296 124.756 215.06 125.004 214.389 125.597L211.11 128.485C210.773 128.781 210.642 129.107 210.7 129.395C210.743 129.607 210.902 130.403 210.945 130.616C211.004 130.902 211.252 131.151 211.674 131.294L215.814 132.689C216.664 132.975 217.899 132.727 218.572 132.134L221.85 129.246C222.177 128.959 222.31 128.643 222.264 128.362C222.228 128.14 222.056 127.331 222.015 127.119C221.958 126.831 221.711 126.58 221.285 126.437Z" fill="#37474F"/>
<path d="M211.11 128.484L214.388 125.596C215.061 125.003 216.295 124.755 217.145 125.041L221.285 126.436C222.135 126.723 222.278 127.435 221.605 128.029L218.327 130.916C217.654 131.509 216.419 131.758 215.569 131.471L211.429 130.076C210.58 129.79 210.437 129.077 211.11 128.484Z" fill="#455A64"/>
<path d="M216.936 131.126C216.49 131.216 216.04 131.202 215.7 131.088L211.56 129.693C211.296 129.604 211.128 129.466 211.098 129.315C211.068 129.166 211.17 128.973 211.379 128.79L214.658 125.902C214.926 125.665 215.336 125.478 215.781 125.388C216.227 125.299 216.677 125.313 217.016 125.428L221.156 126.823C221.42 126.911 221.589 127.048 221.619 127.199C221.65 127.35 221.546 127.541 221.337 127.725L218.059 130.613C217.791 130.849 217.381 131.036 216.936 131.126Z" fill="#263238"/>
<path d="M215.109 131.976C215.085 131.981 215.059 131.98 215.035 131.971L212.101 130.982C212.027 130.958 211.987 130.877 212.011 130.803C212.037 130.727 212.118 130.688 212.191 130.714L215.125 131.703C215.199 131.728 215.24 131.809 215.215 131.884C215.198 131.933 215.157 131.966 215.109 131.976Z" fill="#455A64"/>
<path d="M218.59 131.376C219.213 131.569 220.588 132.415 221.15 134.889C221.712 137.363 220.43 139.413 219.017 139.698C219.516 140.029 220.711 139.534 222.183 138.431C222.656 138.076 223.066 137.767 223.404 137.513C224.385 136.774 224.946 135.604 224.88 134.378C224.863 134.033 224.812 133.661 224.714 133.268C224.226 131.32 223.597 129.888 221.686 128.654L218.59 131.376Z" fill="#263238"/>
<path d="M123.456 163.619C125.72 153.29 129.162 138.069 129.244 135.788C129.575 126.542 127.195 119.66 126.336 113.909C124.464 101.386 129.158 90.8729 132.074 88.4069C132.074 88.4069 135.102 87.7103 138.726 86.8483C140.904 86.33 141.652 86.1951 144.969 85.7261C152.336 84.6867 158.938 84.9872 161.693 85.267C163.051 85.4049 169.486 86.5143 169.486 86.5143C171.433 86.9685 174.991 87.6148 174.998 87.6197C174.998 87.6197 179.445 91.2522 183.607 98.6906C186.783 104.368 188.347 109.11 187.928 121.274C187.802 124.922 187.658 131.453 187.804 136.669C188.116 147.829 188.963 152.426 190.377 162.557C177.554 170.438 145.268 174.075 123.456 163.619Z" fill="#263238"/>
<path d="M145.979 78.8177C146.942 78.6226 147.878 78.2217 148.789 77.8335C150.133 77.2611 151.555 76.6946 153.008 76.8414C154.813 77.0246 156.286 78.2325 158.005 78.7015C158.959 78.9616 159.971 78.9488 160.944 78.8138C161.557 78.7291 162.143 78.534 162.744 78.3941C163.759 78.1586 164.714 78.0975 165.749 78.2256C166.773 78.3527 167.849 78.536 168.851 78.1921C170.441 77.6473 171.365 75.931 172.895 75.2355C174.612 74.4542 176.641 75.132 178.494 74.7823C180.165 74.467 181.61 73.2936 182.438 71.8079C183.265 70.3222 183.51 68.5566 183.321 66.866C183.19 65.6995 182.869 64.4768 183.305 63.3862C183.599 62.6483 184.202 62.0857 184.738 61.4985C185.816 60.3162 186.717 58.6887 186.213 57.1694C185.773 55.8424 184.347 54.9133 184.249 53.5182C184.159 52.2148 185.571 51.0492 186.836 51.3724C188.102 51.6965 188.782 53.3813 188.108 54.4995C189.397 53.5113 190.58 52.13 190.591 50.5064C190.601 49.1379 189.77 47.8995 188.804 46.9291C187.839 45.9586 186.707 45.1497 185.851 44.0818C185.389 43.5054 185.023 42.8364 184.841 42.1172C184.753 41.7675 184.71 41.4039 184.732 41.0433C184.771 40.396 185.024 39.7685 185.128 39.133C185.554 36.5241 183.757 33.7409 181.204 33.0542C179.828 32.6837 178.168 32.7823 177.241 31.6995C176.565 30.9103 176.548 29.7645 176.155 28.8029C175.154 26.3497 171.81 25.6138 169.342 26.5783C168.123 27.0542 166.892 27.8611 165.618 27.5645C164.731 27.3576 164.061 26.6581 163.366 26.0709C162.219 25.1034 160.865 24.3872 159.428 23.9596C158.708 23.7458 157.969 23.6039 157.221 23.5379C156.847 23.5054 156.472 23.4916 156.098 23.4975C155.817 23.5015 155.52 23.5606 155.24 23.5399C154.99 23.5202 154.767 23.4581 154.509 23.464C154.203 23.4709 153.897 23.4946 153.592 23.534C152.375 23.6916 151.192 24.1034 150.136 24.7281C149.281 25.2335 148.508 25.8798 147.87 26.6424C147.403 27.2 147.001 27.8197 146.445 28.2887C145.041 29.4768 143.022 29.4552 141.195 29.6837C139.091 29.9458 137.001 30.6424 135.334 31.9527C133.667 33.264 132.461 35.2355 132.346 37.3537C132.294 38.3034 132.444 39.3172 131.999 40.1586C131.658 40.8029 131.02 41.2315 130.381 41.5832C128.894 42.4029 127.257 42.9616 125.869 43.9399C124.48 44.9182 123.327 46.4798 123.467 48.1734C123.585 49.6069 124.576 50.7892 125.413 51.9586C126.25 53.1281 127 54.5813 126.563 55.9517C126.286 56.8187 125.581 57.4749 125.143 58.2719C124.058 60.2433 124.984 63.0453 127.029 63.9832C128.301 64.5665 130.101 64.7281 130.462 66.0798C130.664 66.8335 130.268 67.6029 130.139 68.3734C129.749 70.6916 131.975 72.8069 134.305 73.1241C135.621 73.3034 137.097 73.1074 138.149 73.9182C139.049 74.6128 139.335 75.8286 139.963 76.7763C140.581 77.7103 141.579 78.3675 142.664 78.6256C143.198 78.7527 143.753 78.6798 144.279 78.8118C144.862 78.9606 145.386 78.9379 145.979 78.8177Z" fill="#263238"/>
<path d="M145.611 81.9044C145.634 79.8532 145.352 69.5567 145.352 69.5567C145.264 70.3232 141.524 72.4108 138.195 68.4414C134.777 64.3665 134.643 60.2502 136.653 57.5685C138.875 54.6049 144.668 54.6739 145.216 59.6926C148.092 59.5823 149.48 58.3409 148.344 53.6049C148.597 50.8473 151.244 49.7163 152.064 45.2364C152.695 41.7901 155.456 39.0207 158.958 38.8936C161.629 38.7961 164.071 39.4305 166.342 41.7094C167.404 40.0177 168.547 39.267 169.809 39.0571C173.66 38.4177 177.245 41.1695 178.07 44.9852C178.849 48.5921 179.55 53.7803 179.337 59.4502C178.927 70.3754 175.992 75.6414 172.492 77.4719C170.145 78.6995 168.02 78.9872 163.93 78.6384L164.115 82.069C164.188 83.7872 164.034 85.064 165.704 85.6256C166.825 86.003 169.484 86.5133 169.484 86.5133C169.484 86.5133 173.37 93.2295 162.651 93.8315C145.567 94.7911 138.725 86.8463 138.725 86.8463C138.725 86.8463 139.875 86.4975 142.505 85.6798C145.293 84.8148 145.588 83.9566 145.611 81.9044Z" fill="#9E6767"/>
<path d="M166.309 66.7251C166.034 66.3655 165.64 66.1044 165.201 65.9773C164.809 65.864 164.406 65.797 163.999 65.7625C163.596 65.729 163.215 65.7497 162.82 65.8364C162.609 65.8827 162.382 65.929 162.181 66.0098C162.004 66.0808 161.851 66.2108 161.699 66.3251C161.607 66.3941 161.487 66.7803 161.695 66.7832C161.904 66.7852 162.109 66.8089 162.316 66.7813C162.495 66.7576 162.675 66.7399 162.856 66.732C163.239 66.7143 163.633 66.7182 164.015 66.7448C164.387 66.7704 164.757 66.8423 165.115 66.9458C165.273 66.9921 165.431 67.0157 165.592 67.0492C165.681 67.068 165.77 67.0985 165.859 67.1103C165.973 67.1251 166.084 67.0985 166.198 67.0887C166.333 67.0778 166.379 66.8157 166.309 66.7251Z" fill="#874C4C"/>
<path opacity="0.2" d="M166.309 66.7251C166.034 66.3655 165.64 66.1044 165.201 65.9773C164.809 65.864 164.406 65.797 163.999 65.7625C163.596 65.729 163.215 65.7497 162.82 65.8364C162.609 65.8827 162.382 65.929 162.181 66.0098C162.004 66.0808 161.851 66.2108 161.699 66.3251C161.607 66.3941 161.487 66.7803 161.695 66.7832C161.904 66.7852 162.109 66.8089 162.316 66.7813C162.495 66.7576 162.675 66.7399 162.856 66.732C163.239 66.7143 163.633 66.7182 164.015 66.7448C164.387 66.7704 164.757 66.8423 165.115 66.9458C165.273 66.9921 165.431 67.0157 165.592 67.0492C165.681 67.068 165.77 67.0985 165.859 67.1103C165.973 67.1251 166.084 67.0985 166.198 67.0887C166.333 67.0778 166.379 66.8157 166.309 66.7251Z" fill="black"/>
<path d="M176.165 49.7803L171.864 48.064C172.297 46.8493 173.611 46.2483 174.798 46.7232C175.986 47.197 176.598 48.5665 176.165 49.7803Z" fill="#263238"/>
<path d="M161.492 48.3773L156.906 47.398C156.584 48.664 157.352 49.9094 158.618 50.1803C159.884 50.4502 161.171 49.6433 161.492 48.3773Z" fill="#263238"/>
<path d="M171.473 53.9182C171.39 54.9704 172.185 55.9133 173.247 56.0266C174.309 56.1389 175.237 55.3773 175.32 54.3261C175.403 53.2739 174.608 52.33 173.547 52.2177C172.485 52.1054 171.556 52.867 171.473 53.9182Z" fill="#263238"/>
<path d="M157.484 54.2296C157.401 55.2808 158.195 56.2246 159.257 56.3379C160.319 56.4502 161.248 55.6887 161.33 54.6374C161.414 53.5852 160.619 52.6414 159.558 52.53C158.495 52.4167 157.566 53.1783 157.484 54.2296Z" fill="#263238"/>
<path d="M173.211 60.6394L166.91 62.9488L165.231 51.9882C167.662 52.0483 170.761 55.8729 173.211 60.6394Z" fill="#874C4C"/>
<path d="M163.929 78.6394C156.591 77.8828 149.573 75.464 147.931 72.1143C147.931 72.1143 148.223 75.3054 150.87 77.5222C155.766 81.6217 164.069 81.2355 164.069 81.2355L163.929 78.6394Z" fill="#874C4C"/>
<path d="M120.188 180.842C117.095 181.723 113.135 177.876 112.049 176.538C110.963 175.199 112.362 172.019 113.019 169.336C113.675 166.653 112.991 162.115 116.335 163.385C119.679 164.656 126.637 173.619 120.188 180.842Z" fill="#874C4C"/>
<path d="M132.073 88.4069C123.465 89.6798 119.475 91.7458 114.736 101.272C109.218 112.366 100.285 127.797 98.9054 132.614C97.6217 137.094 95.0591 140.292 99.9645 147.105C104.451 153.338 118.551 169.673 120.622 172.069C122.454 174.189 121.441 180.263 115.138 179.36C115.138 179.36 119.935 183.604 122.568 183.132C124.841 182.725 128.418 180.736 131.697 173.839C133.766 169.489 132.033 166.076 128.886 161.233C125.127 155.451 117.003 139.323 117.003 139.323L131.539 113.513C131.539 113.513 139.404 96.0571 132.073 88.4069Z" fill="#9E6767"/>
<path d="M219.37 342.892C219.319 341.492 218.595 340.238 217.618 339.268C216.739 338.396 215.473 337.518 214.2 337.467C213.971 337.458 213.856 337.794 213.844 337.967C213.826 338.206 213.911 338.503 214.119 338.641C215.052 339.254 216.061 339.673 216.828 340.493C217.158 340.846 217.454 341.24 217.673 341.673C217.729 341.783 217.779 341.895 217.829 342.008C217.834 342.019 217.847 342.051 217.856 342.075C217.882 342.143 217.906 342.212 217.931 342.279C218.028 342.538 218.14 342.79 218.207 343.059C218.336 343.579 218.289 343.984 218.335 344.524C218.348 344.674 218.355 344.856 218.444 344.983C218.708 345.361 219.055 344.682 219.155 344.427C219.339 343.948 219.388 343.401 219.37 342.892Z" fill="#FAFAFA"/>
<path d="M221.347 336.722C220.398 335.581 219.182 334.682 217.852 334.034C216.536 333.393 214.849 332.918 213.425 333.438C213.049 333.575 213.091 334.4 213.47 334.508C214.819 334.894 216.182 335.117 217.47 335.703C218.493 336.168 219.416 336.84 220.17 337.674C222.053 339.758 222.639 342.654 222.651 345.379C222.652 345.58 222.859 345.561 222.933 345.411C224.353 342.544 223.29 339.057 221.347 336.722Z" fill="#FAFAFA"/>
<path d="M60.3261 74.7153C60.3143 74.7153 60.3035 74.7143 60.2917 74.7143C60.2798 74.7143 60.269 74.7153 60.2572 74.7153H60.3261ZM20.134 54.535C25.5133 65.4502 38.1567 74.7034 60.2907 74.7153C70.1498 74.7103 78.1143 72.864 84.404 69.8621C88.6355 75.069 97.2414 76.997 103.471 74.5695C104.288 74.2512 104.288 73.0778 103.479 72.7399C97.1626 70.0965 95.3449 65.6158 94.8454 62.4571C97.2109 60.0089 99.071 57.3281 100.447 54.535C106.33 42.597 105.487 29.3153 98.133 18.0965C90.9991 7.21281 75.3163 0.371429 60.2907 0.371429C45.2651 0.371429 29.5823 7.21281 22.4473 18.0965C15.0946 29.3153 14.2513 42.597 20.134 54.535Z" fill="#FAFAFA"/>
<path d="M97.656 75.9734C92.5802 75.9734 87.3555 73.8946 84.3053 70.3113C77.5762 73.467 69.5112 75.07 60.325 75.0788H60.256C33.792 75.0562 23.5555 62.2995 19.8078 54.6966C13.8669 42.6404 14.7181 29.2266 22.1437 17.8975C29.1575 7.19705 44.4875 0.00788879 60.2905 0.00788879C76.0944 0.00788879 91.4245 7.19705 98.4373 17.8975C105.864 29.2276 106.715 42.6394 100.773 54.6966C99.3664 57.5517 97.5043 60.203 95.2344 62.5783C95.7772 65.7271 97.6856 69.9222 103.621 72.4049C104.131 72.6187 104.456 73.1192 104.449 73.6778C104.442 74.2365 104.118 74.7094 103.604 74.9094C101.749 75.6306 99.7141 75.9714 97.656 75.9734ZM84.5063 69.4099L84.6866 69.6325C88.725 74.6 97.0915 76.6611 103.34 74.2305C103.575 74.1379 103.718 73.9271 103.722 73.668C103.724 73.4591 103.625 73.1951 103.34 73.0749C96.9841 70.4158 95.0176 65.864 94.4876 62.5133L94.459 62.334L94.5851 62.203C96.86 59.8473 98.723 57.2138 100.122 54.3734C105.947 42.5537 105.111 29.4039 97.8304 18.2946C91.0531 7.95567 75.6166 0.733997 60.2915 0.733997C44.9664 0.733997 29.5309 7.95567 22.7526 18.2946C15.4718 29.403 14.6373 42.5537 20.4609 54.3734C24.1348 61.8286 34.1949 74.3379 60.2915 74.3498C69.4994 74.3448 77.5595 72.7251 84.2481 69.532L84.5063 69.4099Z" fill="#455A64"/>
<path d="M69.4544 44.9576C72.0711 47.8384 72.3095 51.3498 72.3095 55.5576H48.2021C48.2021 51.3488 48.4406 47.8384 51.0534 44.9576C53.6701 42.0769 55.7893 41.0719 56.8573 40.0296C57.9292 38.9872 58.1677 38.1951 58.1677 37.5823C58.1677 36.9655 57.9292 36.1734 56.8573 35.131C55.7893 34.0887 53.6701 33.0847 51.0534 30.203C48.4406 27.3261 48.2021 23.8108 48.2021 19.603H72.3095C72.3095 23.8118 72.0711 27.3261 69.4544 30.203C66.8416 33.0837 64.7224 34.0877 63.6504 35.131C62.5825 36.1734 62.344 36.9655 62.344 37.5823C62.344 38.1951 62.5825 38.9862 63.6504 40.0296C64.2337 40.5961 65.1223 41.1488 66.2337 42C67.1696 42.7153 68.2593 43.6434 69.4544 44.9576Z" fill="#B565A7"/>
<path opacity="0.6" d="M69.4544 44.9576C72.0711 47.8384 72.3095 51.3498 72.3095 55.5576H48.2021C48.2021 51.3488 48.4406 47.8384 51.0534 44.9576C53.6701 42.0769 55.7893 41.0719 56.8573 40.0296C57.9292 38.9872 58.1677 38.1951 58.1677 37.5823C58.1677 36.9655 57.9292 36.1734 56.8573 35.131C55.7893 34.0887 53.6701 33.0847 51.0534 30.203C48.4406 27.3261 48.2021 23.8108 48.2021 19.603H72.3095C72.3095 23.8118 72.0711 27.3261 69.4544 30.203C66.8416 33.0837 64.7224 34.0877 63.6504 35.131C62.5825 36.1734 62.344 36.9655 62.344 37.5823C62.344 38.1951 62.5825 38.9862 63.6504 40.0296C64.2337 40.5961 65.1223 41.1488 66.2337 42C67.1696 42.7153 68.2593 43.6434 69.4544 44.9576Z" fill="#FAFAFA"/>
<path opacity="0.5" d="M48.8781 55.0601C48.8781 55.0601 48.8771 55.0601 48.8761 55.0601C48.7431 55.0591 48.6357 54.9508 48.6367 54.8177C48.6594 51.2778 48.888 47.8729 51.3835 45.1232C53.0712 43.265 54.5126 42.2266 55.6712 41.3921C56.2692 40.9616 56.7825 40.5921 57.1717 40.2138C58.1323 39.2769 58.5993 38.3823 58.5993 37.4808C58.5993 36.5783 58.1323 35.6847 57.1717 34.7478C56.7845 34.3705 56.2732 34.002 55.6811 33.5754C54.5126 32.734 53.0712 31.6956 51.3835 29.8375C48.887 27.0887 48.6594 23.6838 48.6367 20.1439C48.6357 20.0109 48.7431 19.9025 48.8761 19.9015C49.0091 19.9015 49.1175 20.0079 49.1185 20.1409C49.1412 23.5833 49.3589 26.8907 51.7402 29.5133C53.3924 31.333 54.8121 32.3547 55.952 33.1764C56.5697 33.6217 57.0949 33.999 57.5077 34.402C58.5668 35.4345 59.0811 36.4414 59.0811 37.4808C59.0811 38.5192 58.5668 39.5271 57.5086 40.5586C57.0939 40.9626 56.5668 41.3419 55.9569 41.7813C54.8131 42.6049 53.3944 43.6266 51.7412 45.4473C49.3599 48.0709 49.1421 51.3783 49.1195 54.8207C49.1185 54.9537 49.0111 55.0601 48.8781 55.0601Z" fill="#FAFAFA"/>
<path d="M68.3875 45.8572C70.4062 48.0158 70.7708 50.7379 70.8397 53.9685H49.7412C49.8102 50.7379 50.156 47.998 52.1934 45.8572C54.3087 43.6345 56.7382 42.7852 60.291 42.7852C63.8427 42.7852 66.7924 44.1517 68.3875 45.8572Z" fill="#FAFAFA"/>
<path d="M70.7414 22.9576C70.504 25.3291 69.9572 27.3754 68.3877 29.1025C66.7759 30.8778 65.3848 31.8798 64.2666 32.6838C63.637 33.1379 63.0932 33.5291 62.6459 33.9645C61.4636 35.1172 60.8892 36.267 60.8892 37.4798C60.8892 38.6631 60.6882 38.9645 60.2912 38.9645C59.8941 38.9645 59.6922 38.6916 59.6922 37.4798C59.6922 36.268 59.1178 35.1172 57.9355 33.9645C57.4892 33.5291 56.9444 33.137 56.3148 32.6838C55.1966 31.8788 53.8055 30.8769 52.1937 29.1025C51.7227 28.5842 51.3414 28.0374 51.0331 27.4621C50.9306 27.2709 51.101 27.0453 51.3119 27.0956C52.303 27.333 54.5739 27.7803 57.1276 27.6227C61.0104 27.3833 62.7523 26.733 65.1867 24.6966C66.6498 23.4729 67.7483 21.7783 68.7237 21.3724C69.9996 20.8414 70.8902 21.7596 70.7414 22.9576Z" fill="#FAFAFA"/>
<path d="M60.291 41.4079C60.6871 41.4079 61.0082 41.0868 61.0082 40.6906C61.0082 40.2945 60.6871 39.9734 60.291 39.9734C59.8948 39.9734 59.5737 40.2945 59.5737 40.6906C59.5737 41.0868 59.8948 41.4079 60.291 41.4079Z" fill="#FAFAFA"/>
<path opacity="0.3" d="M66.2338 42C67.1698 42.7153 68.2594 43.6424 69.4555 44.9576C72.0722 47.8384 72.3106 51.3498 72.3106 55.5576H50.9658C54.1875 55.5576 63.2092 54.0532 66.4259 50.8936C69.8407 47.5389 68.1658 44.6936 66.2338 42Z" fill="#B565A7"/>
<path opacity="0.3" d="M72.3094 19.604C72.3094 23.8128 72.071 27.3271 69.4543 30.204C66.8415 33.0847 64.7223 34.0887 63.6503 35.132C62.5823 36.1744 62.3439 36.9665 62.3439 37.5833C62.3439 38.1961 62.5823 38.9872 63.6503 40.0306C60.1094 37.8857 60.6848 35.7281 61.3439 34.2818C62.008 32.8345 66.408 30.1242 66.1656 26.1458C65.9272 22.1675 59.7183 19.6049 53.8247 19.6049L72.3094 19.604Z" fill="#B565A7"/>
<path d="M74.4849 16.3764C74.4849 17.5596 73.5233 18.5172 72.344 18.5172H48.2366C47.0533 18.5172 46.0957 17.5596 46.0957 16.3764H74.4849Z" fill="#B565A7"/>
<path opacity="0.2" d="M64.7272 16.3764C64.7272 17.5596 63.7696 18.5172 62.5864 18.5172H48.2366C47.0533 18.5172 46.0957 17.5596 46.0957 16.3764H64.7272Z" fill="#FAFAFA"/>
<path d="M76.1618 13.7251V14.5547C76.1618 15.5586 75.345 16.3764 74.3401 16.3764H46.2416C45.2377 16.3764 44.4199 15.5596 44.4199 14.5547V13.7251C44.4199 13.5163 44.5904 13.3468 44.7982 13.3468H75.7825C75.9913 13.3468 76.1618 13.5172 76.1618 13.7251Z" fill="#B565A7"/>
<path opacity="0.15" d="M76.1271 13.7251V14.5547C76.1271 15.5586 75.3104 16.3764 74.3055 16.3764H46.2069C45.203 16.3764 44.3853 15.5596 44.3853 14.5547V13.7251C44.3853 13.5163 44.5557 13.3468 44.7636 13.3468H75.7478C75.9567 13.3468 76.1271 13.5172 76.1271 13.7251Z" fill="black"/>
<path d="M68.0849 13.7251V14.5547C68.0849 15.5586 67.2682 16.3764 66.2593 16.3764H46.2416C45.2377 16.3764 44.4199 15.5596 44.4199 14.5547V13.7251C44.4199 13.5163 44.5904 13.3468 44.7982 13.3468H67.7056C67.9145 13.3468 68.0849 13.5172 68.0849 13.7251Z" fill="#B565A7"/>
<path opacity="0.2" d="M49.2462 16.3764C48.4629 15.5557 48.5634 14.0493 49.2462 13.3468H55.7014C56.4846 14.1675 56.3841 15.6739 55.7014 16.3764H49.2462Z" fill="#FAFAFA"/>
<path opacity="0.2" d="M50.3332 18.5172C49.813 17.9369 49.88 16.8729 50.3332 16.3764H54.616C55.1362 16.9567 55.0692 18.0207 54.616 18.5172H50.3332Z" fill="#FAFAFA"/>
<path d="M46.0967 58.5842C46.0967 57.401 47.0583 56.4434 48.2376 56.4434H72.345C73.5282 56.4434 74.4858 57.401 74.4858 58.5842H46.0967Z" fill="#B565A7"/>
<path opacity="0.2" d="M55.8545 58.5842C55.8545 57.401 56.8121 56.4434 57.9954 56.4434H72.3451C73.5284 56.4434 74.486 57.401 74.486 58.5842H55.8545Z" fill="#FAFAFA"/>
<path d="M44.4209 61.2355V60.4059C44.4209 59.402 45.2376 58.5842 46.2426 58.5842H74.3411C75.345 58.5842 76.1628 59.401 76.1628 60.4059V61.2355C76.1628 61.4443 75.9923 61.6138 75.7844 61.6138H44.8002C44.5904 61.6138 44.4209 61.4434 44.4209 61.2355Z" fill="#B565A7"/>
<path opacity="0.15" d="M44.4209 61.2355V60.4059C44.4209 59.402 45.2376 58.5842 46.2426 58.5842H74.3411C75.345 58.5842 76.1628 59.401 76.1628 60.4059V61.2355C76.1628 61.4443 75.9923 61.6138 75.7844 61.6138H44.8002C44.5904 61.6138 44.4209 61.4434 44.4209 61.2355Z" fill="black"/>
<path d="M52.4976 61.2355V60.4059C52.4976 59.402 53.3143 58.5842 54.3232 58.5842H74.3409C75.3449 58.5842 76.1626 59.401 76.1626 60.4059V61.2355C76.1626 61.4443 75.9921 61.6138 75.7843 61.6138H52.8769C52.667 61.6138 52.4976 61.4434 52.4976 61.2355Z" fill="#B565A7"/>
<path opacity="0.2" d="M71.3352 58.5842C72.1184 59.4049 72.0179 60.9113 71.3352 61.6138H64.88C64.0967 60.7931 64.1972 59.2867 64.88 58.5842H71.3352Z" fill="#FAFAFA"/>
<path opacity="0.2" d="M70.2484 56.4434C70.7686 57.0237 70.7016 58.0877 70.2484 58.5842H65.9657C65.4464 58.0039 65.5125 56.9399 65.9657 56.4434H70.2484Z" fill="#FAFAFA"/>
</g>
<defs>
<clipPath id="clip0_293_3109">
<rect width="241.414" height="400" fill="white" transform="translate(0.292969)"/>
</clipPath>
</defs>
</svg>
