<svg width="311" height="180" viewBox="0 0 311 180" fill="none" xmlns="http://www.w3.org/2000/svg">
<path fill-rule="evenodd" clip-rule="evenodd" d="M147.554 63.4069C149.907 63.6998 152.295 64.1255 154.591 64.6995C159.753 65.9897 163.639 67.827 165.861 69.8538C171.552 75.0446 174.591 81.9188 174.591 88.9126C174.591 95.9065 171.552 102.781 165.861 107.971C163.318 110.291 159.06 112.64 153.923 114.411C151.793 115.145 149.639 115.737 147.554 116.176V63.4069ZM139.554 125.1C142.043 125.1 144.761 124.83 147.554 124.326C156.285 122.753 165.752 118.899 171.252 113.882C178.512 107.26 182.591 98.2779 182.591 88.9126C182.591 79.5473 178.512 70.5656 171.252 63.9434C165.752 58.9263 156.285 56.3204 147.554 55.3519C144.761 55.042 142.043 54.8998 139.554 54.8998V62.8998V117.1V125.1ZM146.727 62.5497H139.554V117.153H146.727V62.5497Z" fill="#CD98C4"/>
<mask id="path-2-inside-1_286_1054" fill="white">
<path fill-rule="evenodd" clip-rule="evenodd" d="M170.811 180H152.411V172H170.811C243.712 172 302.811 112.902 302.811 40V8H152.411V0H310.811V40C310.811 117.32 248.131 180 170.811 180Z"/>
</mask>
<path fill-rule="evenodd" clip-rule="evenodd" d="M170.811 180H152.411V172H170.811C243.712 172 302.811 112.902 302.811 40V8H152.411V0H310.811V40C310.811 117.32 248.131 180 170.811 180Z" fill="#CD98C4"/>
<path d="M152.411 180H144.411V188H152.411V180ZM152.411 172V164H144.411V172H152.411ZM302.811 8H310.811V0H302.811V8ZM152.411 8H144.411V16H152.411V8ZM152.411 0V-8H144.411V0H152.411ZM310.811 0H318.811V-8H310.811V0ZM152.411 188H170.811V172H152.411V188ZM144.411 172V180H160.411V172H144.411ZM170.811 164H152.411V180H170.811V164ZM294.811 40C294.811 108.483 239.294 164 170.811 164V180C248.131 180 310.811 117.32 310.811 40H294.811ZM294.811 8V40H310.811V8H294.811ZM152.411 16H302.811V0H152.411V16ZM144.411 0V8H160.411V0H144.411ZM310.811 -8H152.411V8H310.811V-8ZM318.811 40V0H302.811V40H318.811ZM170.811 188C252.549 188 318.811 121.738 318.811 40H302.811C302.811 112.902 243.712 172 170.811 172V188Z" fill="#CD98C4" mask="url(#path-2-inside-1_286_1054)"/>
<path d="M143.14 3.59998V56.7" stroke="#CD98C4" stroke-width="8"/>
<path d="M143.14 120.6V173.7" stroke="#CD98C4" stroke-width="8"/>
<path d="M0.523682 140C0.523682 62.6801 63.2038 0 140.524 0H154.252V180H0.523682V140Z" fill="#CD98C4"/>
<path d="M153.78 58.5C163.753 58.5 171.887 60.6472 178.939 66.6803C185.99 72.7134 189.952 80.896 189.952 89.428C189.952 97.9601 185.99 106.143 178.939 112.176C171.887 118.209 163.753 121.5 153.78 121.5V58.5Z" fill="#CD98C4"/>
</svg>
