<svg width="600" height="600" viewBox="0 0 600 600" fill="none" xmlns="http://www.w3.org/2000/svg">
<rect width="600" height="600" rx="300" fill="#F7EEF5"/>
<path fill-rule="evenodd" clip-rule="evenodd" d="M291.554 273.407C293.907 273.7 296.295 274.125 298.591 274.699C303.753 275.99 307.639 277.827 309.861 279.854C315.552 285.045 318.591 291.919 318.591 298.913C318.591 305.906 315.552 312.781 309.861 317.971C307.318 320.291 303.06 322.64 297.924 324.411C295.794 325.145 293.639 325.737 291.554 326.176V273.407ZM283.554 335.1C286.043 335.1 288.761 334.83 291.554 334.326C300.285 332.753 309.752 328.899 315.252 323.882C322.512 317.26 326.591 308.278 326.591 298.913C326.591 289.547 322.512 280.566 315.252 273.943C309.752 268.926 300.285 266.32 291.554 265.352C288.761 265.042 286.043 264.9 283.554 264.9V272.9V327.1V335.1ZM290.727 272.55H283.554V327.153H290.727V272.55Z" fill="#28112B"/>
<mask id="path-3-inside-1_286_1035" fill="white">
<path fill-rule="evenodd" clip-rule="evenodd" d="M314.811 390H296.411V382H314.811C387.712 382 446.811 322.902 446.811 250V218H296.411V210H454.811V250C454.811 327.32 392.131 390 314.811 390Z"/>
</mask>
<path fill-rule="evenodd" clip-rule="evenodd" d="M314.811 390H296.411V382H314.811C387.712 382 446.811 322.902 446.811 250V218H296.411V210H454.811V250C454.811 327.32 392.131 390 314.811 390Z" fill="#28112B"/>
<path d="M296.411 390H288.411V398H296.411V390ZM296.411 382V374H288.411V382H296.411ZM446.811 218H454.811V210H446.811V218ZM296.411 218H288.411V226H296.411V218ZM296.411 210V202H288.411V210H296.411ZM454.811 210H462.811V202H454.811V210ZM296.411 398H314.811V382H296.411V398ZM288.411 382V390H304.411V382H288.411ZM314.811 374H296.411V390H314.811V374ZM438.811 250C438.811 318.483 383.294 374 314.811 374V390C392.131 390 454.811 327.32 454.811 250H438.811ZM438.811 218V250H454.811V218H438.811ZM296.411 226H446.811V210H296.411V226ZM288.411 210V218H304.411V210H288.411ZM454.811 202H296.411V218H454.811V202ZM462.811 250V210H446.811V250H462.811ZM314.811 398C396.549 398 462.811 331.738 462.811 250H446.811C446.811 322.902 387.712 382 314.811 382V398Z" fill="#28112B" mask="url(#path-3-inside-1_286_1035)"/>
<path d="M287.14 213.6V266.7" stroke="#28112B" stroke-width="8"/>
<path d="M287.14 330.6V383.7" stroke="#28112B" stroke-width="8"/>
<path d="M144.524 350C144.524 272.68 207.204 210 284.524 210H298.252V390H144.524V350Z" fill="#28112B"/>
<path d="M297.78 268.5C307.753 268.5 315.887 270.647 322.938 276.68C329.99 282.713 333.952 290.896 333.952 299.428C333.952 307.96 329.99 316.143 322.938 322.176C315.887 328.209 307.753 331.5 297.78 331.5V268.5Z" fill="#28112B"/>
</svg>
